<?xml version="1.0" encoding="UTF-8"?>
<!DOCTYPE svg PUBLIC "-//W3C//DTD SVG 1.1//EN" "http://www.w3.org/Graphics/SVG/1.1/DTD/svg11.dtd">
<svg xmlns="http://www.w3.org/2000/svg" version="1.1" width="512px" height="512px" style="shape-rendering:geometricPrecision; text-rendering:geometricPrecision; image-rendering:optimizeQuality; fill-rule:evenodd; clip-rule:evenodd" xmlns:xlink="http://www.w3.org/1999/xlink">
<g><path style="opacity:0.816" fill="#e99aa3" d="M 487.5,0.5 C 487.5,0.166667 487.5,-0.166667 487.5,-0.5C 488.5,-0.5 489.5,-0.5 490.5,-0.5C 497.167,6.83333 504.167,13.8333 511.5,20.5C 511.5,21.5 511.5,22.5 511.5,23.5C 511.167,23.5 510.833,23.5 510.5,23.5C 503.89,15.2213 496.556,7.55464 488.5,0.5C 488.167,0.5 487.833,0.5 487.5,0.5 Z"/></g>
<g><path style="opacity:1" fill="#d14c63" d="M 23.5,0.5 C 36.1667,12.5 48.5,24.8333 60.5,37.5C 70.1667,47.8333 80.1667,57.8333 90.5,67.5C 131.833,109.5 173.5,151.167 215.5,192.5C 228.479,206.146 241.812,219.479 255.5,232.5C 262.854,225.812 269.854,218.812 276.5,211.5C 290.414,199.089 303.914,186.089 317,172.5C 317.464,171.906 317.631,171.239 317.5,170.5C 318.167,169.5 318.833,168.5 319.5,167.5C 328.446,160.222 336.779,152.222 344.5,143.5C 393.118,96.5494 441.118,48.8827 488.5,0.5C 496.556,7.55464 503.89,15.2213 510.5,23.5C 470.833,63.5 431.167,103.5 391.5,143.5C 381.553,151.778 372.22,160.778 363.5,170.5C 344.449,188.551 326.115,207.217 308.5,226.5C 298.521,235.812 288.854,245.479 279.5,255.5C 288.854,265.521 298.521,275.188 308.5,284.5C 321.114,298.782 334.447,312.448 348.5,325.5C 353.5,331.167 358.833,336.5 364.5,341.5C 382.5,360.167 400.833,378.5 419.5,396.5C 427.167,404.833 435.167,412.833 443.5,420.5C 457.218,435.219 471.551,449.219 486.5,462.5C 494.5,471.167 502.833,479.5 511.5,487.5C 511.5,488.5 511.5,489.5 511.5,490.5C 504.167,497.167 497.167,504.167 490.5,511.5C 489.5,511.5 488.5,511.5 487.5,511.5C 463.833,487.5 440.167,463.5 416.5,439.5C 410.167,432.5 403.5,425.833 396.5,419.5C 364.167,386.5 331.5,353.833 298.5,321.5C 291.833,314.167 284.833,307.167 277.5,300.5C 270.703,293.202 263.703,286.035 256.5,279C 255.833,278.333 255.167,278.333 254.5,279C 227.965,305.368 201.632,331.868 175.5,358.5C 163.833,369.5 152.5,380.833 141.5,392.5C 134.833,398.5 128.5,404.833 122.5,411.5C 117.167,416.167 112.167,421.167 107.5,426.5C 102.833,430.5 98.5,434.833 94.5,439.5C 86.8333,446.5 79.5,453.833 72.5,461.5C 64.7765,468.222 57.7765,475.555 51.5,483.5C 42.1667,492.5 32.8333,501.5 23.5,510.5C 22.7611,510.631 22.0944,510.464 21.5,510C 13.9061,502.911 6.90609,495.411 0.5,487.5C 8.77869,480.89 16.4454,473.556 23.5,465.5C 31.5,457.167 39.5,448.833 47.5,440.5C 52.5,436.167 57.1667,431.5 61.5,426.5C 65.5,423.167 69.1667,419.5 72.5,415.5C 80.8333,407.833 88.8333,399.833 96.5,391.5C 141.799,346.701 186.965,301.701 232,256.5C 232.667,255.833 232.667,255.167 232,254.5C 223.632,245.964 215.132,237.631 206.5,229.5C 158.833,181.167 110.833,133.167 62.5,85.5C 41.5,65.1667 20.8333,44.5 0.5,23.5C 0.368989,22.7611 0.535656,22.0944 1,21.5C 8.0888,13.9061 15.5888,6.90609 23.5,0.5 Z"/></g>
<g><path style="opacity:0.933" fill="#d77c8c" d="M 20.5,-0.5 C 21.5,-0.5 22.5,-0.5 23.5,-0.5C 23.5,-0.166667 23.5,0.166667 23.5,0.5C 15.5888,6.90609 8.0888,13.9061 1,21.5C 0.535656,22.0944 0.368989,22.7611 0.5,23.5C 0.166667,23.5 -0.166667,23.5 -0.5,23.5C -0.5,22.5 -0.5,21.5 -0.5,20.5C 6.83333,13.8333 13.8333,6.83333 20.5,-0.5 Z"/></g>
<g><path style="opacity:1" fill="#67616a" d="M 60.5,37.5 C 121.834,37.3333 183.168,37.5 244.5,38C 252.578,39.744 256.578,44.744 256.5,53C 256.22,62.1142 251.553,67.2809 242.5,68.5C 230.011,67.5046 217.344,67.1713 204.5,67.5C 166.5,67.5 128.5,67.5 90.5,67.5C 80.1667,57.8333 70.1667,47.8333 60.5,37.5 Z"/></g>
<g><path style="opacity:1" fill="#d6eae8" d="M 204.5,67.5 C 217.344,67.1713 230.011,67.5046 242.5,68.5C 242.334,76.84 242.5,85.1733 243,93.5C 244.612,99.3912 247.279,104.725 251,109.5C 262.818,120.133 270.818,133.133 275,148.5C 276.401,169.134 276.901,189.801 276.5,210.5C 276.5,210.833 276.5,211.167 276.5,211.5C 269.854,218.812 262.854,225.812 255.5,232.5C 241.812,219.479 228.479,206.146 215.5,192.5C 219.998,168.573 220.498,144.573 217,120.5C 214.27,114.707 211.27,109.04 208,103.5C 206.714,100.595 205.714,97.5945 205,94.5C 204.5,85.5062 204.334,76.5062 204.5,67.5 Z"/></g>
<g><path style="opacity:1" fill="#e6f1f0" d="M 90.5,67.5 C 128.5,67.5 166.5,67.5 204.5,67.5C 204.334,76.5062 204.5,85.5062 205,94.5C 205.714,97.5945 206.714,100.595 208,103.5C 211.27,109.04 214.27,114.707 217,120.5C 220.498,144.573 219.998,168.573 215.5,192.5C 173.5,151.167 131.833,109.5 90.5,67.5 Z"/></g>
<g><path style="opacity:0.996" fill="#d6697b" d="M 487.5,0.5 C 487.833,0.5 488.167,0.5 488.5,0.5C 441.118,48.8827 393.118,96.5494 344.5,143.5C 391.833,95.5 439.5,47.8333 487.5,0.5 Z"/></g>
<g><path style="opacity:0.997" fill="#e6f1f0" d="M 62.5,85.5 C 110.833,133.167 158.833,181.167 206.5,229.5C 199.049,249.401 189.216,268.068 177,285.5C 139.259,333.112 89.7593,356.112 28.5,354.5C 28.3333,286.499 28.5,218.499 29,150.5C 30.5989,142.299 33.5989,134.633 38,127.5C 44.3333,119.833 50.6667,112.167 57,104.5C 60.1532,98.5414 61.9865,92.2081 62.5,85.5 Z"/></g>
<g><path style="opacity:1" fill="#c88c4c" d="M 344.5,143.5 C 336.779,152.222 328.446,160.222 319.5,167.5C 314.748,159.166 315.748,151.666 322.5,145C 329.746,143.609 337.079,143.109 344.5,143.5 Z"/></g>
<g><path style="opacity:1" fill="#c68745" d="M 391.5,143.5 C 424.502,143.333 457.502,143.5 490.5,144C 496.355,146.536 499.022,151.036 498.5,157.5C 498.94,164.369 495.94,168.703 489.5,170.5C 447.5,170.5 405.5,170.5 363.5,170.5C 372.22,160.778 381.553,151.778 391.5,143.5 Z"/></g>
<g><path style="opacity:1" fill="#8e5624" d="M 475.5,153.5 C 477.722,153.178 479.556,153.845 481,155.5C 482.106,159.122 482.439,162.789 482,166.5C 477.82,169.082 475.153,167.748 474,162.5C 473.068,159.177 473.568,156.177 475.5,153.5 Z"/></g>
<g><path style="opacity:1" fill="#f0c27d" d="M 363.5,170.5 C 405.5,170.5 447.5,170.5 489.5,170.5C 494.855,177.217 498.022,184.884 499,193.5C 502.892,246.676 507.059,299.676 511.5,352.5C 511.5,360.167 511.5,367.833 511.5,375.5C 507.24,388.409 498.24,394.742 484.5,394.5C 486.88,388.739 489.546,383.072 492.5,377.5C 497.422,362.345 492.422,352.012 477.5,346.5C 475.883,345.962 474.216,345.629 472.5,345.5C 471.192,331.551 466.026,319.218 457,308.5C 453.686,305.182 449.852,302.682 445.5,301C 440.692,300.713 436.026,300.546 431.5,300.5C 419.05,280.808 404.883,279.474 389,296.5C 387.906,298.078 387.072,299.745 386.5,301.5C 385.883,301.611 385.383,301.944 385,302.5C 378.76,299.703 372.594,299.87 366.5,303C 358.7,309.123 352.7,316.623 348.5,325.5C 334.447,312.448 321.114,298.782 308.5,284.5C 308.5,265.167 308.5,245.833 308.5,226.5C 326.115,207.217 344.449,188.551 363.5,170.5 Z"/></g>
<g><path style="opacity:1" fill="#ddaf72" d="M 469.5,179.5 C 472.779,179.305 474.779,180.805 475.5,184C 470.511,192.152 467.344,200.986 466,210.5C 464.682,240.52 463.015,270.52 461,300.5C 458.667,303.167 456.333,303.167 454,300.5C 454.638,269.818 455.972,239.151 458,208.5C 459.592,197.88 463.425,188.214 469.5,179.5 Z"/></g>
<g><path style="opacity:0.996" fill="#d6697b" d="M 317.5,170.5 C 317.631,171.239 317.464,171.906 317,172.5C 303.914,186.089 290.414,199.089 276.5,211.5C 276.5,211.167 276.5,210.833 276.5,210.5C 290.167,197.167 303.833,183.833 317.5,170.5 Z"/></g>
<g><path style="opacity:1" fill="#d6e9e7" d="M 206.5,229.5 C 215.132,237.631 223.632,245.964 232,254.5C 232.667,255.167 232.667,255.833 232,256.5C 186.965,301.701 141.799,346.701 96.5,391.5C 92.6178,388.391 88.2844,386.058 83.5,384.5C 74.6257,380.783 65.2923,379.616 55.5,381C 50.6103,382.389 47.6103,385.556 46.5,390.5C 45.8444,391.278 45.0111,391.944 44,392.5C 38.8841,391.575 33.7175,391.242 28.5,391.5C 28.5,379.167 28.5,366.833 28.5,354.5C 89.7593,356.112 139.259,333.112 177,285.5C 189.216,268.068 199.049,249.401 206.5,229.5 Z"/></g>
<g><path style="opacity:1" fill="#d6e9e7" d="M 277.5,300.5 C 267.069,301.598 260.736,307.264 258.5,317.5C 257.953,319.518 256.953,321.351 255.5,323C 225.541,327.804 198.874,339.638 175.5,358.5C 201.632,331.868 227.965,305.368 254.5,279C 255.167,278.333 255.833,278.333 256.5,279C 263.703,286.035 270.703,293.202 277.5,300.5 Z"/></g>
<g><path style="opacity:1" fill="#d39072" d="M 431.5,300.5 C 426.554,305.618 421.721,310.951 417,316.5C 413.094,323.05 410.26,330.05 408.5,337.5C 404.726,323.277 397.392,311.277 386.5,301.5C 387.072,299.745 387.906,298.078 389,296.5C 404.883,279.474 419.05,280.808 431.5,300.5 Z"/></g>
<g><path style="opacity:1" fill="#7f7f7f" d="M 277.5,300.5 C 284.833,307.167 291.833,314.167 298.5,321.5C 285.167,320.167 271.833,320.167 258.5,321.5C 258.5,320.167 258.5,318.833 258.5,317.5C 260.736,307.264 267.069,301.598 277.5,300.5 Z"/></g>
<g><path style="opacity:1" fill="#f1ac85" d="M 386.5,301.5 C 397.392,311.277 404.726,323.277 408.5,337.5C 410.236,348.079 410.902,358.746 410.5,369.5C 396.138,358.649 380.805,349.315 364.5,341.5C 358.833,336.5 353.5,331.167 348.5,325.5C 352.7,316.623 358.7,309.123 366.5,303C 372.594,299.87 378.76,299.703 385,302.5C 385.383,301.944 385.883,301.611 386.5,301.5 Z"/></g>
<g><path style="opacity:1" fill="#e9a37d" d="M 431.5,300.5 C 436.026,300.546 440.692,300.713 445.5,301C 449.852,302.682 453.686,305.182 457,308.5C 466.026,319.218 471.192,331.551 472.5,345.5C 461.306,346.287 450.972,349.787 441.5,356C 433.061,361.278 425.061,367.111 417.5,373.5C 415.031,372.431 412.698,371.098 410.5,369.5C 410.902,358.746 410.236,348.079 408.5,337.5C 410.26,330.05 413.094,323.05 417,316.5C 421.721,310.951 426.554,305.618 431.5,300.5 Z"/></g>
<g><path style="opacity:1" fill="#c1c1c1" d="M 258.5,317.5 C 258.5,318.833 258.5,320.167 258.5,321.5C 271.833,320.167 285.167,320.167 298.5,321.5C 331.5,353.833 364.167,386.5 396.5,419.5C 342.813,463.136 282.813,474.636 216.5,454C 201.598,448.888 188.265,441.221 176.5,431C 173.833,429.667 171.167,428.333 168.5,427C 162.5,426.667 156.5,426.333 150.5,426C 147.064,424.726 144.397,422.559 142.5,419.5C 146.806,410.201 146.473,401.201 141.5,392.5C 152.5,380.833 163.833,369.5 175.5,358.5C 198.874,339.638 225.541,327.804 255.5,323C 256.953,321.351 257.953,319.518 258.5,317.5 Z"/></g>
<g><path style="opacity:1" fill="#c3c2c1" d="M 364.5,341.5 C 380.805,349.315 396.138,358.649 410.5,369.5C 412.698,371.098 415.031,372.431 417.5,373.5C 422.592,375.881 427.592,378.548 432.5,381.5C 428.511,386.821 424.178,391.821 419.5,396.5C 400.833,378.5 382.5,360.167 364.5,341.5 Z"/></g>
<g><path style="opacity:1" fill="#807f7f" d="M 472.5,345.5 C 474.216,345.629 475.883,345.962 477.5,346.5C 464.496,359.504 451.162,372.171 437.5,384.5C 435.589,383.925 433.922,382.925 432.5,381.5C 427.592,378.548 422.592,375.881 417.5,373.5C 425.061,367.111 433.061,361.278 441.5,356C 450.972,349.787 461.306,346.287 472.5,345.5 Z"/></g>
<g><path style="opacity:1" fill="#e2e2e2" d="M 477.5,346.5 C 492.422,352.012 497.422,362.345 492.5,377.5C 476.733,383.216 461.067,389.216 445.5,395.5C 442.84,391.839 440.174,388.172 437.5,384.5C 451.162,372.171 464.496,359.504 477.5,346.5 Z"/></g>
<g><path style="opacity:1" fill="#aaaaaa" d="M 238.5,387.5 C 239.464,392.492 240.797,397.158 242.5,401.5C 240.64,406.193 239.974,411.193 240.5,416.5C 239.209,421.394 237.876,426.394 236.5,431.5C 233.546,435.871 230.213,440.037 226.5,444C 221.138,446.891 218.638,445.391 219,439.5C 228.716,431.065 233.216,420.398 232.5,407.5C 233.143,397.481 230.976,388.148 226,379.5C 222.903,376.911 220.403,373.911 218.5,370.5C 219.486,366.853 221.819,365.686 225.5,367C 231.728,372.622 236.062,379.455 238.5,387.5 Z"/></g>
<g><path style="opacity:1" fill="#7f7f7f" d="M 273.5,396.5 C 262.695,395.484 252.362,397.151 242.5,401.5C 240.797,397.158 239.464,392.492 238.5,387.5C 244.809,381.008 252.476,378.175 261.5,379C 269.053,382.238 273.053,388.071 273.5,396.5 Z"/></g>
<g><path style="opacity:1" fill="#80807f" d="M 492.5,377.5 C 489.546,383.072 486.88,388.739 484.5,394.5C 483.341,396.855 482.341,399.188 481.5,401.5C 480.566,402.568 480.232,403.901 480.5,405.5C 469.5,405.5 458.5,405.5 447.5,405.5C 447.149,402.097 446.482,398.763 445.5,395.5C 461.067,389.216 476.733,383.216 492.5,377.5 Z"/></g>
<g><path style="opacity:1" fill="#8d5625" d="M 83.5,384.5 C 80.7378,385.38 78.0711,386.546 75.5,388C 70.9275,391.75 66.5942,395.583 62.5,399.5C 60.4208,397.127 57.7541,395.794 54.5,395.5C 51.5207,394.192 48.854,392.525 46.5,390.5C 47.6103,385.556 50.6103,382.389 55.5,381C 65.2923,379.616 74.6257,380.783 83.5,384.5 Z"/></g>
<g><path style="opacity:1" fill="#a9a9a9" d="M 432.5,381.5 C 433.922,382.925 435.589,383.925 437.5,384.5C 440.174,388.172 442.84,391.839 445.5,395.5C 446.482,398.763 447.149,402.097 447.5,405.5C 458.5,405.5 469.5,405.5 480.5,405.5C 480.232,403.901 480.566,402.568 481.5,401.5C 481.5,403.167 481.5,404.833 481.5,406.5C 470.167,406.5 458.833,406.5 447.5,406.5C 446.674,410.136 446.008,413.803 445.5,417.5C 444.599,418.29 443.932,419.29 443.5,420.5C 435.167,412.833 427.167,404.833 419.5,396.5C 424.178,391.821 428.511,386.821 432.5,381.5 Z"/></g>
<g><path style="opacity:1" fill="#fcd9ab" d="M 83.5,384.5 C 88.2844,386.058 92.6178,388.391 96.5,391.5C 88.8333,399.833 80.8333,407.833 72.5,415.5C 70.4174,411 68.0841,406.666 65.5,402.5C 64.1667,401.833 63.1667,400.833 62.5,399.5C 66.5942,395.583 70.9275,391.75 75.5,388C 78.0711,386.546 80.7378,385.38 83.5,384.5 Z"/></g>
<g><path style="opacity:1" fill="#553a29" d="M 186.5,389.5 C 200.011,388.501 205.511,394.501 203,407.5C 199.345,414.07 193.845,416.237 186.5,414C 179.765,410.475 177.265,404.975 179,397.5C 181.028,394.308 183.528,391.641 186.5,389.5 Z"/></g>
<g><path style="opacity:1" fill="#d5e8e6" d="M 141.5,392.5 C 146.473,401.201 146.806,410.201 142.5,419.5C 142.167,419.5 141.833,419.5 141.5,419.5C 136.087,414.91 129.754,412.243 122.5,411.5C 128.5,404.833 134.833,398.5 141.5,392.5 Z"/></g>
<g><path style="opacity:1" fill="#c58643" d="M 54.5,395.5 C 57.7541,395.794 60.4208,397.127 62.5,399.5C 63.1667,400.833 64.1667,401.833 65.5,402.5C 65.6309,403.376 65.2975,404.043 64.5,404.5C 59.3545,407.073 54.3545,409.573 49.5,412C 46.1134,408.947 42.4467,406.28 38.5,404C 43.0477,399.603 48.381,396.77 54.5,395.5 Z"/></g>
<g><path style="opacity:1" fill="#e2e2e2" d="M 273.5,396.5 C 274.268,397.263 274.768,398.263 275,399.5C 275.5,406.158 275.666,412.825 275.5,419.5C 268.5,419.5 261.5,419.5 254.5,419.5C 249.691,419.131 245.024,418.131 240.5,416.5C 239.974,411.193 240.64,406.193 242.5,401.5C 252.362,397.151 262.695,395.484 273.5,396.5 Z"/></g>
<g><path style="opacity:1" fill="#c68642" d="M 24.5,428.5 C 23.8333,427.833 23.1667,427.167 22.5,426.5C 21.0127,422.855 19.5127,419.188 18,415.5C 17.5012,411.514 17.3345,407.514 17.5,403.5C 17.5,403.167 17.5,402.833 17.5,402.5C 24.1224,401.192 30.4558,402.025 36.5,405C 31.4223,411.324 28.089,418.49 26.5,426.5C 26.2528,427.713 25.5862,428.38 24.5,428.5 Z"/></g>
<g><path style="opacity:1" fill="#dfac6b" d="M 46.5,390.5 C 48.854,392.525 51.5207,394.192 54.5,395.5C 48.381,396.77 43.0477,399.603 38.5,404C 42.4467,406.28 46.1134,408.947 49.5,412C 54.3545,409.573 59.3545,407.073 64.5,404.5C 65.2975,404.043 65.6309,403.376 65.5,402.5C 68.0841,406.666 70.4174,411 72.5,415.5C 69.1667,419.5 65.5,423.167 61.5,426.5C 57.3839,422.953 53.7172,418.953 50.5,414.5C 44.4335,420.628 40.4335,427.961 38.5,436.5C 38.6082,437.442 38.9415,438.275 39.5,439C 42.1168,439.822 44.7835,440.322 47.5,440.5C 39.5,448.833 31.5,457.167 23.5,465.5C 23.1667,465.5 22.8333,465.5 22.5,465.5C 18.7334,463.103 15.0668,460.436 11.5,457.5C 12.3764,457.631 13.0431,457.298 13.5,456.5C 17.4525,448.04 23.1192,440.873 30.5,435C 28.2941,432.963 26.2941,430.797 24.5,428.5C 25.5862,428.38 26.2528,427.713 26.5,426.5C 28.089,418.49 31.4223,411.324 36.5,405C 30.4558,402.025 24.1224,401.192 17.5,402.5C 18.8428,396.491 22.5095,392.824 28.5,391.5C 33.7175,391.242 38.8841,391.575 44,392.5C 45.0111,391.944 45.8444,391.278 46.5,390.5 Z"/></g>
<g><path style="opacity:0.998" fill="#e3e3e3" d="M 481.5,406.5 C 481.605,410.319 482.438,413.986 484,417.5C 487.118,423.401 489.951,429.401 492.5,435.5C 476.723,429.778 461.056,423.778 445.5,417.5C 446.008,413.803 446.674,410.136 447.5,406.5C 458.833,406.5 470.167,406.5 481.5,406.5 Z"/></g>
<g><path style="opacity:1" fill="#8e5626" d="M 122.5,411.5 C 129.754,412.243 136.087,414.91 141.5,419.5C 140.938,422.546 140.271,425.546 139.5,428.5C 131.693,431.306 125.693,436.306 121.5,443.5C 120.833,443.167 120.167,442.833 119.5,442.5C 117.385,435.723 113.385,430.389 107.5,426.5C 112.167,421.167 117.167,416.167 122.5,411.5 Z"/></g>
<g><path style="opacity:1" fill="#c68643" d="M 61.5,426.5 C 57.1667,431.5 52.5,436.167 47.5,440.5C 44.7835,440.322 42.1168,439.822 39.5,439C 38.9415,438.275 38.6082,437.442 38.5,436.5C 40.4335,427.961 44.4335,420.628 50.5,414.5C 53.7172,418.953 57.3839,422.953 61.5,426.5 Z"/></g>
<g><path style="opacity:1" fill="#dfae6e" d="M 17.5,403.5 C 17.3345,407.514 17.5012,411.514 18,415.5C 19.5127,419.188 21.0127,422.855 22.5,426.5C 13.2064,430.128 6.53977,436.462 2.5,445.5C 1.31271,443.928 0.312714,442.261 -0.5,440.5C -0.5,435.5 -0.5,430.5 -0.5,425.5C 2.59311,418.106 8.25978,414.439 16.5,414.5C 16.185,410.629 16.5184,406.962 17.5,403.5 Z"/></g>
<g><path style="opacity:1" fill="#7e7e7e" d="M 240.5,416.5 C 245.024,418.131 249.691,419.131 254.5,419.5C 261.012,420.167 267.679,420.833 274.5,421.5C 273.473,428.425 270.807,434.592 266.5,440C 261.334,442.88 256.001,443.214 250.5,441C 245.405,438.394 240.738,435.228 236.5,431.5C 237.876,426.394 239.209,421.394 240.5,416.5 Z"/></g>
<g><path style="opacity:1" fill="#7f8080" d="M 445.5,417.5 C 461.056,423.778 476.723,429.778 492.5,435.5C 497.164,445.838 495.164,454.838 486.5,462.5C 471.551,449.219 457.218,435.219 443.5,420.5C 443.932,419.29 444.599,418.29 445.5,417.5 Z"/></g>
<g><path style="opacity:1" fill="#aaaaaa" d="M 141.5,419.5 C 141.833,419.5 142.167,419.5 142.5,419.5C 144.397,422.559 147.064,424.726 150.5,426C 156.5,426.333 162.5,426.667 168.5,427C 171.167,428.333 173.833,429.667 176.5,431C 188.265,441.221 201.598,448.888 216.5,454C 282.813,474.636 342.813,463.136 396.5,419.5C 403.5,425.833 410.167,432.5 416.5,439.5C 386.422,463.704 352.422,480.204 314.5,489C 255.872,499.454 205.205,484.12 162.5,443C 159.526,442.007 156.526,441.174 153.5,440.5C 145.972,439.627 141.305,435.627 139.5,428.5C 140.271,425.546 140.938,422.546 141.5,419.5 Z"/></g>
<g><path style="opacity:1" fill="#8f5828" d="M 22.5,426.5 C 23.1667,427.167 23.8333,427.833 24.5,428.5C 26.2941,430.797 28.2941,432.963 30.5,435C 23.1192,440.873 17.4525,448.04 13.5,456.5C 13.0431,457.298 12.3764,457.631 11.5,457.5C 7.04257,454.582 4.04257,450.582 2.5,445.5C 6.53977,436.462 13.2064,430.128 22.5,426.5 Z"/></g>
<g><path style="opacity:1" fill="#fddaac" d="M 139.5,428.5 C 141.305,435.627 145.972,439.627 153.5,440.5C 155.301,455.692 148.634,463.359 133.5,463.5C 129.511,463.518 125.678,462.851 122,461.5C 121.768,462.737 121.268,463.737 120.5,464.5C 121.479,457.413 121.812,450.413 121.5,443.5C 125.693,436.306 131.693,431.306 139.5,428.5 Z"/></g>
<g><path style="opacity:1" fill="#c68643" d="M 94.5,439.5 C 98.0106,443.177 101.344,447.011 104.5,451C 98.964,457.238 94.2974,464.072 90.5,471.5C 88.5,471.167 86.5,470.833 84.5,470.5C 80.5681,467.521 76.5681,464.521 72.5,461.5C 79.5,453.833 86.8333,446.5 94.5,439.5 Z"/></g>
<g><path style="opacity:1" fill="#c68744" d="M 119.5,442.5 C 120.167,442.833 120.833,443.167 121.5,443.5C 121.812,450.413 121.479,457.413 120.5,464.5C 120.573,466.027 119.906,467.027 118.5,467.5C 114.055,462.661 110.055,457.328 106.5,451.5C 110.023,447.307 114.356,444.307 119.5,442.5 Z"/></g>
<g><path style="opacity:1" fill="#dfac6c" d="M 107.5,426.5 C 113.385,430.389 117.385,435.723 119.5,442.5C 114.356,444.307 110.023,447.307 106.5,451.5C 110.055,457.328 114.055,462.661 118.5,467.5C 118.586,468.496 118.252,469.329 117.5,470C 113.62,472.863 109.287,474.03 104.5,473.5C 99.5474,473.877 94.8807,473.211 90.5,471.5C 94.2974,464.072 98.964,457.238 104.5,451C 101.344,447.011 98.0106,443.177 94.5,439.5C 98.5,434.833 102.833,430.5 107.5,426.5 Z"/></g>
<g><path style="opacity:1" fill="#dfad6c" d="M 72.5,461.5 C 76.5681,464.521 80.5681,467.521 84.5,470.5C 76.6927,476.881 72.6927,485.215 72.5,495.5C 64.0644,493.789 57.0644,489.789 51.5,483.5C 57.7765,475.555 64.7765,468.222 72.5,461.5 Z"/></g>
<g><path style="opacity:1" fill="#8f5829" d="M 84.5,470.5 C 86.5,470.833 88.5,471.167 90.5,471.5C 94.8807,473.211 99.5474,473.877 104.5,473.5C 107.634,489.521 101.134,497.521 85,497.5C 80.5578,497.674 76.3911,497.007 72.5,495.5C 72.6927,485.215 76.6927,476.881 84.5,470.5 Z"/></g>
<g><path style="opacity:0.996" fill="#d66c7d" d="M 22.5,465.5 C 22.8333,465.5 23.1667,465.5 23.5,465.5C 16.4454,473.556 8.77869,480.89 0.5,487.5C 7.5,479.833 14.8333,472.5 22.5,465.5 Z"/></g>
<g><path style="opacity:0.906" fill="#d88492" d="M -0.5,487.5 C -0.166667,487.5 0.166667,487.5 0.5,487.5C 6.90609,495.411 13.9061,502.911 21.5,510C 22.0944,510.464 22.7611,510.631 23.5,510.5C 23.5,510.833 23.5,511.167 23.5,511.5C 22.5,511.5 21.5,511.5 20.5,511.5C 13.8333,504.167 6.83333,497.167 -0.5,490.5C -0.5,489.5 -0.5,488.5 -0.5,487.5 Z"/></g>
</svg>
