<?xml version="1.0" encoding="utf-8"?>
<!DOCTYPE svg PUBLIC "-//W3C//DTD SVG 20010904//EN" "http://www.w3.org/TR/2001/REC-SVG-20010904/DTD/svg10.dtd">
<svg version="1.0" xmlns="http://www.w3.org/2000/svg" width="1002pt" height="1002pt" viewBox="0 0 1002 1002" style="" preserveAspectRatio="xMidYMid meet">
<g fill="#489374FF" stroke="#489374FF">
<path d="M 218.000 2.038 C 202.470 3.502 189.382 5.111 186.000 5.972 C 184.075 6.462 179.125 7.396 175.000 8.048 C 170.875 8.699 167.050 9.572 166.500 9.986 C 165.950 10.400 163.700 11.062 161.500 11.456 C 157.270 12.213 141.895 17.195 136.000 19.718 C 117.200 27.763 99.644 38.110 83.992 50.367 C 73.721 58.411 56.401 76.188 48.546 86.748 C 44.966 91.562 41.677 95.950 41.237 96.500 C 40.407 97.537 36.369 103.966 34.337 107.486 C 30.714 113.762 21.748 132.488 19.488 138.500 C 18.040 142.350 16.460 146.400 15.977 147.500 C 15.081 149.538 13.086 156.735 10.433 167.500 C 8.707 174.502 6.173 188.584 5.500 194.914 C 5.242 197.342 4.807 200.042 4.535 200.914 C 4.262 201.787 3.473 212.400 2.781 224.500 C 1.828 241.155 1.533 308.574 1.564 502.000 C 1.604 746.782 2.007 786.887 4.569 801.000 C 4.918 802.925 5.368 805.400 5.569 806.500 C 5.770 807.600 6.602 812.325 7.419 817.000 C 11.302 839.241 18.645 862.543 26.109 876.308 C 26.648 877.302 28.492 880.902 30.206 884.308 C 33.004 889.865 37.774 897.412 48.028 912.500 C 52.997 919.813 79.172 945.736 88.779 952.860 C 93.333 956.237 97.281 959.000 97.554 959.000 C 97.826 959.000 100.230 960.463 102.896 962.250 C 126.146 977.837 157.539 989.267 189.000 993.602 C 194.775 994.397 201.975 995.480 205.000 996.008 C 208.025 996.537 222.425 997.416 237.000 997.963 C 251.575 998.511 272.500 999.454 283.500 1000.060 C 305.433 1001.267 698.632 1001.015 723.000 999.777 C 730.425 999.400 749.550 998.600 765.500 998.000 C 781.450 997.400 796.075 996.495 798.000 995.990 C 799.925 995.485 806.658 994.581 812.963 993.982 C 819.267 993.382 824.892 992.517 825.463 992.058 C 826.033 991.599 828.957 990.893 831.960 990.489 C 834.963 990.085 838.113 989.378 838.960 988.918 C 839.807 988.457 842.525 987.654 845.000 987.132 C 849.663 986.149 864.250 981.075 869.500 978.609 C 877.344 974.926 891.704 967.782 893.432 966.705 C 899.606 962.854 912.828 953.950 914.730 952.362 C 915.957 951.338 919.557 948.475 922.730 946.000 C 930.558 939.895 952.002 917.112 958.026 908.500 C 972.182 888.265 980.361 871.612 989.460 844.500 C 992.736 834.740 996.519 815.621 998.067 801.000 C 998.621 795.775 999.533 788.575 1000.095 785.000 C 1000.779 780.646 1000.989 686.073 1000.729 498.500 C 1000.356 228.156 1000.090 203.501 997.432 193.000 C 997.085 191.625 996.200 186.900 995.466 182.500 C 992.391 164.053 985.570 141.323 978.941 127.434 C 977.873 125.198 977.000 123.098 977.000 122.767 C 977.000 122.231 969.448 108.829 966.989 105.000 C 966.459 104.175 965.279 102.150 964.367 100.500 C 957.809 88.634 934.236 62.574 919.410 50.801 C 900.508 35.790 879.471 24.165 856.513 16.045 C 836.078 8.817 812.216 4.380 781.000 2.004 C 767.433 0.971 228.975 1.004 218.000 2.038 M 553.500 78.439 C 586.470 82.569 610.521 87.913 640.000 97.660 C 652.681 101.853 669.641 108.264 673.000 110.133 C 673.825 110.593 677.650 112.372 681.500 114.087 C 696.443 120.744 714.765 130.302 725.000 136.779 C 736.380 143.981 744.581 149.338 747.000 151.149 C 748.375 152.179 751.300 154.253 753.500 155.759 C 778.044 172.559 813.563 206.381 835.138 233.497 C 838.637 237.895 842.061 242.170 842.747 242.997 C 845.095 245.827 858.881 266.055 865.578 276.496 C 871.515 285.750 882.077 306.202 893.468 330.500 C 894.241 332.150 897.105 339.350 899.831 346.500 C 913.371 382.016 921.374 416.660 925.818 459.000 C 926.723 467.625 926.695 526.734 925.782 535.000 C 922.535 564.394 918.569 586.261 912.544 608.000 C 904.039 638.688 890.329 672.660 876.134 698.219 C 874.998 700.265 872.393 704.987 870.346 708.713 C 868.299 712.439 866.265 715.940 865.826 716.494 C 863.938 718.876 854.000 734.362 854.000 734.921 C 854.000 735.260 852.171 737.751 849.934 740.457 C 847.698 743.162 845.383 746.304 844.788 747.438 C 843.705 749.505 836.570 758.623 834.567 760.500 C 833.980 761.050 832.174 763.300 830.554 765.500 C 828.933 767.700 826.162 771.075 824.396 773.000 C 819.428 778.414 788.782 809.038 784.068 813.298 C 776.787 819.879 750.915 839.975 745.158 843.521 C 744.246 844.083 739.000 847.488 733.500 851.088 C 728.000 854.689 722.825 857.946 722.000 858.326 C 721.175 858.706 718.925 859.974 717.000 861.143 C 708.520 866.292 693.918 873.854 682.500 879.009 C 678.650 880.747 673.700 883.007 671.500 884.031 C 662.398 888.270 634.712 897.941 621.500 901.498 C 599.863 907.322 588.069 909.762 561.500 913.908 C 534.011 918.197 476.859 918.235 450.500 913.982 C 447.200 913.450 440.000 912.315 434.500 911.461 C 404.919 906.868 362.081 894.362 338.000 883.291 C 328.916 879.114 302.786 866.126 298.500 863.656 C 296.300 862.389 292.925 860.474 291.000 859.401 C 283.916 855.454 265.790 843.463 254.500 835.256 C 236.995 822.532 226.530 813.347 206.353 793.000 C 187.126 773.610 186.323 772.748 178.500 763.100 C 165.244 746.749 146.496 719.487 139.922 707.000 C 138.040 703.425 136.240 700.275 135.922 700.000 C 135.604 699.725 134.662 698.150 133.830 696.500 C 132.997 694.850 131.383 691.700 130.242 689.500 C 128.452 686.047 120.642 669.490 117.979 663.500 C 116.250 659.611 113.791 653.468 112.976 651.000 C 112.521 649.625 111.197 646.025 110.032 643.000 C 98.106 612.032 89.962 577.220 85.818 539.500 C 84.095 523.814 84.090 468.390 85.810 453.500 C 90.577 412.233 98.343 380.501 113.399 340.777 C 117.604 329.683 128.603 306.539 136.343 292.500 C 138.162 289.200 140.943 284.138 142.522 281.250 C 144.101 278.363 145.755 276.000 146.196 276.000 C 146.638 276.000 147.001 275.438 147.002 274.750 C 147.003 274.063 148.791 271.025 150.976 268.000 C 153.161 264.975 155.827 260.895 156.901 258.933 C 157.975 256.971 159.591 254.754 160.493 254.006 C 161.394 253.258 162.776 251.400 163.563 249.877 C 167.186 242.873 190.717 215.320 207.004 199.014 C 221.629 184.372 243.955 165.069 254.367 158.065 C 255.540 157.276 258.792 154.913 261.592 152.815 C 264.393 150.717 267.136 149.000 267.687 149.000 C 268.239 149.000 269.547 148.052 270.595 146.894 C 271.643 145.735 274.249 143.823 276.386 142.644 C 281.940 139.579 283.607 138.567 285.143 137.326 C 288.735 134.423 316.942 119.641 330.500 113.557 C 333.800 112.076 337.625 110.279 339.000 109.563 C 340.375 108.848 344.324 107.300 347.775 106.124 C 351.227 104.947 354.827 103.559 355.775 103.037 C 361.216 100.047 392.533 90.522 410.500 86.392 C 426.989 82.602 459.194 77.784 475.500 76.668 C 489.709 75.695 540.869 76.857 553.500 78.439 "/></g>
<g fill="#489374FF" stroke="#489374FF">
<path d="M 645.500 197.906 C 633.743 200.882 628.430 208.206 623.403 228.371 L 620.692 239.242 615.596 238.586 C 592.031 235.552 579.748 235.291 563.214 237.472 C 538.003 240.797 516.744 247.922 495.918 260.027 C 472.413 273.689 455.891 289.550 432.539 320.870 C 431.461 322.317 398.575 366.250 359.460 418.500 C 320.345 470.750 286.476 516.455 284.197 520.066 C 278.596 528.941 270.858 545.490 267.038 556.766 C 255.092 592.026 255.071 635.054 266.983 669.242 C 270.763 680.091 272.375 683.910 277.225 693.500 C 281.216 701.393 291.518 717.609 295.013 721.500 C 296.001 722.600 297.378 725.426 298.072 727.780 C 299.307 731.967 299.265 732.131 296.127 735.369 C 292.096 739.528 278.983 749.312 270.761 754.295 C 263.339 758.793 253.732 761.894 244.321 762.830 L 237.500 763.508 242.212 766.776 C 249.122 771.568 266.520 779.720 274.000 781.670 C 278.600 782.869 284.739 783.379 295.000 783.415 C 308.749 783.464 309.969 783.303 318.561 780.316 C 323.545 778.583 331.597 774.878 336.455 772.082 C 341.312 769.287 346.097 767.000 347.086 767.000 C 348.076 767.000 350.417 767.904 352.289 769.008 C 354.161 770.113 359.853 772.821 364.936 775.026 C 407.379 793.434 458.672 793.761 502.101 775.902 C 512.871 771.473 540.075 755.637 543.000 752.094 C 543.275 751.761 545.174 750.241 547.220 748.716 C 553.661 743.916 568.855 727.878 576.321 718.000 C 580.269 712.775 583.755 708.275 584.066 708.000 C 584.377 707.725 586.157 705.260 588.021 702.523 C 589.884 699.785 591.970 696.860 592.655 696.023 C 593.341 695.185 604.111 680.801 616.590 664.059 C 629.069 647.316 639.663 633.141 640.132 632.559 C 640.602 631.976 646.033 624.750 652.202 616.500 C 658.371 608.250 663.775 601.050 664.211 600.500 C 667.454 596.406 674.000 586.846 674.000 586.204 C 674.000 585.769 676.286 582.733 679.080 579.457 C 685.834 571.536 723.014 521.895 730.784 510.423 C 750.058 481.966 761.000 446.246 761.000 411.786 C 761.000 404.055 760.510 394.754 759.910 391.115 C 757.774 378.143 754.792 364.419 752.989 359.260 C 751.982 356.378 751.489 353.816 751.894 353.566 C 752.298 353.316 756.875 351.742 762.065 350.068 C 772.711 346.635 777.583 343.932 781.399 339.341 C 793.627 324.629 784.256 302.005 765.225 300.290 C 761.527 299.957 757.086 300.381 752.683 301.487 C 748.934 302.429 745.638 302.972 745.359 302.692 C 744.698 302.032 754.581 296.282 763.500 292.138 C 778.157 285.327 784.229 274.462 780.971 260.879 C 779.962 256.675 778.625 254.495 774.565 250.435 C 766.592 242.461 758.174 241.236 745.500 246.204 C 737.962 249.159 730.179 253.132 723.500 257.435 C 715.419 262.642 713.936 262.446 718.769 256.810 C 732.783 240.467 736.975 232.738 736.990 223.217 C 737.015 207.234 723.615 196.655 707.565 199.986 C 702.496 201.039 700.977 201.949 696.111 206.850 C 693.025 209.957 687.352 216.438 683.505 221.250 C 679.658 226.063 675.978 230.000 675.328 230.000 C 674.492 230.000 674.310 228.392 674.709 224.526 C 675.036 221.359 674.745 217.162 674.019 214.568 C 672.508 209.171 667.131 202.613 662.143 200.084 C 657.836 197.901 649.717 196.838 645.500 197.906 M 496.864 363.732 C 504.057 369.059 505.923 377.150 501.652 384.500 C 500.373 386.700 493.866 395.700 487.190 404.500 L 475.052 420.500 478.276 421.157 C 480.049 421.519 485.325 422.556 490.000 423.461 C 504.025 426.177 518.285 431.129 532.241 438.130 C 562.675 453.397 588.916 479.675 604.106 510.096 C 615.713 533.343 620.529 553.119 621.616 582.000 L 622.238 598.500 617.116 606.286 C 611.509 614.808 583.616 653.240 564.705 678.500 C 550.861 696.990 527.270 721.220 514.753 729.803 C 479.824 753.755 434.936 759.477 397.000 744.813 C 386.207 740.642 367.395 730.763 359.607 725.178 C 349.760 718.116 336.900 705.706 329.908 696.518 C 323.704 688.364 312.149 666.353 309.164 657.000 C 301.768 633.829 301.016 605.805 307.060 578.500 C 308.288 572.948 310.703 564.575 311.962 561.500 C 322.113 536.702 330.503 521.843 346.969 499.500 C 350.617 494.550 355.742 487.183 358.359 483.129 C 365.342 472.309 372.084 463.664 380.254 455.055 C 384.239 450.855 389.652 444.606 392.282 441.167 C 396.794 435.267 404.760 429.000 407.745 429.000 C 408.490 429.000 410.409 428.322 412.011 427.494 C 413.612 426.666 418.202 425.318 422.211 424.497 C 426.220 423.677 430.509 422.772 431.743 422.486 C 433.668 422.039 438.872 416.137 447.683 404.407 C 475.389 367.524 476.895 365.702 482.000 362.898 C 486.306 360.533 493.056 360.912 496.864 363.732 M 531.383 315.387 C 541.334 319.544 542.715 333.875 533.843 340.906 C 529.099 344.665 522.552 344.840 517.247 341.348 C 501.818 331.194 514.310 308.253 531.383 315.387 "/></g>
<g fill="#DBEFE6FF" stroke="#DBEFE6FF">
<path d="M 330.500 113.981 C 328.300 115.055 322.900 117.670 318.500 119.793 C 314.100 121.916 307.800 125.164 304.500 127.012 C 301.200 128.860 297.150 131.034 295.500 131.844 C 293.850 132.654 290.025 134.891 287.000 136.815 C 273.093 145.662 267.314 149.429 265.000 151.154 C 263.625 152.180 260.700 154.216 258.500 155.679 C 254.060 158.633 236.466 172.623 228.112 179.843 C 221.119 185.886 193.848 213.161 187.849 220.112 C 178.434 231.020 167.608 244.637 164.449 249.543 C 162.664 252.317 160.482 255.185 159.601 255.916 C 158.721 256.647 158.000 257.632 158.000 258.105 C 158.000 258.822 148.790 273.208 146.223 276.500 C 143.144 280.450 121.000 322.550 121.000 324.455 C 121.000 324.722 119.810 327.542 118.356 330.720 C 105.754 358.262 93.691 401.333 88.589 437.000 C 83.154 474.999 83.146 519.511 88.568 556.500 C 93.691 591.444 104.874 631.762 117.277 660.000 C 118.364 662.475 120.838 668.100 122.773 672.500 C 125.792 679.362 129.939 687.552 136.950 700.500 C 139.491 705.192 146.319 716.913 148.220 719.846 C 149.165 721.306 150.686 723.828 151.599 725.451 C 152.512 727.074 153.879 729.022 154.636 729.779 C 155.394 730.536 156.527 732.117 157.156 733.291 C 158.499 735.802 170.483 752.116 176.774 760.000 C 185.503 770.939 191.781 777.758 207.605 793.489 C 225.837 811.613 229.641 815.172 236.000 820.049 C 238.475 821.947 240.725 823.748 241.000 824.052 C 242.131 825.300 255.788 835.790 259.500 838.261 C 261.700 839.726 265.525 842.367 268.000 844.130 C 278.906 851.899 315.260 873.008 317.713 872.996 C 318.738 872.991 314.322 870.337 305.000 865.356 C 298.603 861.938 294.182 859.420 284.183 853.500 C 283.254 852.950 277.816 849.350 272.099 845.500 C 266.382 841.650 260.083 837.414 258.102 836.086 C 252.699 832.466 235.641 818.599 225.800 809.828 C 204.397 790.753 177.642 761.236 165.561 743.372 C 159.699 734.705 158.027 732.360 155.571 729.363 C 154.157 727.637 153.000 725.946 153.000 725.604 C 153.000 725.262 150.436 721.048 147.302 716.241 C 142.206 708.425 124.044 673.415 119.885 663.392 C 118.997 661.251 117.579 657.925 116.735 656.000 C 113.355 648.294 104.070 620.747 100.724 608.500 C 94.893 587.159 91.723 571.200 88.375 546.340 C 86.307 530.981 85.365 478.831 86.869 463.000 C 90.397 425.885 96.477 395.756 106.545 365.500 C 110.166 354.618 115.888 338.815 117.406 335.500 C 118.162 333.850 120.009 329.800 121.510 326.500 C 127.310 313.752 133.044 302.161 137.588 294.000 C 140.191 289.325 142.819 284.600 143.428 283.500 C 145.581 279.609 160.179 257.407 165.961 249.229 C 170.158 243.293 186.974 222.194 187.812 221.813 C 188.191 221.641 189.784 219.925 191.353 218.000 C 197.908 209.959 218.906 189.204 231.021 178.791 C 238.989 171.941 257.880 157.000 258.572 157.000 C 258.897 157.000 261.085 155.425 263.435 153.500 C 265.784 151.575 268.110 149.999 268.603 149.999 C 269.096 149.998 270.723 148.986 272.218 147.749 C 273.712 146.512 276.821 144.375 279.125 143.000 C 281.429 141.625 284.819 139.501 286.657 138.280 C 293.077 134.017 318.449 120.685 330.889 115.039 C 333.853 113.693 335.878 112.466 335.389 112.311 C 334.900 112.156 332.700 112.908 330.500 113.981 "/></g>
<g fill="#DBEFE6FF" stroke="#DBEFE6FF">
<path d="M 765.138 299.426 C 773.386 301.174 776.524 302.794 781.094 307.668 C 785.610 312.483 787.436 317.058 787.403 323.474 C 787.332 337.375 779.497 345.537 761.000 350.980 C 756.875 352.193 753.146 353.521 752.713 353.930 C 752.280 354.340 752.397 355.914 752.973 357.430 C 753.550 358.946 754.920 363.619 756.019 367.814 C 768.600 415.847 759.440 468.890 731.363 510.590 C 723.601 522.119 687.861 569.891 680.329 578.807 C 677.398 582.276 675.000 585.472 675.000 585.910 C 675.000 586.596 635.462 640.129 621.018 659.000 C 618.282 662.575 608.385 675.850 599.024 688.500 C 572.750 724.009 568.516 729.260 558.078 739.278 C 546.706 750.193 539.267 756.069 527.812 763.184 C 484.102 790.336 431.301 797.082 381.570 781.868 C 372.236 779.012 363.299 775.289 351.366 769.283 L 346.231 766.699 343.366 768.721 C 341.790 769.834 338.093 771.956 335.151 773.439 C 332.208 774.921 330.048 776.381 330.349 776.682 C 330.650 776.984 334.380 775.136 338.638 772.577 L 346.380 767.924 351.940 770.875 C 377.844 784.623 409.816 791.821 440.000 790.700 C 468.668 789.636 490.254 784.085 515.500 771.287 C 531.081 763.388 551.838 748.223 562.076 737.258 C 568.834 730.020 578.143 718.653 583.988 710.500 C 589.874 702.290 618.113 664.459 656.143 613.834 C 664.269 603.018 672.585 591.543 674.624 588.334 C 676.664 585.125 680.647 579.800 683.476 576.500 C 690.449 568.368 725.179 521.775 733.023 510.029 C 752.967 480.167 764.404 440.256 762.669 406.575 C 761.738 388.498 758.218 368.594 753.983 357.454 C 753.411 355.952 753.069 354.630 753.222 354.517 C 753.375 354.404 757.550 353.068 762.500 351.548 C 776.406 347.278 781.584 343.559 786.255 334.487 C 790.600 326.048 788.936 314.645 782.290 307.326 C 777.451 301.996 771.675 299.168 764.324 298.528 L 758.500 298.021 765.138 299.426 "/></g>
<g fill="#DBEFE6FF" stroke="#DBEFE6FF">
<path d="M 645.718 196.070 C 640.228 197.394 636.090 199.762 632.366 203.711 C 627.787 208.566 625.304 214.173 622.190 226.690 C 619.833 236.162 619.253 237.471 617.500 237.262 C 616.400 237.131 612.125 236.491 608.000 235.840 C 598.411 234.325 570.886 234.343 560.500 235.870 C 520.809 241.706 483.693 260.712 456.489 289.131 C 446.686 299.373 444.021 302.842 373.246 397.500 C 341.992 439.300 312.389 478.825 307.461 485.333 C 285.631 514.159 278.478 525.112 271.703 540.088 C 267.114 550.234 261.922 566.827 259.291 579.759 C 257.040 590.824 256.688 595.131 256.617 612.500 C 256.547 629.338 256.892 634.374 258.793 644.350 C 261.778 660.004 270.963 688.370 272.538 686.795 C 272.806 686.527 271.946 683.865 270.626 680.881 C 267.484 673.776 262.515 657.437 260.627 648.000 C 252.905 609.407 258.201 569.619 275.734 534.500 C 282.322 521.306 287.227 513.712 300.279 496.500 C 313.359 479.250 312.520 480.366 323.706 465.365 C 329.093 458.141 334.482 450.941 335.683 449.365 C 336.884 447.789 340.869 442.450 344.538 437.500 C 348.206 432.550 352.258 427.150 353.541 425.500 C 354.824 423.850 375.422 396.363 399.315 364.417 C 451.945 294.049 456.339 288.768 474.489 274.067 C 496.634 256.131 526.101 242.988 555.500 237.933 C 570.814 235.300 594.525 234.859 608.000 236.957 C 612.675 237.684 617.373 238.329 618.439 238.390 C 620.098 238.484 620.762 236.913 623.039 227.500 C 626.179 214.520 629.481 207.541 634.613 203.035 C 639.754 198.521 643.884 197.000 651.000 197.000 C 658.068 197.000 662.246 198.521 667.255 202.919 C 672.794 207.783 675.414 214.095 675.288 222.275 C 675.230 226.032 675.496 228.969 675.880 228.803 C 676.929 228.347 683.949 220.374 690.233 212.500 C 693.306 208.650 696.744 204.600 697.873 203.500 C 699.002 202.400 697.580 203.758 694.713 206.517 C 691.846 209.277 686.575 215.126 683.000 219.517 L 676.500 227.499 676.821 222.977 C 677.241 217.051 674.040 208.610 669.507 203.693 C 663.692 197.386 653.631 194.161 645.718 196.070 "/></g>
<g fill="#DBEFE6FF" stroke="#DBEFE6FF">
<path d="M 518.401 316.428 C 512.344 319.064 509.472 327.317 512.043 334.695 C 514.530 341.828 525.605 345.261 532.460 341.025 C 536.920 338.268 539.001 334.376 538.996 328.800 C 538.987 318.185 528.641 311.970 518.401 316.428 "/></g>
<g fill="#DBEFE6FF" stroke="#DBEFE6FF">
<path d="M 754.500 157.718 C 755.050 158.261 759.775 162.148 765.000 166.356 C 785.769 183.082 803.158 199.380 818.597 216.589 C 826.296 225.172 846.000 249.493 846.000 250.415 C 846.000 250.727 847.463 252.978 849.250 255.417 C 856.433 265.216 864.725 278.024 870.023 287.500 C 875.938 298.079 879.935 305.446 880.875 307.500 C 881.378 308.600 883.862 313.890 886.395 319.256 C 888.928 324.622 891.000 329.221 891.000 329.477 C 891.000 329.732 892.065 332.317 893.367 335.220 C 894.669 338.124 896.517 342.750 897.473 345.500 C 898.429 348.250 899.578 351.400 900.026 352.500 C 906.176 367.610 913.114 392.540 917.978 417.000 C 927.091 462.831 927.834 519.304 919.926 565.000 C 915.006 593.426 908.072 619.470 898.971 643.700 C 896.787 649.514 895.037 654.773 895.082 655.386 C 895.331 658.789 905.842 629.123 911.015 610.415 C 922.261 569.753 926.306 539.452 926.288 496.000 C 926.267 443.686 918.701 400.365 901.138 352.000 C 889.823 320.843 870.845 283.709 854.120 260.000 C 852.374 257.525 849.079 252.800 846.798 249.500 C 844.516 246.200 842.345 243.275 841.973 243.000 C 841.600 242.725 837.964 238.225 833.893 233.000 C 818.730 213.542 791.726 186.474 771.000 169.958 C 767.425 167.109 762.759 163.366 760.631 161.639 C 756.720 158.465 752.562 155.806 754.500 157.718 "/></g>
<g fill="#DBEFE6FF" stroke="#DBEFE6FF">
<path d="M 503.000 428.332 C 538.561 439.776 562.097 455.566 585.236 483.500 C 595.180 495.505 605.937 515.790 611.867 533.720 C 617.005 549.256 619.160 562.866 619.580 582.430 C 619.916 598.082 619.874 598.454 617.211 603.755 L 614.500 609.149 617.731 604.325 L 620.962 599.500 620.981 585.743 C 621.021 556.443 614.295 529.755 600.484 504.418 C 588.269 482.010 566.551 459.309 544.000 445.378 C 529.827 436.623 507.112 427.174 496.278 425.527 C 494.200 425.211 497.225 426.473 503.000 428.332 "/></g>
<g fill="#DBEFE6FF" stroke="#DBEFE6FF">
<path d="M 893.000 658.514 C 893.000 659.346 892.567 660.809 892.038 661.764 C 891.509 662.719 888.792 668.450 886.000 674.500 C 883.208 680.550 880.559 686.175 880.113 687.000 C 879.667 687.825 876.911 693.000 873.990 698.500 C 871.068 704.000 867.175 710.797 865.339 713.604 C 863.502 716.410 862.000 718.982 862.000 719.318 C 862.000 719.654 860.638 721.858 858.972 724.215 C 857.307 726.572 854.407 730.750 852.527 733.500 C 844.425 745.352 840.760 750.532 840.145 751.000 C 839.784 751.275 838.260 753.149 836.759 755.163 C 835.258 757.178 833.451 759.428 832.744 760.163 C 832.036 760.899 830.424 762.850 829.161 764.500 C 822.387 773.348 797.776 798.752 785.000 810.084 C 774.875 819.065 755.411 834.789 751.373 837.251 C 747.302 839.733 741.969 843.500 738.712 846.194 L 735.924 848.500 738.579 847.000 C 746.488 842.531 774.908 821.052 782.922 813.486 C 784.890 811.629 788.075 808.674 790.000 806.921 C 796.975 800.567 809.619 788.071 814.862 782.350 C 817.811 779.133 821.664 774.925 823.424 773.000 C 827.843 768.167 842.957 749.345 846.000 744.884 C 847.375 742.869 852.203 735.658 856.728 728.860 C 861.254 722.062 865.423 715.949 865.993 715.276 C 866.563 714.604 867.460 713.029 867.986 711.776 C 868.513 710.524 870.285 707.250 871.925 704.500 C 876.786 696.347 895.000 659.233 895.000 657.481 C 895.000 657.216 894.550 657.000 894.000 657.000 C 893.450 657.000 893.000 657.681 893.000 658.514 "/></g>
<g fill="#DBEFE6FF" stroke="#DBEFE6FF">
<path d="M 273.005 688.283 C 272.989 690.895 283.474 708.583 291.186 718.957 C 293.827 722.509 296.271 726.930 296.619 728.782 C 297.197 731.864 296.837 732.528 292.375 736.604 C 286.453 742.014 272.334 751.813 265.483 755.268 C 258.680 758.698 252.909 760.215 244.010 760.913 C 233.323 761.751 233.442 763.412 244.664 770.040 C 254.671 775.951 264.629 780.691 268.713 781.487 C 270.945 781.922 270.803 781.756 268.000 780.652 C 261.912 778.256 245.669 769.856 241.229 766.808 C 238.881 765.195 237.220 763.454 237.538 762.938 C 237.857 762.422 240.319 762.000 243.010 762.000 C 257.450 762.000 275.298 753.143 293.249 737.069 C 298.009 732.806 298.173 732.482 297.549 728.580 C 297.192 726.348 296.103 723.617 295.128 722.511 C 291.383 718.260 285.320 709.068 279.288 698.500 C 275.835 692.450 273.007 687.852 273.005 688.283 "/></g>
<g fill="#DBEFE6FF" stroke="#DBEFE6FF">
<path d="M 538.500 707.047 C 516.971 728.094 501.990 738.007 481.500 744.766 C 466.956 749.563 460.196 750.503 440.500 750.466 C 424.997 750.437 421.182 750.105 413.000 748.069 C 401.664 745.248 398.373 744.841 406.000 747.203 C 428.236 754.089 458.209 753.527 481.500 745.786 C 502.952 738.657 519.380 727.616 539.500 706.806 L 552.500 693.360 538.500 707.047 "/></g>
<g fill="#DBEFE6FF" stroke="#DBEFE6FF">
<path d="M 750.000 242.700 C 744.304 244.757 731.671 250.667 727.500 253.226 C 724.750 254.913 721.600 256.340 720.500 256.397 C 719.296 256.459 718.500 257.201 718.500 258.262 C 718.500 259.806 718.963 259.710 722.240 257.483 C 727.058 254.209 742.367 246.487 747.935 244.523 C 765.314 238.391 782.380 249.538 782.349 267.000 C 782.334 274.926 779.428 281.666 774.126 286.072 C 772.132 287.729 766.000 291.348 760.500 294.114 C 746.865 300.971 744.157 303.653 754.000 300.552 C 757.355 299.495 757.864 299.109 756.000 299.035 C 754.171 298.963 756.010 297.629 762.855 294.062 C 773.662 288.432 778.040 284.568 781.516 277.592 C 787.570 265.443 781.632 249.821 768.735 243.966 C 764.640 242.108 753.690 241.367 750.000 242.700 "/></g>
<g fill="#DBEFE6FF" stroke="#DBEFE6FF">
<path d="M 481.500 363.877 C 479.850 364.905 477.339 367.041 475.921 368.623 C 471.329 373.744 456.917 393.002 457.720 392.943 C 458.149 392.911 462.794 387.179 468.042 380.204 C 473.289 373.230 479.093 366.506 480.939 365.262 C 485.417 362.245 491.594 362.252 496.088 365.280 C 500.381 368.173 501.968 371.329 501.982 377.000 C 501.994 382.194 500.652 384.676 491.201 396.934 C 487.568 401.645 482.549 408.192 480.048 411.483 C 477.547 414.774 474.917 418.088 474.205 418.849 C 472.109 421.089 473.364 422.461 478.080 423.084 C 480.511 423.406 484.750 423.975 487.500 424.350 C 490.841 424.805 491.813 424.727 490.430 424.114 C 489.292 423.610 485.354 422.876 481.680 422.482 C 477.753 422.062 475.014 421.300 475.034 420.634 C 475.053 420.010 480.259 412.750 486.604 404.500 C 499.450 387.794 502.746 382.677 503.029 379.000 C 503.539 372.375 502.951 370.688 498.632 366.368 C 494.665 362.402 493.814 362.000 489.382 362.004 C 486.356 362.006 483.360 362.718 481.500 363.877 "/></g>
<g fill="#DBEFE6FF" stroke="#DBEFE6FF">
<path d="M 366.878 471.762 C 365.985 472.718 362.593 477.550 359.339 482.500 C 356.084 487.450 350.457 495.550 346.834 500.500 C 333.077 519.293 320.266 541.303 314.425 556.180 C 311.464 563.722 306.985 579.688 307.042 582.500 C 307.064 583.600 308.387 579.550 309.982 573.500 C 315.971 550.791 327.205 529.133 347.696 500.789 C 357.062 487.835 369.634 468.809 366.878 471.762 "/></g>
<g fill="#DBEFE6FF" stroke="#DBEFE6FF">
<path d="M 311.000 660.783 C 311.000 663.006 322.093 684.229 327.250 691.870 C 335.502 704.100 348.990 717.321 362.990 726.903 C 372.342 733.303 398.393 745.940 399.649 744.684 C 399.867 744.467 397.897 743.494 395.272 742.522 C 388.108 739.871 373.384 732.315 365.602 727.297 C 343.373 712.963 330.252 698.089 317.750 673.050 C 314.038 665.615 311.000 660.095 311.000 660.783 "/></g>
<g fill="#DBEFE6FF" stroke="#DBEFE6FF">
<path d="M 647.000 891.612 C 640.925 893.961 633.477 896.300 616.500 901.189 C 607.886 903.670 591.942 907.323 582.244 909.039 C 578.254 909.745 575.196 910.530 575.450 910.783 C 576.561 911.894 605.109 905.625 624.000 900.121 C 637.915 896.066 653.651 890.683 654.724 889.609 C 655.850 888.483 653.541 889.082 647.000 891.612 "/></g>
<g fill="#DBEFE6FF" stroke="#DBEFE6FF">
<path d="M 530.000 915.192 C 523.125 915.686 506.700 915.900 493.500 915.668 C 473.290 915.312 471.316 915.393 481.000 916.184 C 492.776 917.144 535.730 916.399 546.500 915.047 L 552.500 914.294 547.500 914.294 C 544.750 914.293 536.875 914.697 530.000 915.192 "/></g>
<g fill="#DBEFE6FF" stroke="#DBEFE6FF">
<path d="M 445.500 408.208 L 434.500 422.471 424.797 424.562 C 415.995 426.459 413.065 427.424 403.500 431.573 C 400.707 432.784 391.784 441.000 393.261 441.000 C 393.628 441.000 395.632 439.261 397.714 437.137 C 402.346 432.410 413.221 427.794 424.978 425.564 C 429.596 424.688 434.214 423.212 435.239 422.284 C 437.575 420.170 454.148 398.612 455.500 395.929 C 456.050 394.838 451.550 400.363 445.500 408.208 "/></g>
<g fill="#DBEFE6FF" stroke="#DBEFE6FF">
<path d="M 391.500 91.930 C 371.210 97.610 343.104 107.546 338.527 110.659 C 335.583 112.661 337.301 112.286 343.220 109.635 C 354.413 104.622 374.863 97.609 391.950 92.923 C 398.798 91.045 403.748 89.423 402.950 89.320 C 402.153 89.216 397.000 90.391 391.500 91.930 "/></g>
<g fill="#DBEFE6FF" stroke="#DBEFE6FF">
<path d="M 324.866 778.511 C 323.417 779.299 318.713 780.908 314.413 782.087 C 307.448 783.999 304.955 784.169 291.548 783.651 C 283.271 783.332 275.375 782.942 274.000 782.785 C 272.625 782.628 274.161 783.110 277.414 783.855 C 281.550 784.802 287.715 785.071 297.914 784.748 C 310.429 784.352 313.559 783.910 319.963 781.631 C 324.067 780.170 327.870 778.530 328.413 777.987 C 329.851 776.549 327.964 776.828 324.866 778.511 "/></g>
<g fill="#70A790FF" stroke="#70A790FF">
<path d="M 708.000 1000.118 C 706.075 1000.458 713.613 1000.796 724.750 1000.868 C 738.416 1000.957 745.000 1000.656 745.000 999.941 C 745.000 998.811 714.575 998.957 708.000 1000.118 "/></g>
<g fill="#70A790FF" stroke="#70A790FF">
<path d="M 255.500 1000.000 C 255.880 1000.614 262.751 1000.939 273.309 1000.842 C 288.832 1000.699 289.627 1000.612 281.500 999.947 C 267.658 998.816 254.784 998.842 255.500 1000.000 "/></g>
<g fill="#DBEFE6FF" stroke="#DBEFE6FF">
<path d="M 684.000 116.471 C 684.000 116.730 686.588 118.086 689.750 119.484 C 692.913 120.883 696.175 122.463 697.000 122.995 C 697.825 123.528 700.750 125.102 703.500 126.495 C 706.250 127.887 710.750 130.365 713.500 132.000 C 716.250 133.636 719.175 135.278 720.000 135.650 C 720.825 136.021 722.763 137.201 724.308 138.272 C 725.852 139.342 727.296 140.037 727.517 139.816 C 728.441 138.892 709.617 128.072 692.707 119.809 C 684.784 115.937 684.000 115.636 684.000 116.471 "/></g>
<g fill="#DBEFE6FF" stroke="#DBEFE6FF">
<path d="M 608.561 616.822 C 594.605 635.691 582.278 652.690 581.441 654.219 C 579.616 657.554 602.749 626.391 608.088 618.322 L 613.500 610.144 608.561 616.822 "/></g>
<g fill="#DBEFE6FF" stroke="#DBEFE6FF">
<path d="M 622.500 93.661 C 626.900 95.013 635.675 97.932 642.000 100.149 C 655.327 104.821 659.177 105.830 653.469 103.157 C 646.158 99.731 617.710 90.761 615.239 91.102 C 614.832 91.158 618.100 92.309 622.500 93.661 "/></g>
<g fill="#DBEFE6FF" stroke="#DBEFE6FF">
<path d="M 356.083 889.416 C 358.061 891.389 400.596 904.737 401.626 903.708 C 401.844 903.489 396.731 901.826 390.262 900.012 C 383.793 898.198 373.587 894.978 367.582 892.857 C 356.847 889.065 355.254 888.588 356.083 889.416 "/></g>
<g fill="#DBEFE6FF" stroke="#DBEFE6FF">
<path d="M 708.072 198.154 C 705.636 198.595 703.161 199.483 702.572 200.125 C 701.769 201.001 702.002 201.095 703.500 200.501 C 707.837 198.779 718.006 198.730 722.293 200.409 C 727.498 202.448 729.774 204.325 733.828 209.921 C 735.572 212.329 737.000 213.818 737.000 213.228 C 737.000 210.739 730.058 203.304 725.464 200.873 C 719.751 197.850 714.378 197.010 708.072 198.154 "/></g>
<g fill="#DBEFE6FF" stroke="#DBEFE6FF">
<path d="M 305.630 588.203 C 304.308 595.345 303.041 610.906 303.164 618.500 C 303.269 624.989 303.446 623.950 304.102 613.000 C 304.547 605.575 305.427 596.433 306.057 592.685 C 306.687 588.936 306.986 585.653 306.721 585.388 C 306.457 585.123 305.965 586.390 305.630 588.203 "/></g>
<g fill="#DBEFE6FF" stroke="#DBEFE6FF">
<path d="M 795.500 996.693 C 793.850 996.898 785.300 997.471 776.500 997.965 L 760.500 998.865 778.928 998.382 C 789.063 998.117 798.063 997.486 798.928 996.981 C 799.793 996.475 800.050 996.119 799.500 996.190 C 798.950 996.262 797.150 996.488 795.500 996.693 "/></g>
<g fill="#DBEFE6FF" stroke="#DBEFE6FF">
<path d="M 204.762 997.028 C 206.006 997.532 215.006 998.151 224.762 998.405 L 242.500 998.865 227.000 998.007 C 218.475 997.534 209.475 996.915 207.000 996.630 C 203.680 996.248 203.093 996.352 204.762 997.028 "/></g>
<g fill="#DBEFE6FF" stroke="#DBEFE6FF">
<path d="M 730.761 850.973 C 729.344 852.088 727.748 853.000 727.215 853.000 C 726.681 853.000 725.692 853.666 725.017 854.479 C 724.342 855.293 722.599 856.566 721.145 857.308 C 712.171 861.887 707.904 864.346 707.336 865.265 C 706.530 866.569 720.355 859.026 728.766 853.573 C 732.212 851.339 734.651 849.384 734.185 849.228 C 733.719 849.073 732.179 849.858 730.761 850.973 "/></g>
<g fill="#DBEFE6FF" stroke="#DBEFE6FF">
<path d="M 577.000 83.121 C 592.016 86.488 599.934 88.044 603.143 88.257 C 607.557 88.551 583.363 83.332 577.000 82.618 L 572.500 82.112 577.000 83.121 "/></g>
<g fill="#DBEFE6FF" stroke="#DBEFE6FF">
<path d="M 737.609 220.500 C 738.269 227.210 737.037 231.807 732.370 240.053 L 729.500 245.124 732.579 240.812 C 734.272 238.440 736.409 234.578 737.329 232.230 C 739.160 227.551 739.536 218.371 737.994 216.000 C 737.333 214.983 737.209 216.434 737.609 220.500 "/></g>
<g fill="#DBEFE6FF" stroke="#DBEFE6FF">
<path d="M 432.000 82.658 C 425.044 83.828 405.511 88.156 405.040 88.632 C 404.381 89.299 409.859 88.355 420.500 85.969 C 424.900 84.982 430.750 83.827 433.500 83.401 C 436.250 82.975 437.600 82.539 436.500 82.432 C 435.400 82.325 433.375 82.427 432.000 82.658 "/></g>
<g fill="#DBEFE6FF" stroke="#DBEFE6FF">
<path d="M 304.122 629.880 C 303.984 633.708 308.698 655.708 310.147 658.000 C 310.886 659.169 310.980 659.058 310.574 657.500 C 308.506 649.563 305.794 637.089 305.088 632.264 C 304.493 628.200 304.208 627.497 304.122 629.880 "/></g>
<g fill="#DBEFE6FF" stroke="#DBEFE6FF">
<path d="M 328.000 877.937 C 334.299 881.263 350.601 887.956 353.071 888.231 C 354.400 888.379 353.690 887.877 351.494 887.116 C 349.297 886.355 342.580 883.542 336.567 880.866 C 325.361 875.878 321.788 874.656 328.000 877.937 "/></g>
<g fill="#DBEFE6FF" stroke="#DBEFE6FF">
<path d="M 745.000 1000.000 C 745.000 1000.571 748.000 1001.000 752.000 1001.000 C 756.000 1001.000 759.000 1000.571 759.000 1000.000 C 759.000 999.429 756.000 999.000 752.000 999.000 C 748.000 999.000 745.000 999.429 745.000 1000.000 "/></g>
<g fill="#DBEFE6FF" stroke="#DBEFE6FF">
<path d="M 950.000 919.007 C 950.000 919.652 944.713 925.687 938.250 932.418 L 926.500 944.655 939.467 931.650 C 946.599 924.497 951.886 918.462 951.217 918.239 C 950.548 918.016 950.000 918.361 950.000 919.007 "/></g>
<g fill="#DBEFE6FF" stroke="#DBEFE6FF">
<path d="M 64.419 66.282 C 60.614 70.287 55.700 75.905 53.500 78.767 L 49.500 83.970 54.500 78.235 C 57.250 75.081 62.460 69.463 66.078 65.750 C 69.695 62.038 72.359 59.000 71.997 59.000 C 71.634 59.000 68.224 62.277 64.419 66.282 "/></g>
</svg>
