<?xml version="1.0" encoding="UTF-8"?>
<!DOCTYPE svg PUBLIC "-//W3C//DTD SVG 1.1//EN" "http://www.w3.org/Graphics/SVG/1.1/DTD/svg11.dtd">
<svg xmlns="http://www.w3.org/2000/svg" version="1.1" width="512px" height="512px" style="shape-rendering:geometricPrecision; text-rendering:geometricPrecision; image-rendering:optimizeQuality; fill-rule:evenodd; clip-rule:evenodd" xmlns:xlink="http://www.w3.org/1999/xlink">
<g><path style="opacity:1" fill="#76d993" d="M 31.5,-0.5 C 47.5,-0.5 63.5,-0.5 79.5,-0.5C 79.5,10.1667 79.5,20.8333 79.5,31.5C 90.1667,31.5 100.833,31.5 111.5,31.5C 111.5,47.5 111.5,63.5 111.5,79.5C 100.833,79.5 90.1667,79.5 79.5,79.5C 79.5,90.1667 79.5,100.833 79.5,111.5C 63.5,111.5 47.5,111.5 31.5,111.5C 31.5,100.833 31.5,90.1667 31.5,79.5C 20.8333,79.5 10.1667,79.5 -0.5,79.5C -0.5,63.5 -0.5,47.5 -0.5,31.5C 10.1667,31.5 20.8333,31.5 31.5,31.5C 31.5,20.8333 31.5,10.1667 31.5,-0.5 Z"/></g>
<g><path style="opacity:0.989" fill="#ef746d" d="M 311.5,52.5 C 274.167,53.8333 236.833,53.8333 199.5,52.5C 217.218,34.1145 235.884,16.7811 255.5,0.5C 275.116,16.7811 293.782,34.1145 311.5,52.5 Z"/></g>
<g><path style="opacity:1" fill="#76d993" d="M 511.5,31.5 C 511.5,47.5 511.5,63.5 511.5,79.5C 474.167,79.5 436.833,79.5 399.5,79.5C 399.5,63.5 399.5,47.5 399.5,31.5C 436.833,31.5 474.167,31.5 511.5,31.5 Z"/></g>
<g><path style="opacity:0.995" fill="#f07773" d="M 199.5,52.5 C 236.833,53.8333 274.167,53.8333 311.5,52.5C 320.104,61.6049 328.937,70.6049 338,79.5C 341.404,83.3939 344.571,87.3939 347.5,91.5C 286.167,90.1667 224.833,90.1667 163.5,91.5C 174.77,77.8934 186.77,64.8934 199.5,52.5 Z"/></g>
<g><path style="opacity:0.996" fill="#f07979" d="M 347.5,91.5 C 358.219,102.553 368.219,114.219 377.5,126.5C 339.67,127.499 301.67,127.832 263.5,127.5C 258.167,127.5 252.833,127.5 247.5,127.5C 209.167,127.5 170.833,127.5 132.5,127.5C 142.115,114.885 152.448,102.885 163.5,91.5C 224.833,90.1667 286.167,90.1667 347.5,91.5 Z"/></g>
<g><path style="opacity:0.997" fill="#f07b7e" d="M 377.5,126.5 C 385.238,135.244 392.238,144.577 398.5,154.5C 302.793,154.171 207.126,154.505 111.5,155.5C 118.5,146.167 125.5,136.833 132.5,127.5C 170.833,127.5 209.167,127.5 247.5,127.5C 247.5,132.833 247.5,138.167 247.5,143.5C 252.833,143.5 258.167,143.5 263.5,143.5C 263.5,138.167 263.5,132.833 263.5,127.5C 301.67,127.832 339.67,127.499 377.5,126.5 Z"/></g>
<g><path style="opacity:1" fill="#ee7267" d="M 247.5,127.5 C 252.833,127.5 258.167,127.5 263.5,127.5C 263.5,132.833 263.5,138.167 263.5,143.5C 258.167,143.5 252.833,143.5 247.5,143.5C 247.5,138.167 247.5,132.833 247.5,127.5 Z"/></g>
<g><path style="opacity:0.997" fill="#f17d83" d="M 398.5,154.5 C 402.648,159.448 406.314,164.782 409.5,170.5C 388.5,170.5 367.5,170.5 346.5,170.5C 341.487,164.663 335.154,161.163 327.5,160C 314.171,159.5 300.837,159.333 287.5,159.5C 287.5,175.5 287.5,191.5 287.5,207.5C 279.5,207.5 271.5,207.5 263.5,207.5C 263.5,191.5 263.5,175.5 263.5,159.5C 258.167,159.5 252.833,159.5 247.5,159.5C 247.5,175.5 247.5,191.5 247.5,207.5C 239.5,207.5 231.5,207.5 223.5,207.5C 223.666,199.826 223.5,192.159 223,184.5C 216.772,166.128 203.938,157.961 184.5,160C 177.716,162.223 171.716,165.723 166.5,170.5C 144.833,170.5 123.167,170.5 101.5,170.5C 104.585,165.328 107.919,160.328 111.5,155.5C 207.126,154.505 302.793,154.171 398.5,154.5 Z"/></g>
<g><path style="opacity:1" fill="#fefefe" d="M 223.5,207.5 C 223.5,223.5 223.5,239.5 223.5,255.5C 218.167,255.5 212.833,255.5 207.5,255.5C 207.5,244.833 207.5,234.167 207.5,223.5C 196.833,223.5 186.167,223.5 175.5,223.5C 175.5,234.167 175.5,244.833 175.5,255.5C 170.167,255.5 164.833,255.5 159.5,255.5C 159.5,239.5 159.5,223.5 159.5,207.5C 159.334,199.826 159.5,192.159 160,184.5C 161.391,179.39 163.558,174.723 166.5,170.5C 171.716,165.723 177.716,162.223 184.5,160C 203.938,157.961 216.772,166.128 223,184.5C 223.5,192.159 223.666,199.826 223.5,207.5 Z"/></g>
<g><path style="opacity:1" fill="#ee7267" d="M 263.5,207.5 C 263.5,223.833 263.5,240.167 263.5,256.5C 263.5,261.5 263.5,266.5 263.5,271.5C 296.5,271.5 329.5,271.5 362.5,271.5C 364.167,271.5 365.833,271.5 367.5,271.5C 367.5,276.833 367.5,282.167 367.5,287.5C 360.167,287.5 352.833,287.5 345.5,287.5C 318.167,287.5 290.833,287.5 263.5,287.5C 263.5,299.5 263.5,311.5 263.5,323.5C 263.5,340.5 263.5,357.5 263.5,374.5C 263.5,382.167 263.5,389.833 263.5,397.5C 263.5,398.833 262.833,399.5 261.5,399.5C 256.833,399.5 252.167,399.5 247.5,399.5C 247.5,396.833 247.5,394.167 247.5,391.5C 247.5,368.833 247.5,346.167 247.5,323.5C 247.5,311.5 247.5,299.5 247.5,287.5C 212.833,287.5 178.167,287.5 143.5,287.5C 143.5,285.167 143.5,282.833 143.5,280.5C 143.5,277.5 143.5,274.5 143.5,271.5C 178.167,271.5 212.833,271.5 247.5,271.5C 247.5,266.5 247.5,261.5 247.5,256.5C 247.5,240.167 247.5,223.833 247.5,207.5C 247.5,191.5 247.5,175.5 247.5,159.5C 252.833,159.5 258.167,159.5 263.5,159.5C 263.5,175.5 263.5,191.5 263.5,207.5 Z"/></g>
<g><path style="opacity:1" fill="#fefefe" d="M 346.5,170.5 C 353.496,182.886 352.83,194.886 344.5,206.5C 343.957,206.56 343.624,206.893 343.5,207.5C 354.958,222.505 353.958,236.672 340.5,250C 336.475,252.514 332.141,254.181 327.5,255C 314.171,255.5 300.837,255.667 287.5,255.5C 287.5,239.5 287.5,223.5 287.5,207.5C 287.5,191.5 287.5,175.5 287.5,159.5C 300.837,159.333 314.171,159.5 327.5,160C 335.154,161.163 341.487,164.663 346.5,170.5 Z"/></g>
<g><path style="opacity:0.994" fill="#f17f86" d="M 101.5,170.5 C 123.167,170.5 144.833,170.5 166.5,170.5C 163.558,174.723 161.391,179.39 160,184.5C 159.5,192.159 159.334,199.826 159.5,207.5C 132.833,207.5 106.167,207.5 79.5,207.5C 86.0449,194.639 93.3782,182.306 101.5,170.5 Z"/></g>
<g><path style="opacity:0.996" fill="#f17f87" d="M 346.5,170.5 C 367.5,170.5 388.5,170.5 409.5,170.5C 416.583,180.324 422.916,190.658 428.5,201.5C 426.167,203.167 424.167,205.167 422.5,207.5C 396.328,207.831 370.328,207.498 344.5,206.5C 352.83,194.886 353.496,182.886 346.5,170.5 Z"/></g>
<g><path style="opacity:1" fill="#f18088" d="M 186.5,175.5 C 196.146,174.071 202.979,177.738 207,186.5C 207.5,193.492 207.666,200.492 207.5,207.5C 196.833,207.5 186.167,207.5 175.5,207.5C 175.334,200.492 175.5,193.492 176,186.5C 178.357,181.645 181.857,177.979 186.5,175.5 Z"/></g>
<g><path style="opacity:1" fill="#f17f87" d="M 303.5,175.5 C 312.25,175.09 320.916,175.59 329.5,177C 337.413,183.966 337.413,190.966 329.5,198C 320.916,199.41 312.25,199.91 303.5,199.5C 303.5,191.5 303.5,183.5 303.5,175.5 Z"/></g>
<g><path style="opacity:1" fill="#f494ba" d="M 428.5,201.5 C 431.227,205.577 433.561,209.91 435.5,214.5C 435.649,215.552 435.483,216.552 435,217.5C 417.595,235.068 400.762,253.068 384.5,271.5C 383.833,271.5 383.5,271.833 383.5,272.5C 378.167,277.5 372.833,282.5 367.5,287.5C 367.5,282.167 367.5,276.833 367.5,271.5C 365.833,271.5 364.167,271.5 362.5,271.5C 366.46,266.205 370.793,261.205 375.5,256.5C 391.503,240.496 407.17,224.163 422.5,207.5C 424.167,205.167 426.167,203.167 428.5,201.5 Z"/></g>
<g><path style="opacity:1" fill="#f595ba" d="M 443.5,231.5 C 448.794,242.033 453.127,253.033 456.5,264.5C 437.464,283.202 419.13,302.535 401.5,322.5C 394.806,328.527 388.473,334.86 382.5,341.5C 379.891,330.277 374.224,320.944 365.5,313.5C 373.84,305.16 381.84,296.493 389.5,287.5C 392.833,287.5 396.167,287.5 399.5,287.5C 399.5,284.167 399.5,280.833 399.5,277.5C 414.531,262.47 429.198,247.136 443.5,231.5 Z"/></g>
<g><path style="opacity:0.998" fill="#f1828e" d="M 79.5,207.5 C 106.167,207.5 132.833,207.5 159.5,207.5C 159.5,223.5 159.5,239.5 159.5,255.5C 164.833,255.5 170.167,255.5 175.5,255.5C 175.5,244.833 175.5,234.167 175.5,223.5C 186.167,223.5 196.833,223.5 207.5,223.5C 207.5,234.167 207.5,244.833 207.5,255.5C 212.833,255.5 218.167,255.5 223.5,255.5C 223.5,239.5 223.5,223.5 223.5,207.5C 231.5,207.5 239.5,207.5 247.5,207.5C 247.5,223.833 247.5,240.167 247.5,256.5C 184.095,256.829 120.762,256.496 57.5,255.5C 63.2419,238.688 70.5753,222.688 79.5,207.5 Z"/></g>
<g><path style="opacity:1" fill="#f1828e" d="M 344.5,206.5 C 370.328,207.498 396.328,207.831 422.5,207.5C 407.17,224.163 391.503,240.496 375.5,256.5C 338.167,256.5 300.833,256.5 263.5,256.5C 263.5,240.167 263.5,223.833 263.5,207.5C 271.5,207.5 279.5,207.5 287.5,207.5C 287.5,223.5 287.5,239.5 287.5,255.5C 300.837,255.667 314.171,255.5 327.5,255C 332.141,254.181 336.475,252.514 340.5,250C 353.958,236.672 354.958,222.505 343.5,207.5C 343.624,206.893 343.957,206.56 344.5,206.5 Z"/></g>
<g><path style="opacity:1" fill="#f2828d" d="M 303.5,215.5 C 312.25,215.09 320.916,215.59 329.5,217C 337.413,223.966 337.413,230.966 329.5,238C 320.916,239.41 312.25,239.91 303.5,239.5C 303.5,231.5 303.5,223.5 303.5,215.5 Z"/></g>
<g><path style="opacity:0.998" fill="#f28493" d="M 57.5,255.5 C 120.762,256.496 184.095,256.829 247.5,256.5C 247.5,261.5 247.5,266.5 247.5,271.5C 212.833,271.5 178.167,271.5 143.5,271.5C 143.5,274.5 143.5,277.5 143.5,280.5C 138.167,280.5 132.833,280.5 127.5,280.5C 127.5,277.5 127.5,274.5 127.5,271.5C 122.167,271.5 116.833,271.5 111.5,271.5C 111.5,274.5 111.5,277.5 111.5,280.5C 91.1387,281.155 71.1387,280.488 51.5,278.5C 52.7186,270.625 54.7186,262.959 57.5,255.5 Z"/></g>
<g><path style="opacity:1" fill="#f28391" d="M 435.5,214.5 C 438.949,219.735 441.616,225.402 443.5,231.5C 429.198,247.136 414.531,262.47 399.5,277.5C 399.5,275.5 399.5,273.5 399.5,271.5C 394.5,271.5 389.5,271.5 384.5,271.5C 400.762,253.068 417.595,235.068 435,217.5C 435.483,216.552 435.649,215.552 435.5,214.5 Z"/></g>
<g><path style="opacity:1" fill="#f28492" d="M 263.5,256.5 C 300.833,256.5 338.167,256.5 375.5,256.5C 370.793,261.205 366.46,266.205 362.5,271.5C 329.5,271.5 296.5,271.5 263.5,271.5C 263.5,266.5 263.5,261.5 263.5,256.5 Z"/></g>
<g><path style="opacity:1" fill="#ee7267" d="M 127.5,280.5 C 127.5,282.833 127.5,285.167 127.5,287.5C 122.167,287.5 116.833,287.5 111.5,287.5C 111.5,285.167 111.5,282.833 111.5,280.5C 111.5,277.5 111.5,274.5 111.5,271.5C 116.833,271.5 122.167,271.5 127.5,271.5C 127.5,274.5 127.5,277.5 127.5,280.5 Z"/></g>
<g><path style="opacity:1" fill="#ee7267" d="M 384.5,271.5 C 389.5,271.5 394.5,271.5 399.5,271.5C 399.5,273.5 399.5,275.5 399.5,277.5C 399.5,280.833 399.5,284.167 399.5,287.5C 396.167,287.5 392.833,287.5 389.5,287.5C 387.5,287.5 385.5,287.5 383.5,287.5C 383.5,282.5 383.5,277.5 383.5,272.5C 383.5,271.833 383.833,271.5 384.5,271.5 Z"/></g>
<g><path style="opacity:1" fill="#f28698" d="M 383.5,272.5 C 383.5,277.5 383.5,282.5 383.5,287.5C 385.5,287.5 387.5,287.5 389.5,287.5C 381.84,296.493 373.84,305.16 365.5,313.5C 361.117,310.642 356.45,308.308 351.5,306.5C 356.81,300.186 362.144,293.853 367.5,287.5C 372.833,282.5 378.167,277.5 383.5,272.5 Z"/></g>
<g><path style="opacity:0.999" fill="#f28698" d="M 51.5,278.5 C 71.1387,280.488 91.1387,281.155 111.5,280.5C 111.5,282.833 111.5,285.167 111.5,287.5C 116.833,287.5 122.167,287.5 127.5,287.5C 127.5,285.167 127.5,282.833 127.5,280.5C 132.833,280.5 138.167,280.5 143.5,280.5C 143.5,282.833 143.5,285.167 143.5,287.5C 178.167,287.5 212.833,287.5 247.5,287.5C 247.5,299.5 247.5,311.5 247.5,323.5C 241.833,323.5 236.167,323.5 230.5,323.5C 227.388,314.555 221.388,308.388 212.5,305C 200.242,303.561 187.909,303.061 175.5,303.5C 175.5,310.167 175.5,316.833 175.5,323.5C 170.167,323.5 164.833,323.5 159.5,323.5C 154.134,307.303 143.134,301.136 126.5,305C 118.703,308.957 113.703,315.124 111.5,323.5C 90.1667,323.5 68.8333,323.5 47.5,323.5C 47.3336,314.494 47.5002,305.494 48,296.5C 48.6468,290.264 49.8134,284.264 51.5,278.5 Z"/></g>
<g><path style="opacity:0.994" fill="#f28699" d="M 456.5,264.5 C 462.295,283.737 464.629,303.403 463.5,323.5C 442.66,323.831 421.993,323.497 401.5,322.5C 419.13,302.535 437.464,283.202 456.5,264.5 Z"/></g>
<g><path style="opacity:1" fill="#f28699" d="M 345.5,287.5 C 341.206,293.129 336.539,298.463 331.5,303.5C 316.981,305.257 305.314,311.924 296.5,323.5C 285.5,323.5 274.5,323.5 263.5,323.5C 263.5,311.5 263.5,299.5 263.5,287.5C 290.833,287.5 318.167,287.5 345.5,287.5 Z"/></g>
<g><path style="opacity:1" fill="#f595ba" d="M 345.5,287.5 C 352.833,287.5 360.167,287.5 367.5,287.5C 362.144,293.853 356.81,300.186 351.5,306.5C 345.032,304.423 338.366,303.423 331.5,303.5C 336.539,298.463 341.206,293.129 345.5,287.5 Z"/></g>
<g><path style="opacity:1" fill="#fefefe" d="M 159.5,323.5 C 159.5,348.167 159.5,372.833 159.5,397.5C 154.604,399.446 149.271,400.113 143.5,399.5C 143.5,388.833 143.5,378.167 143.5,367.5C 138.167,367.5 132.833,367.5 127.5,367.5C 127.5,378.167 127.5,388.833 127.5,399.5C 121.729,400.113 116.396,399.446 111.5,397.5C 111.5,385.167 111.5,372.833 111.5,360.5C 111.5,348.167 111.5,335.833 111.5,323.5C 113.703,315.124 118.703,308.957 126.5,305C 143.134,301.136 154.134,307.303 159.5,323.5 Z"/></g>
<g><path style="opacity:1" fill="#fefefe" d="M 230.5,323.5 C 232.948,333.965 230.614,343.298 223.5,351.5C 233.111,363.173 233.944,375.506 226,388.5C 223.228,391.783 220.061,394.45 216.5,396.5C 208.406,398.977 200.072,399.977 191.5,399.5C 185.789,399.495 180.456,398.828 175.5,397.5C 175.5,372.833 175.5,348.167 175.5,323.5C 175.5,316.833 175.5,310.167 175.5,303.5C 187.909,303.061 200.242,303.561 212.5,305C 221.388,308.388 227.388,314.555 230.5,323.5 Z"/></g>
<g><path style="opacity:1" fill="#fefdfd" d="M 331.5,303.5 C 338.366,303.423 345.032,304.423 351.5,306.5C 356.45,308.308 361.117,310.642 365.5,313.5C 374.224,320.944 379.891,330.277 382.5,341.5C 383.363,347.455 383.697,353.455 383.5,359.5C 379.386,376.955 369.053,389.288 352.5,396.5C 344.351,398.871 336.018,399.871 327.5,399.5C 316.148,396.659 306.481,390.992 298.5,382.5C 295.568,378.298 292.902,373.965 290.5,369.5C 288.724,362.955 287.724,356.288 287.5,349.5C 287.717,339.848 290.717,331.181 296.5,323.5C 305.314,311.924 316.981,305.257 331.5,303.5 Z"/></g>
<g><path style="opacity:1" fill="#f597bc" d="M 337.5,319.5 C 328.236,330.267 318.403,340.6 308,350.5C 306.121,352.527 304.954,354.86 304.5,357.5C 302.477,333.84 313.477,321.174 337.5,319.5 Z"/></g>
<g><path style="opacity:1" fill="#f3899e" d="M 191.5,319.5 C 197.593,319.139 203.593,319.639 209.5,321C 217.413,327.966 217.413,334.966 209.5,342C 203.593,343.361 197.593,343.861 191.5,343.5C 191.5,335.5 191.5,327.5 191.5,319.5 Z"/></g>
<g><path style="opacity:1" fill="#f3899f" d="M 132.5,319.5 C 137.28,318.641 140.78,320.308 143,324.5C 143.5,333.494 143.666,342.494 143.5,351.5C 138.167,351.5 132.833,351.5 127.5,351.5C 127.334,342.494 127.5,333.494 128,324.5C 129.025,322.313 130.525,320.646 132.5,319.5 Z"/></g>
<g><path style="opacity:1" fill="#f595bb" d="M 353.5,325.5 C 364.898,333.499 369.398,344.499 367,358.5C 366.722,359.416 366.222,360.082 365.5,360.5C 358.064,366.598 351.73,373.598 346.5,381.5C 334.844,385.453 324.177,383.619 314.5,376C 312.536,374.549 311.203,372.716 310.5,370.5C 325.17,355.829 339.504,340.829 353.5,325.5 Z"/></g>
<g><path style="opacity:0.997" fill="#f3899f" d="M 47.5,323.5 C 68.8333,323.5 90.1667,323.5 111.5,323.5C 111.5,335.833 111.5,348.167 111.5,360.5C 91.8333,360.5 72.1667,360.5 52.5,360.5C 49.6395,348.336 47.9729,336.002 47.5,323.5 Z"/></g>
<g><path style="opacity:1" fill="#f389a0" d="M 263.5,323.5 C 274.5,323.5 285.5,323.5 296.5,323.5C 290.717,331.181 287.717,339.848 287.5,349.5C 279.5,357.833 271.5,366.167 263.5,374.5C 263.5,357.5 263.5,340.5 263.5,323.5 Z"/></g>
<g><path style="opacity:1" fill="#f38aa0" d="M 337.5,319.5 C 343.425,320.139 348.759,322.139 353.5,325.5C 339.504,340.829 325.17,355.829 310.5,370.5C 307.18,366.856 305.18,362.522 304.5,357.5C 304.954,354.86 306.121,352.527 308,350.5C 318.403,340.6 328.236,330.267 337.5,319.5 Z"/></g>
<g><path style="opacity:0.997" fill="#f389a0" d="M 401.5,322.5 C 421.993,323.497 442.66,323.831 463.5,323.5C 462.919,336.316 461.253,348.982 458.5,361.5C 433.402,360.842 408.402,360.176 383.5,359.5C 383.697,353.455 383.363,347.455 382.5,341.5C 388.473,334.86 394.806,328.527 401.5,322.5 Z"/></g>
<g><path style="opacity:1" fill="#f595ba" d="M 287.5,349.5 C 287.724,356.288 288.724,362.955 290.5,369.5C 281.5,378.833 272.5,388.167 263.5,397.5C 263.5,389.833 263.5,382.167 263.5,374.5C 271.5,366.167 279.5,357.833 287.5,349.5 Z"/></g>
<g><path style="opacity:1" fill="#f38ba3" d="M 159.5,323.5 C 164.833,323.5 170.167,323.5 175.5,323.5C 175.5,348.167 175.5,372.833 175.5,397.5C 170.167,397.5 164.833,397.5 159.5,397.5C 159.5,372.833 159.5,348.167 159.5,323.5 Z"/></g>
<g><path style="opacity:1" fill="#f38ca4" d="M 191.5,359.5 C 197.593,359.139 203.593,359.639 209.5,361C 217.413,367.966 217.413,374.966 209.5,382C 203.593,383.361 197.593,383.861 191.5,383.5C 191.5,375.5 191.5,367.5 191.5,359.5 Z"/></g>
<g><path style="opacity:1" fill="#f38ba3" d="M 230.5,323.5 C 236.167,323.5 241.833,323.5 247.5,323.5C 247.5,346.167 247.5,368.833 247.5,391.5C 245.861,393.806 243.861,395.806 241.5,397.5C 232.983,397.826 224.65,397.493 216.5,396.5C 220.061,394.45 223.228,391.783 226,388.5C 233.944,375.506 233.111,363.173 223.5,351.5C 230.614,343.298 232.948,333.965 230.5,323.5 Z"/></g>
<g><path style="opacity:1" fill="#f38fa8" d="M 365.5,360.5 C 363.035,370.966 356.702,377.966 346.5,381.5C 351.73,373.598 358.064,366.598 365.5,360.5 Z"/></g>
<g><path style="opacity:0.996" fill="#f38ca5" d="M 383.5,359.5 C 408.402,360.176 433.402,360.842 458.5,361.5C 455.189,374.111 450.523,386.111 444.5,397.5C 413.662,397.831 382.995,397.498 352.5,396.5C 369.053,389.288 379.386,376.955 383.5,359.5 Z"/></g>
<g><path style="opacity:0.997" fill="#f38ca6" d="M 52.5,360.5 C 72.1667,360.5 91.8333,360.5 111.5,360.5C 111.5,372.833 111.5,385.167 111.5,397.5C 96.5,397.5 81.5,397.5 66.5,397.5C 60.2807,385.854 55.614,373.52 52.5,360.5 Z"/></g>
<g><path style="opacity:0.993" fill="#f594b9" d="M 298.5,382.5 C 306.481,390.992 316.148,396.659 327.5,399.5C 316.833,411.167 306.167,422.833 295.5,434.5C 281.7,448.468 268.034,462.634 254.5,477C 293.904,477.173 333.238,477.673 372.5,478.5C 342.832,497.278 310.499,508.278 275.5,511.5C 262.167,511.5 248.833,511.5 235.5,511.5C 204.922,508.255 175.922,499.422 148.5,485C 144.655,482.637 140.989,480.137 137.5,477.5C 164.169,477.667 190.835,477.5 217.5,477C 215.203,475.737 214.37,473.903 215,471.5C 227.705,458.297 240.205,444.964 252.5,431.5C 256.167,431.5 259.833,431.5 263.5,431.5C 263.5,427.833 263.5,424.167 263.5,420.5C 271.77,411.728 280.27,403.062 289,394.5C 292.404,390.606 295.571,386.606 298.5,382.5 Z"/></g>
<g><path style="opacity:1" fill="#f494ba" d="M 247.5,391.5 C 247.5,394.167 247.5,396.833 247.5,399.5C 252.167,399.5 256.833,399.5 261.5,399.5C 256.461,404.537 251.794,409.871 247.5,415.5C 232.521,430.813 217.521,446.146 202.5,461.5C 199.043,457.542 195.377,453.708 191.5,450C 196.703,444.965 201.703,439.798 206.5,434.5C 218.532,422.469 230.199,410.136 241.5,397.5C 243.861,395.806 245.861,393.806 247.5,391.5 Z"/></g>
<g><path style="opacity:0.998" fill="#f48eab" d="M 159.5,397.5 C 164.833,397.5 170.167,397.5 175.5,397.5C 180.456,398.828 185.789,399.495 191.5,399.5C 200.072,399.977 208.406,398.977 216.5,396.5C 224.65,397.493 232.983,397.826 241.5,397.5C 230.199,410.136 218.532,422.469 206.5,434.5C 167.663,434.168 128.996,434.501 90.5,435.5C 85.1468,429.636 80.3134,423.303 76,416.5C 72.274,410.381 69.1073,404.048 66.5,397.5C 81.5,397.5 96.5,397.5 111.5,397.5C 116.396,399.446 121.729,400.113 127.5,399.5C 127.5,388.833 127.5,378.167 127.5,367.5C 132.833,367.5 138.167,367.5 143.5,367.5C 143.5,378.167 143.5,388.833 143.5,399.5C 149.271,400.113 154.604,399.446 159.5,397.5 Z"/></g>
<g><path style="opacity:1" fill="#f38da9" d="M 290.5,369.5 C 292.902,373.965 295.568,378.298 298.5,382.5C 295.571,386.606 292.404,390.606 289,394.5C 280.27,403.062 271.77,411.728 263.5,420.5C 263.5,418.833 263.5,417.167 263.5,415.5C 258.167,415.5 252.833,415.5 247.5,415.5C 251.794,409.871 256.461,404.537 261.5,399.5C 262.833,399.5 263.5,398.833 263.5,397.5C 272.5,388.167 281.5,378.833 290.5,369.5 Z"/></g>
<g><path style="opacity:0.997" fill="#f48eab" d="M 352.5,396.5 C 382.995,397.498 413.662,397.831 444.5,397.5C 438.848,411.138 431.181,423.471 421.5,434.5C 379.5,434.5 337.5,434.5 295.5,434.5C 306.167,422.833 316.833,411.167 327.5,399.5C 336.018,399.871 344.351,398.871 352.5,396.5 Z"/></g>
<g><path style="opacity:1" fill="#ee7267" d="M 247.5,415.5 C 252.833,415.5 258.167,415.5 263.5,415.5C 263.5,417.167 263.5,418.833 263.5,420.5C 263.5,424.167 263.5,427.833 263.5,431.5C 259.833,431.5 256.167,431.5 252.5,431.5C 250.833,431.5 249.167,431.5 247.5,431.5C 247.5,426.167 247.5,420.833 247.5,415.5 Z"/></g>
<g><path style="opacity:0.997" fill="#f491b1" d="M 247.5,415.5 C 247.5,420.833 247.5,426.167 247.5,431.5C 249.167,431.5 250.833,431.5 252.5,431.5C 240.205,444.964 227.705,458.297 215,471.5C 214.37,473.903 215.203,475.737 217.5,477C 190.835,477.5 164.169,477.667 137.5,477.5C 122.838,468.888 109.671,458.221 98,445.5C 95.2589,442.271 92.7589,438.938 90.5,435.5C 128.996,434.501 167.663,434.168 206.5,434.5C 201.703,439.798 196.703,444.965 191.5,450C 195.377,453.708 199.043,457.542 202.5,461.5C 217.521,446.146 232.521,430.813 247.5,415.5 Z"/></g>
<g><path style="opacity:0.997" fill="#f491b1" d="M 295.5,434.5 C 337.5,434.5 379.5,434.5 421.5,434.5C 412.041,447.127 401.041,458.293 388.5,468C 383.309,471.759 377.976,475.259 372.5,478.5C 333.238,477.673 293.904,477.173 254.5,477C 268.034,462.634 281.7,448.468 295.5,434.5 Z"/></g>
</svg>
