<?xml version="1.0" encoding="UTF-8"?>
<!DOCTYPE svg PUBLIC "-//W3C//DTD SVG 1.1//EN" "http://www.w3.org/Graphics/SVG/1.1/DTD/svg11.dtd">
<svg xmlns="http://www.w3.org/2000/svg" version="1.1" width="512px" height="512px" style="shape-rendering:geometricPrecision; text-rendering:geometricPrecision; image-rendering:optimizeQuality; fill-rule:evenodd; clip-rule:evenodd" xmlns:xlink="http://www.w3.org/1999/xlink">
<g><path style="opacity:0.988" fill="#85cbad" d="M 299.5,19.5 C 298.761,19.369 298.094,19.5357 297.5,20C 344.601,47.5241 391.601,74.3574 438.5,100.5C 465.373,130.917 482.707,166.25 490.5,206.5C 476.968,198.568 463.301,190.901 449.5,183.5C 441.165,160.484 428.998,139.817 413,121.5C 409.167,125.333 405.333,129.167 401.5,133C 386.888,139.694 377.888,135.194 374.5,119.5C 374.969,115.926 376.136,112.592 378,109.5C 381.833,105.667 385.667,101.833 389.5,98C 356.388,69.7859 318.054,53.6193 274.5,49.5C 274.631,48.6236 274.298,47.9569 273.5,47.5C 256.272,37.7257 239.272,27.7257 222.5,17.5C 240.756,15.5016 259.089,15.0016 277.5,16C 285.066,16.5786 292.399,17.7453 299.5,19.5 Z"/></g>
<g><path style="opacity:0.99" fill="#80c9ae" d="M 222.5,17.5 C 239.272,27.7257 256.272,37.7257 273.5,47.5C 274.298,47.9569 274.631,48.6236 274.5,49.5C 273.85,49.1961 273.183,48.8627 272.5,48.5C 271.669,55.4764 271.169,62.4764 271,69.5C 266.527,78.4822 259.36,81.6489 249.5,79C 245,77.1667 241.833,74 240,69.5C 239.831,62.4764 239.331,55.4764 238.5,48.5C 232.449,49.3561 226.449,50.3561 220.5,51.5C 207.896,43.1896 194.896,35.3563 181.5,28C 182.056,27.6174 182.389,27.1174 182.5,26.5C 195.519,22.2289 208.852,19.2289 222.5,17.5 Z"/></g>
<g><path style="opacity:0.974" fill="#8acdad" d="M 299.5,19.5 C 355.896,29.8437 402.229,56.8437 438.5,100.5C 391.601,74.3574 344.601,47.5241 297.5,20C 298.094,19.5357 298.761,19.369 299.5,19.5 Z"/></g>
<g><path style="opacity:0.984" fill="#7ac6af" d="M 182.5,26.5 C 182.389,27.1174 182.056,27.6174 181.5,28C 194.896,35.3563 207.896,43.1896 220.5,51.5C 199.098,54.9674 178.765,61.6341 159.5,71.5C 149.739,66.2557 140.072,60.7557 130.5,55C 128.975,53.9914 127.308,53.4914 125.5,53.5C 143.006,41.5827 162.006,32.5827 182.5,26.5 Z"/></g>
<g><path style="opacity:0.982" fill="#73c3af" d="M 125.5,53.5 C 127.308,53.4914 128.975,53.9914 130.5,55C 140.072,60.7557 149.739,66.2557 159.5,71.5C 147.834,78.332 136.501,85.6653 125.5,93.5C 116.699,88.9323 108.033,84.099 99.5,79C 97.9371,78.2411 96.9371,77.0744 96.5,75.5C 105.23,66.9642 114.897,59.6309 125.5,53.5 Z"/></g>
<g><path style="opacity:0.991" fill="#6cc0b0" d="M 96.5,75.5 C 96.9371,77.0744 97.9371,78.2411 99.5,79C 108.033,84.099 116.699,88.9323 125.5,93.5C 124.375,95.1288 123.041,96.6288 121.5,98C 126.746,102.575 131.246,107.742 135,113.5C 138.131,126.383 133.131,134.049 120,136.5C 116.263,136.025 112.763,134.858 109.5,133C 105.63,129.298 101.963,125.464 98.5,121.5C 98.5858,120.504 98.2524,119.671 97.5,119C 88.2598,113.576 78.9265,108.41 69.5,103.5C 77.1458,92.8879 86.1458,83.5546 96.5,75.5 Z"/></g>
<g><path style="opacity:0.981" fill="#67beb1" d="M 69.5,103.5 C 78.9265,108.41 88.2598,113.576 97.5,119C 98.2524,119.671 98.5858,120.504 98.5,121.5C 93.489,126.349 88.989,131.683 85,137.5C 81.3918,143.734 77.5585,149.734 73.5,155.5C 73.0629,153.926 72.0629,152.759 70.5,152C 62.4316,146.967 54.0982,142.467 45.5,138.5C 52.2777,125.928 60.2777,114.261 69.5,103.5 Z"/></g>
<g><path style="opacity:0.987" fill="#5fbbb2" d="M 45.5,138.5 C 54.0982,142.467 62.4316,146.967 70.5,152C 72.0629,152.759 73.0629,153.926 73.5,155.5C 68.2809,165.937 63.6142,176.604 59.5,187.5C 50.2884,181.393 40.6218,176.06 30.5,171.5C 34.1524,159.871 39.1524,148.871 45.5,138.5 Z"/></g>
<g><path style="opacity:0.977" fill="#5ab9b2" d="M 30.5,171.5 C 40.6218,176.06 50.2884,181.393 59.5,187.5C 55.3984,200.24 52.3984,213.24 50.5,226.5C 49.8386,225.282 49.1719,223.949 48.5,222.5C 39.1393,217.155 29.806,211.821 20.5,206.5C 22.452,194.346 25.7854,182.68 30.5,171.5 Z"/></g>
<g><path style="opacity:1" fill="#6ec1b0" d="M 271.5,219.5 C 260.833,213.5 250.167,207.5 239.5,201.5C 239.333,185.497 239.5,169.497 240,153.5C 244.473,144.518 251.64,141.351 261.5,144C 266,145.833 269.167,149 271,153.5C 271.5,175.497 271.667,197.497 271.5,219.5 Z"/></g>
<g><path style="opacity:0.981" fill="#66bdb1" d="M 239.5,201.5 C 250.167,207.5 260.833,213.5 271.5,219.5C 271.334,229.172 271.5,238.839 272,248.5C 287.035,263.368 301.869,278.368 316.5,293.5C 290.995,278.913 265.328,264.58 239.5,250.5C 239.5,234.167 239.5,217.833 239.5,201.5 Z"/></g>
<g><path style="opacity:0.992" fill="#7ac6af" d="M 449.5,183.5 C 463.301,190.901 476.968,198.568 490.5,206.5C 494.933,225.781 496.6,245.447 495.5,265.5C 480.329,257.083 465.329,248.416 450.5,239.5C 454.555,239.824 458.555,239.491 462.5,238.5C 460.52,219.581 456.186,201.247 449.5,183.5 Z"/></g>
<g><path style="opacity:0.988" fill="#54b6b3" d="M 20.5,206.5 C 29.806,211.821 39.1393,217.155 48.5,222.5C 49.1719,223.949 49.8386,225.282 50.5,226.5C 49.9063,230.508 49.2396,234.508 48.5,238.5C 55.4764,239.331 62.4764,239.831 69.5,240C 78.4822,244.473 81.6489,251.64 79,261.5C 76.9468,266.387 73.4468,269.721 68.5,271.5C 68.5858,270.504 68.2524,269.671 67.5,269C 52.3365,260.586 37.3365,251.919 22.5,243C 20.3496,241.589 18.0163,240.755 15.5,240.5C 16.0653,228.872 17.732,217.539 20.5,206.5 Z"/></g>
<g><path style="opacity:0.987" fill="#73c3af" d="M 450.5,239.5 C 465.329,248.416 480.329,257.083 495.5,265.5C 495.355,278.829 493.688,291.829 490.5,304.5C 480.5,298.833 470.5,293.167 460.5,287.5C 460.876,282.45 461.542,277.45 462.5,272.5C 455.524,271.669 448.524,271.169 441.5,271C 432.518,266.527 429.351,259.36 432,249.5C 435.635,241.597 441.802,238.264 450.5,239.5 Z"/></g>
<g><path style="opacity:0.983" fill="#4eb3b4" d="M 15.5,240.5 C 18.0163,240.755 20.3496,241.589 22.5,243C 37.3365,251.919 52.3365,260.586 67.5,269C 68.2524,269.671 68.5858,270.504 68.5,271.5C 61.8002,271.17 55.1335,271.503 48.5,272.5C 50.0962,287.149 53.0962,301.482 57.5,315.5C 55.0665,316.329 52.7332,315.829 50.5,314C 39.9694,307.569 29.3027,301.402 18.5,295.5C 15.8268,277.294 14.8268,258.961 15.5,240.5 Z"/></g>
<g><path style="opacity:0.99" fill="#61bbb2" d="M 239.5,250.5 C 265.328,264.58 290.995,278.913 316.5,293.5C 323.536,299.369 329.703,306.036 335,313.5C 336.367,332.794 327.867,339.294 309.5,333C 287,310.5 264.5,288 242,265.5C 239.765,260.777 238.931,255.777 239.5,250.5 Z"/></g>
<g><path style="opacity:0.984" fill="#6dc1b0" d="M 460.5,287.5 C 470.5,293.167 480.5,298.833 490.5,304.5C 488.412,316.854 485.078,328.854 480.5,340.5C 470.258,335.223 460.591,329.223 451.5,322.5C 455.278,311.054 458.278,299.387 460.5,287.5 Z"/></g>
<g><path style="opacity:0.98" fill="#67beb1" d="M 451.5,322.5 C 460.591,329.223 470.258,335.223 480.5,340.5C 475.731,354.038 469.398,366.704 461.5,378.5C 452.5,372.664 443.167,367.331 433.5,362.5C 440.58,349.671 446.58,336.338 451.5,322.5 Z"/></g>
<g><path style="opacity:0.993" fill="#45afb4" d="M 18.5,295.5 C 29.3027,301.402 39.9694,307.569 50.5,314C 52.7332,315.829 55.0665,316.329 57.5,315.5C 65.5508,343.277 79.0508,367.944 98,389.5C 101.833,385.667 105.667,381.833 109.5,378C 124.112,371.306 133.112,375.806 136.5,391.5C 136.031,395.074 134.864,398.408 133,401.5C 129.167,405.333 125.333,409.167 121.5,413C 122.056,413.383 122.389,413.883 122.5,414.5C 96.5,399.833 70.5,385.167 44.5,370.5C 31.4798,347.11 22.8131,322.11 18.5,295.5 Z"/></g>
<g><path style="opacity:0.984" fill="#5cb9b2" d="M 433.5,362.5 C 443.167,367.331 452.5,372.664 461.5,378.5C 449.501,399.839 434.168,418.506 415.5,434.5C 405.5,428.833 395.5,423.167 385.5,417.5C 386.625,415.871 387.959,414.371 389.5,413C 384.254,408.425 379.754,403.258 376,397.5C 372.869,384.617 377.869,376.951 391,374.5C 394.737,374.975 398.237,376.142 401.5,378C 405.333,381.833 409.167,385.667 413,389.5C 420.339,380.791 427.173,371.791 433.5,362.5 Z"/></g>
<g><path style="opacity:0.992" fill="#3fadb5" d="M 44.5,370.5 C 70.5,385.167 96.5,399.833 122.5,414.5C 156.072,441.783 194.406,457.783 237.5,462.5C 254.027,473.141 271.361,483.475 289.5,493.5C 197.456,503.338 122.289,472.672 64,401.5C 56.8803,391.549 50.3803,381.216 44.5,370.5 Z"/></g>
<g><path style="opacity:0.983" fill="#54b6b3" d="M 385.5,417.5 C 395.5,423.167 405.5,428.833 415.5,434.5C 407.694,442.308 399.027,448.975 389.5,454.5C 378.537,449.019 367.87,443.019 357.5,436.5C 366.828,430.174 376.162,423.841 385.5,417.5 Z"/></g>
<g><path style="opacity:0.989" fill="#47b0b4" d="M 300.5,457.5 C 312.605,465.059 324.938,472.392 337.5,479.5C 338.298,479.957 338.631,480.624 338.5,481.5C 322.598,487.225 306.265,491.225 289.5,493.5C 271.361,483.475 254.027,473.141 237.5,462.5C 239.302,455.905 240.135,448.905 240,441.5C 244.473,432.518 251.64,429.351 261.5,432C 266,433.833 269.167,437 271,441.5C 271.169,448.524 271.669,455.524 272.5,462.5C 281.956,461.388 291.29,459.721 300.5,457.5 Z"/></g>
<g><path style="opacity:0.975" fill="#4eb3b3" d="M 357.5,436.5 C 367.87,443.019 378.537,449.019 389.5,454.5C 373.865,465.82 356.865,474.82 338.5,481.5C 338.631,480.624 338.298,479.957 337.5,479.5C 324.938,472.392 312.605,465.059 300.5,457.5C 320.455,453.071 339.455,446.071 357.5,436.5 Z"/></g>
</svg>
