<?xml version="1.0" encoding="UTF-8"?>
<!DOCTYPE svg PUBLIC "-//W3C//DTD SVG 1.1//EN" "http://www.w3.org/Graphics/SVG/1.1/DTD/svg11.dtd">
<svg xmlns="http://www.w3.org/2000/svg" version="1.1" width="128px" height="128px" style="shape-rendering:geometricPrecision; text-rendering:geometricPrecision; image-rendering:optimizeQuality; fill-rule:evenodd; clip-rule:evenodd" xmlns:xlink="http://www.w3.org/1999/xlink">
<g><path style="opacity:0.926" fill="#000000" d="M 3.5,-0.5 C 5.83333,-0.5 8.16667,-0.5 10.5,-0.5C 28.1191,16.7848 45.7857,34.1182 63.5,51.5C 81.2143,34.1182 98.8809,16.7848 116.5,-0.5C 118.833,-0.5 121.167,-0.5 123.5,-0.5C 125.167,0.5 126.5,1.83333 127.5,3.5C 127.5,5.83333 127.5,8.16667 127.5,10.5C 110.215,28.1191 92.8818,45.7857 75.5,63.5C 92.8818,81.2143 110.215,98.8809 127.5,116.5C 127.5,118.833 127.5,121.167 127.5,123.5C 126.5,125.167 125.167,126.5 123.5,127.5C 121.167,127.5 118.833,127.5 116.5,127.5C 98.8809,110.215 81.2143,92.8818 63.5,75.5C 45.7857,92.8818 28.1191,110.215 10.5,127.5C 8.16667,127.5 5.83333,127.5 3.5,127.5C 1.83333,126.5 0.5,125.167 -0.5,123.5C -0.5,121.167 -0.5,118.833 -0.5,116.5C 16.7848,98.8809 34.1182,81.2143 51.5,63.5C 34.1182,45.7857 16.7848,28.1191 -0.5,10.5C -0.5,8.16667 -0.5,5.83333 -0.5,3.5C 0.5,1.83333 1.83333,0.5 3.5,-0.5 Z"/></g>
</svg>
