<?xml version="1.0" standalone="no"?>
<!DOCTYPE svg PUBLIC "-//W3C//DTD SVG 20010904//EN"
 "http://www.w3.org/TR/2001/REC-SVG-20010904/DTD/svg10.dtd">
<svg version="1.0" xmlns="http://www.w3.org/2000/svg"
 width="128.000000pt" height="128.000000pt" viewBox="0 0 128.000000 128.000000"
 preserveAspectRatio="xMidYMid meet">

<g transform="translate(0.000000,128.000000) scale(0.100000,-0.100000)"
fill="#000000" stroke="none">
<path d="M500 1005 c-148 -33 -272 -106 -397 -232 -51 -51 -95 -104 -99 -118
-8 -34 12 -62 112 -161 314 -312 734 -312 1048 0 100 99 120 127 112 161 -10
39 -182 206 -263 254 -168 100 -349 134 -513 96z m232 -115 c96 -36 178 -148
178 -243 0 -113 -85 -230 -189 -261 -72 -21 -110 -20 -173 4 -97 37 -178 148
-178 244 0 109 79 221 180 256 71 25 117 25 182 0z"/>
<path d="M566 761 c-43 -29 -66 -70 -66 -121 0 -84 57 -140 142 -140 138 0
192 189 75 260 -42 26 -113 26 -151 1z"/>
</g>
</svg>
