<?xml version="1.0" encoding="UTF-8"?>
<!DOCTYPE svg PUBLIC "-//W3C//DTD SVG 1.1//EN" "http://www.w3.org/Graphics/SVG/1.1/DTD/svg11.dtd">
<svg xmlns="http://www.w3.org/2000/svg" version="1.1" width="512px" height="512px" style="shape-rendering:geometricPrecision; text-rendering:geometricPrecision; image-rendering:optimizeQuality; fill-rule:evenodd; clip-rule:evenodd" xmlns:xlink="http://www.w3.org/1999/xlink">
<g><path style="opacity:0.968" fill="#020201" d="M 242.5,-0.5 C 251.167,-0.5 259.833,-0.5 268.5,-0.5C 311.438,9.6167 334.438,36.7834 337.5,81C 333.804,127.235 309.137,154.402 263.5,162.5C 263.5,194.167 263.5,225.833 263.5,257.5C 268.5,257.5 273.5,257.5 278.5,257.5C 282.924,227.905 299.257,208.072 327.5,198C 369.988,189.157 399.488,204.657 416,244.5C 417.157,248.782 417.99,253.116 418.5,257.5C 425.257,257.123 431.924,257.623 438.5,259C 444.164,261.332 447.664,265.499 449,271.5C 449.5,304.832 449.667,338.165 449.5,371.5C 482.78,377.449 503.447,396.783 511.5,429.5C 511.5,437.5 511.5,445.5 511.5,453.5C 503.833,484.5 484.5,503.833 453.5,511.5C 445.5,511.5 437.5,511.5 429.5,511.5C 387.602,499.733 368.435,472.066 372,428.5C 378.284,401.549 394.451,383.382 420.5,374C 424.782,372.843 429.116,372.01 433.5,371.5C 433.667,339.165 433.5,306.832 433,274.5C 428.263,273.531 423.43,273.197 418.5,273.5C 412.744,306.757 393.411,327.257 360.5,335C 321.811,338.581 295.311,322.415 281,286.5C 279.843,282.218 279.01,277.884 278.5,273.5C 273.5,273.5 268.5,273.5 263.5,273.5C 263.667,297.836 263.5,322.169 263,346.5C 260.565,351.224 256.731,352.724 251.5,351C 249.951,349.786 248.785,348.286 248,346.5C 247.5,322.169 247.333,297.836 247.5,273.5C 242.5,273.5 237.5,273.5 232.5,273.5C 228.076,303.095 211.743,322.928 183.5,333C 141.024,341.8 111.524,326.3 95,286.5C 93.8434,282.218 93.0101,277.884 92.5,273.5C 87.57,273.197 82.7367,273.531 78,274.5C 77.5,306.832 77.3334,339.165 77.5,371.5C 104.355,375.515 123.521,389.848 135,414.5C 147.088,452.798 136.254,482.632 102.5,504C 95.5647,507.031 88.5647,509.531 81.5,511.5C 73.5,511.5 65.5,511.5 57.5,511.5C 26.5,503.833 7.16667,484.5 -0.5,453.5C -0.5,445.5 -0.5,437.5 -0.5,429.5C 4.62306,405.463 18.2897,387.963 40.5,377C 47.2173,374.071 54.2173,372.237 61.5,371.5C 61.3333,338.165 61.5,304.832 62,271.5C 63.3356,265.499 66.8356,261.332 72.5,259C 79.0764,257.623 85.7431,257.123 92.5,257.5C 96.9239,227.905 113.257,208.072 141.5,198C 183.988,189.157 213.488,204.657 230,244.5C 231.157,248.782 231.99,253.116 232.5,257.5C 237.5,257.5 242.5,257.5 247.5,257.5C 247.5,225.833 247.5,194.167 247.5,162.5C 205.554,155.721 181.054,131.388 174,89.5C 172.417,72.1651 175.75,55.8318 184,40.5C 187.136,36.6745 190.969,35.6745 195.5,37.5C 197.305,39.4486 198.305,41.7819 198.5,44.5C 194.977,52.2346 192.144,60.2346 190,68.5C 186.896,86.9329 190.729,103.6 201.5,118.5C 206.657,107.503 214.157,98.5032 224,91.5C 223.497,87.1458 222.497,82.8125 221,78.5C 216.776,56.4496 224.609,40.6162 244.5,31C 268.066,26.5244 283.232,35.6911 290,58.5C 290.667,65.1667 290.667,71.8333 290,78.5C 288.146,82.7077 287.146,87.0411 287,91.5C 296.843,98.5032 304.343,107.503 309.5,118.5C 315.545,110.56 319.378,101.56 321,91.5C 324.273,59.8767 312.107,36.3767 284.5,21C 270.354,14.7411 255.688,13.0744 240.5,16C 231.568,18.5523 223.068,22.0523 215,26.5C 212.489,26.1598 210.322,25.1598 208.5,23.5C 206.797,19.2544 207.464,15.4211 210.5,12C 220.612,6.13466 231.279,1.968 242.5,-0.5 Z"/></g>
<g><path style="opacity:0.999" fill="#f6f4f5" d="M 195.5,37.5 C 198.925,31.9798 203.258,27.3132 208.5,23.5C 210.322,25.1598 212.489,26.1598 215,26.5C 223.068,22.0523 231.568,18.5523 240.5,16C 255.688,13.0744 270.354,14.7411 284.5,21C 312.107,36.3767 324.273,59.8767 321,91.5C 319.378,101.56 315.545,110.56 309.5,118.5C 304.343,107.503 296.843,98.5032 287,91.5C 287.146,87.0411 288.146,82.7077 290,78.5C 290.667,71.8333 290.667,65.1667 290,58.5C 283.232,35.6911 268.066,26.5244 244.5,31C 224.609,40.6162 216.776,56.4496 221,78.5C 222.497,82.8125 223.497,87.1458 224,91.5C 214.157,98.5032 206.657,107.503 201.5,118.5C 190.729,103.6 186.896,86.9329 190,68.5C 192.144,60.2346 194.977,52.2346 198.5,44.5C 198.305,41.7819 197.305,39.4486 195.5,37.5 Z"/></g>
<g><path style="opacity:1" fill="#faad9b" d="M 246.5,90.5 C 251.277,84.0719 253.277,76.7385 252.5,68.5C 253.205,61.3197 251.705,54.653 248,48.5C 247.329,47.7476 246.496,47.4142 245.5,47.5C 259.287,41.3801 269.121,45.3801 275,59.5C 275.884,66.5817 275.551,73.5817 274,80.5C 270.39,88.7718 264.056,93.1051 255,93.5C 251.759,93.366 248.925,92.366 246.5,90.5 Z"/></g>
<g><path style="opacity:1" fill="#fac9bb" d="M 245.5,47.5 C 246.496,47.4142 247.329,47.7476 248,48.5C 251.705,54.653 253.205,61.3197 252.5,68.5C 253.277,76.7385 251.277,84.0719 246.5,90.5C 238.099,85.6987 234.432,78.3654 235.5,68.5C 234.322,59.1946 237.655,52.1946 245.5,47.5 Z"/></g>
<g><path style="opacity:1" fill="#fbe67b" d="M 249.5,107.5 C 253.684,108.166 258.018,108.833 262.5,109.5C 267.808,123.128 265.474,135.295 255.5,146C 252.518,146.498 249.518,146.665 246.5,146.5C 235.051,145.109 224.718,140.943 215.5,134C 214.196,133.196 213.529,132.029 213.5,130.5C 216.558,118.623 223.225,109.456 233.5,103C 234.833,102.333 236.167,102.333 237.5,103C 241.202,105.354 245.202,106.854 249.5,107.5 Z"/></g>
<g><path style="opacity:1" fill="#eed56b" d="M 246.5,146.5 C 249.518,146.665 252.518,146.498 255.5,146C 265.474,135.295 267.808,123.128 262.5,109.5C 258.018,108.833 253.684,108.166 249.5,107.5C 254.179,107.666 258.845,107.499 263.5,107C 267.831,105.316 272.164,103.983 276.5,103C 287.398,109.08 294.398,118.247 297.5,130.5C 297.471,132.029 296.804,133.196 295.5,134C 280.726,144.848 264.392,149.015 246.5,146.5 Z"/></g>
<g><path style="opacity:1" fill="#f3f1f2" d="M 153.5,210.5 C 181.799,208.391 201.965,220.058 214,245.5C 219.814,262.369 218.314,278.536 209.5,294C 204.101,286.255 197.434,279.255 189.5,273C 192.001,267.668 193.001,262.001 192.5,256C 192.313,230.154 179.313,218.82 153.5,222C 138.126,228.07 131.126,239.403 132.5,256C 131.999,262.001 132.999,267.668 135.5,273C 127.882,278.449 121.882,285.282 117.5,293.5C 116.726,294.711 115.893,294.711 115,293.5C 101.521,266.229 106.021,242.396 128.5,222C 136.171,216.495 144.504,212.661 153.5,210.5 Z"/></g>
<g><path style="opacity:1" fill="#f3f1f2" d="M 339.5,210.5 C 367.799,208.391 387.965,220.058 400,245.5C 405.525,262.318 404.025,278.485 395.5,294C 392.489,291.61 389.989,288.443 388,284.5C 384.133,280.298 379.967,276.465 375.5,273C 378.001,267.668 379.001,262.001 378.5,256C 378.313,230.154 365.313,218.82 339.5,222C 324.61,227.726 317.61,238.559 318.5,254.5C 318.02,260.963 319.02,267.13 321.5,273C 313.882,278.449 307.882,285.282 303.5,293.5C 302.726,294.711 301.893,294.711 301,293.5C 287.679,266.253 292.179,242.42 314.5,222C 322.171,216.495 330.504,212.661 339.5,210.5 Z"/></g>
<g><path style="opacity:1" fill="#f8cbbc" d="M 158.5,235.5 C 168.395,234.916 174.895,239.25 178,248.5C 180.209,257.629 178.042,265.463 171.5,272C 159.472,277.401 151.306,273.901 147,261.5C 144.214,249.632 148.047,240.965 158.5,235.5 Z"/></g>
<g><path style="opacity:1" fill="#f9ac9a" d="M 338.5,270.5 C 340.946,265.674 341.946,260.508 341.5,255C 341.687,250.345 341.021,245.845 339.5,241.5C 339.043,240.702 338.376,240.369 337.5,240.5C 347.659,232.837 356.159,234.504 363,245.5C 366.369,255.514 364.535,264.347 357.5,272C 350.654,275.772 344.321,275.272 338.5,270.5 Z"/></g>
<g><path style="opacity:1" fill="#f5c5b7" d="M 337.5,240.5 C 338.376,240.369 339.043,240.702 339.5,241.5C 341.021,245.845 341.687,250.345 341.5,255C 341.946,260.508 340.946,265.674 338.5,270.5C 334.069,266.388 332.069,261.222 332.5,255C 332.107,249.343 333.773,244.51 337.5,240.5 Z"/></g>
<g><path style="opacity:1" fill="#c6f2ad" d="M 164.5,289.5 C 166.49,295.99 166.99,302.656 166,309.5C 164.08,316.615 159.58,319.949 152.5,319.5C 144.003,318.085 136.337,314.752 129.5,309.5C 128.369,307.926 128.202,306.259 129,304.5C 132.108,295.889 137.608,289.222 145.5,284.5C 151.264,288.191 157.597,289.858 164.5,289.5 Z"/></g>
<g><path style="opacity:1" fill="#99e29a" d="M 152.5,319.5 C 159.58,319.949 164.08,316.615 166,309.5C 166.99,302.656 166.49,295.99 164.5,289.5C 168.813,289.452 172.813,288.285 176.5,286C 178.167,285.333 179.833,285.333 181.5,286C 190.496,291.523 195.162,299.356 195.5,309.5C 182.408,318.692 168.075,322.025 152.5,319.5 Z"/></g>
<g><path style="opacity:1" fill="#fa4d69" d="M 350.5,289.5 C 354.342,300.771 352.675,311.105 345.5,320.5C 333.11,320.296 322.776,315.796 314.5,307C 316.911,297.083 322.578,289.583 331.5,284.5C 337.264,288.191 343.597,289.858 350.5,289.5 Z"/></g>
<g><path style="opacity:1" fill="#f72a39" d="M 345.5,320.5 C 352.675,311.105 354.342,300.771 350.5,289.5C 354.673,288.956 358.673,287.79 362.5,286C 364.167,285.333 365.833,285.333 367.5,286C 376.496,291.523 381.162,299.356 381.5,309.5C 370.752,317.204 358.752,320.871 345.5,320.5 Z"/></g>
<g><path style="opacity:0.973" fill="#020202" d="M 267.5,511.5 C 259.5,511.5 251.5,511.5 243.5,511.5C 207.268,502.258 187.601,478.925 184.5,441.5C 186.084,410.82 200.751,388.987 228.5,376C 260.754,365.105 288.254,372.271 311,397.5C 331.578,427.369 331.245,457.036 310,486.5C 298.395,499.379 284.229,507.712 267.5,511.5 Z"/></g>
<g><path style="opacity:1" fill="#f4f2f3" d="M 61.5,386.5 C 92.1709,385.075 112.671,398.742 123,427.5C 126.586,442.58 124.42,456.747 116.5,470C 111.101,462.255 104.434,455.255 96.5,449C 98.9802,443.13 99.9802,436.963 99.5,430.5C 99.7553,409.918 89.5886,398.585 69,396.5C 48.2553,399.246 38.422,411.079 39.5,432C 38.9986,438.001 39.9986,443.668 42.5,449C 34.8821,454.449 28.8821,461.282 24.5,469.5C 23.7261,470.711 22.8928,470.711 22,469.5C 8.5275,442.199 13.0275,418.365 35.5,398C 43.4148,392.204 52.0815,388.37 61.5,386.5 Z"/></g>
<g><path style="opacity:1" fill="#f3f2f2" d="M 247.5,386.5 C 278.179,385.079 298.679,398.745 309,427.5C 312.508,442.554 310.342,456.721 302.5,470C 297.101,462.255 290.434,455.255 282.5,449C 285.001,443.668 286.001,438.001 285.5,432C 286.515,410.849 276.515,399.016 255.5,396.5C 234.965,398.867 224.965,410.367 225.5,431C 224.984,437.329 225.984,443.329 228.5,449C 220.882,454.449 214.882,461.282 210.5,469.5C 209.726,470.711 208.893,470.711 208,469.5C 194.521,442.229 199.021,418.396 221.5,398C 229.415,392.204 238.082,388.37 247.5,386.5 Z"/></g>
<g><path style="opacity:1" fill="#f3f1f2" d="M 433.5,386.5 C 464.171,385.075 484.671,398.742 495,427.5C 498.508,442.559 496.342,456.726 488.5,470C 485.489,467.61 482.989,464.443 481,460.5C 476.958,456.29 472.792,452.29 468.5,448.5C 471.015,443.335 472.015,437.835 471.5,432C 472.53,410.862 462.53,399.029 441.5,396.5C 421.206,398.792 411.206,410.125 411.5,430.5C 411.02,436.963 412.02,443.13 414.5,449C 406.882,454.449 400.882,461.282 396.5,469.5C 395.726,470.711 394.893,470.711 394,469.5C 380.288,442.189 384.788,418.356 407.5,398C 415.415,392.204 424.082,388.37 433.5,386.5 Z"/></g>
<g><path style="opacity:1" fill="#f8cbbc" d="M 65.5,411.5 C 75.3955,410.916 81.8955,415.25 85,424.5C 87.209,433.629 85.0423,441.463 78.5,448C 66.4725,453.401 58.3058,449.901 54,437.5C 51.2139,425.632 55.0472,416.965 65.5,411.5 Z"/></g>
<g><path style="opacity:1" fill="#f8cbbc" d="M 251.5,411.5 C 261.395,410.916 267.895,415.25 271,424.5C 273.209,433.629 271.042,441.463 264.5,448C 252.472,453.401 244.306,449.901 240,437.5C 237.214,425.632 241.047,416.965 251.5,411.5 Z"/></g>
<g><path style="opacity:1" fill="#f8cbbc" d="M 437.5,411.5 C 447.395,410.916 453.895,415.25 457,424.5C 459.209,433.629 457.042,441.463 450.5,448C 438.472,453.401 430.306,449.901 426,437.5C 423.116,425.618 426.949,416.952 437.5,411.5 Z"/></g>
<g><path style="opacity:1" fill="#fb4d69" d="M 71.5,465.5 C 74.4353,474.311 73.9353,482.977 70,491.5C 68.483,493.24 66.983,494.906 65.5,496.5C 53.5089,495.997 43.5089,491.497 35.5,483C 38.1329,473.246 43.7996,465.746 52.5,460.5C 58.251,464.418 64.5844,466.084 71.5,465.5 Z"/></g>
<g><path style="opacity:1" fill="#f62a39" d="M 65.5,496.5 C 66.983,494.906 68.483,493.24 70,491.5C 73.9353,482.977 74.4353,474.311 71.5,465.5C 77.0801,464.468 82.4134,462.968 87.5,461C 95.9492,466.109 101.283,473.442 103.5,483C 102.206,485.628 100.206,487.628 97.5,489C 87.631,494.874 76.9644,497.374 65.5,496.5 Z"/></g>
<g><path style="opacity:1" fill="#fae67b" d="M 252.5,465.5 C 254.265,466.461 256.265,466.795 258.5,466.5C 262.175,476.931 260.508,486.431 253.5,495C 251.527,495.495 249.527,495.662 247.5,495.5C 239.016,494.926 231.349,492.093 224.5,487C 222.785,486.223 221.785,484.89 221.5,483C 223.717,473.442 229.051,466.109 237.5,461C 242.151,463.157 247.151,464.657 252.5,465.5 Z"/></g>
<g><path style="opacity:1" fill="#efd56c" d="M 247.5,495.5 C 249.527,495.662 251.527,495.495 253.5,495C 260.508,486.431 262.175,476.931 258.5,466.5C 256.265,466.795 254.265,466.461 252.5,465.5C 260.014,464.947 267.348,463.781 274.5,462C 283.496,467.523 288.162,475.356 288.5,485.5C 276.095,494.647 262.428,497.981 247.5,495.5 Z"/></g>
<g><path style="opacity:1" fill="#c6f2ad" d="M 443.5,465.5 C 446.465,474.325 445.965,482.992 442,491.5C 440.106,494.844 437.273,496.178 433.5,495.5C 424.177,494.673 415.843,491.339 408.5,485.5C 407.637,479.912 409.137,474.912 413,470.5C 416.39,466.607 420.223,463.273 424.5,460.5C 430.218,464.404 436.551,466.071 443.5,465.5 Z"/></g>
<g><path style="opacity:1" fill="#98e29a" d="M 433.5,495.5 C 437.273,496.178 440.106,494.844 442,491.5C 445.965,482.992 446.465,474.325 443.5,465.5C 447.673,464.956 451.673,463.79 455.5,462C 457.167,461.333 458.833,461.333 460.5,462C 469.322,467.593 473.989,475.426 474.5,485.5C 462.095,494.647 448.428,497.981 433.5,495.5 Z"/></g>
</svg>
