<?xml version="1.0" encoding="UTF-8"?>
<!DOCTYPE svg PUBLIC "-//W3C//DTD SVG 1.1//EN" "http://www.w3.org/Graphics/SVG/1.1/DTD/svg11.dtd">
<svg xmlns="http://www.w3.org/2000/svg" version="1.1" width="512px" height="512px" style="shape-rendering:geometricPrecision; text-rendering:geometricPrecision; image-rendering:optimizeQuality; fill-rule:evenodd; clip-rule:evenodd" xmlns:xlink="http://www.w3.org/1999/xlink">
<g><path style="opacity:0.999" fill="#eef4f5" d="M 384.5,-0.5 C 393.167,-0.5 401.833,-0.5 410.5,-0.5C 411.122,0.626561 411.955,1.62656 413,2.5C 413.5,20.4969 413.667,38.4969 413.5,56.5C 402.833,56.5 392.167,56.5 381.5,56.5C 381.333,38.8302 381.5,21.1635 382,3.5C 382.662,2.01608 383.496,0.682751 384.5,-0.5 Z"/></g>
<g><path style="opacity:0.991" fill="#deecf0" d="M 410.5,-0.5 C 421.167,-0.5 431.833,-0.5 442.5,-0.5C 442.783,0.28913 443.283,0.955796 444,1.5C 444.5,19.8303 444.667,38.1636 444.5,56.5C 438.5,56.5 432.5,56.5 426.5,56.5C 422.167,56.5 417.833,56.5 413.5,56.5C 413.667,38.4969 413.5,20.4969 413,2.5C 411.955,1.62656 411.122,0.626561 410.5,-0.5 Z"/></g>
<g><path style="opacity:0.992" fill="#98bce5" d="M 381.5,56.5 C 392.167,56.5 402.833,56.5 413.5,56.5C 417.833,56.5 422.167,56.5 426.5,56.5C 427.122,57.6266 427.955,58.6266 429,59.5C 429.5,69.828 429.666,80.1613 429.5,90.5C 422.978,90.1765 416.645,90.5098 410.5,91.5C 404.319,95.451 403.986,99.951 409.5,105C 416.158,105.5 422.825,105.666 429.5,105.5C 439.833,105.5 450.167,105.5 460.5,105.5C 460.5,105.833 460.5,106.167 460.5,106.5C 450.167,106.5 439.833,106.5 429.5,106.5C 429.666,116.839 429.5,127.172 429,137.5C 427.955,138.373 427.122,139.373 426.5,140.5C 422.167,140.5 417.833,140.5 413.5,140.5C 402.833,140.5 392.167,140.5 381.5,140.5C 377.154,140.666 372.821,140.499 368.5,140C 368,139.5 367.5,139 367,138.5C 365.571,131.281 365.071,123.947 365.5,116.5C 366.833,104.5 366.833,92.5 365.5,80.5C 365.201,73.1093 365.535,65.776 366.5,58.5C 367.025,57.8076 367.692,57.3076 368.5,57C 372.821,56.501 377.154,56.3343 381.5,56.5 Z"/></g>
<g><path style="opacity:0.993" fill="#5f99d7" d="M 426.5,56.5 C 432.5,56.5 438.5,56.5 444.5,56.5C 449.179,56.3342 453.845,56.5008 458.5,57C 459,57.5 459.5,58 460,58.5C 460.5,69.1615 460.667,79.8281 460.5,90.5C 450.167,90.5 439.833,90.5 429.5,90.5C 429.666,80.1613 429.5,69.828 429,59.5C 427.955,58.6266 427.122,57.6266 426.5,56.5 Z"/></g>
<g><path style="opacity:0.963" fill="#eef4f5" d="M 335.5,80.5 C 335.5,92.5 335.5,104.5 335.5,116.5C 292.833,116.5 250.167,116.5 207.5,116.5C 196.148,115.31 184.815,115.31 173.5,116.5C 171.833,116.5 170.167,116.5 168.5,116.5C 132.785,116.974 97.1181,116.474 61.5,115C 50.465,108.893 47.6317,100.06 53,88.5C 55.6867,84.8062 59.1867,82.3062 63.5,81C 154.166,80.5 244.833,80.3333 335.5,80.5 Z"/></g>
<g><path style="opacity:0.962" fill="#ddebf0" d="M 335.5,80.5 C 345.5,80.5 355.5,80.5 365.5,80.5C 366.833,92.5 366.833,104.5 365.5,116.5C 355.5,116.5 345.5,116.5 335.5,116.5C 335.5,104.5 335.5,92.5 335.5,80.5 Z"/></g>
<g><path style="opacity:1" fill="#edf4f5" d="M 410.5,91.5 C 416.833,91.5 423.167,91.5 429.5,91.5C 429.5,96.1667 429.5,100.833 429.5,105.5C 422.825,105.666 416.158,105.5 409.5,105C 403.986,99.951 404.319,95.451 410.5,91.5 Z"/></g>
<g><path style="opacity:0.995" fill="#dceaf0" d="M 410.5,91.5 C 416.645,90.5098 422.978,90.1765 429.5,90.5C 439.833,90.5 450.167,90.5 460.5,90.5C 460.5,95.5 460.5,100.5 460.5,105.5C 450.167,105.5 439.833,105.5 429.5,105.5C 429.5,100.833 429.5,96.1667 429.5,91.5C 423.167,91.5 416.833,91.5 410.5,91.5 Z"/></g>
<g><path style="opacity:0.991" fill="#5f99d7" d="M 460.5,106.5 C 460.667,117.172 460.5,127.839 460,138.5C 459.5,139 459,139.5 458.5,140C 453.845,140.499 449.179,140.666 444.5,140.5C 438.5,140.5 432.5,140.5 426.5,140.5C 427.122,139.373 427.955,138.373 429,137.5C 429.5,127.172 429.666,116.839 429.5,106.5C 439.833,106.5 450.167,106.5 460.5,106.5 Z"/></g>
<g><path style="opacity:0.995" fill="#918290" d="M 168.5,116.5 C 170.167,116.5 171.833,116.5 173.5,116.5C 224.419,128.086 253.419,159.753 260.5,211.5C 253.833,211.5 247.167,211.5 240.5,211.5C 233.423,205.929 226.756,199.762 220.5,193C 218.99,192.15 217.49,191.317 216,190.5C 208.845,196.987 201.678,203.487 194.5,210C 168.167,210.333 141.833,210.667 115.5,211C 114.333,211.5 113.5,212.333 113,213.5C 112.501,219.157 112.334,224.824 112.5,230.5C 98.2832,230.073 88.6165,236.407 83.5,249.5C 83.112,233.128 83.612,216.795 85,200.5C 95.6809,155.319 123.514,127.319 168.5,116.5 Z"/></g>
<g><path style="opacity:0.985" fill="#685e68" d="M 207.5,116.5 C 252.931,127.432 280.765,155.766 291,201.5C 292.388,217.795 292.888,234.128 292.5,250.5C 287.911,236.69 278.244,230.023 263.5,230.5C 263.666,225.156 263.499,219.823 263,214.5C 261.955,213.627 261.122,212.627 260.5,211.5C 253.419,159.753 224.419,128.086 173.5,116.5C 184.815,115.31 196.148,115.31 207.5,116.5 Z"/></g>
<g><path style="opacity:1" fill="#edf4f5" d="M 381.5,140.5 C 392.167,140.5 402.833,140.5 413.5,140.5C 413.5,158.5 413.5,176.5 413.5,194.5C 406.359,195.782 404.192,199.782 407,206.5C 408.129,208.141 409.629,209.141 411.5,209.5C 413.823,225.003 414.157,240.669 412.5,256.5C 406.097,258.309 404.264,262.309 407,268.5C 408.264,270.607 410.097,271.607 412.5,271.5C 414.157,287.331 413.823,302.997 411.5,318.5C 404.956,321.718 403.956,326.218 408.5,332C 410.025,333.009 411.692,333.509 413.5,333.5C 413.5,348.833 413.5,364.167 413.5,379.5C 406.151,381.328 403.984,385.662 407,392.5C 408.734,394.451 410.901,395.451 413.5,395.5C 413.5,410.833 413.5,426.167 413.5,441.5C 405.864,443.422 403.864,447.756 407.5,454.5C 409.071,456.415 411.071,457.415 413.5,457.5C 413.667,474.503 413.5,491.503 413,508.5C 411.955,509.373 411.122,510.373 410.5,511.5C 401.833,511.5 393.167,511.5 384.5,511.5C 383.496,510.317 382.662,508.984 382,507.5C 381.5,385.167 381.333,262.834 381.5,140.5 Z"/></g>
<g><path style="opacity:0.991" fill="#ddebf0" d="M 413.5,140.5 C 417.833,140.5 422.167,140.5 426.5,140.5C 432.5,140.5 438.5,140.5 444.5,140.5C 444.5,158.5 444.5,176.5 444.5,194.5C 434.167,194.5 423.833,194.5 413.5,194.5C 413.5,176.5 413.5,158.5 413.5,140.5 Z"/></g>
<g><path style="opacity:0.998" fill="#fdd1a3" d="M 240.5,211.5 C 241.656,236.428 241.823,261.428 241,286.5C 235.165,322.835 214.332,345.168 178.5,353.5C 171.923,353.314 165.756,351.648 160,348.5C 159.601,348.728 159.435,349.062 159.5,349.5C 130.009,335.995 114.342,312.995 112.5,280.5C 112.5,263.833 112.5,247.167 112.5,230.5C 112.334,224.824 112.501,219.157 113,213.5C 113.5,212.333 114.333,211.5 115.5,211C 141.833,210.667 168.167,210.333 194.5,210C 201.678,203.487 208.845,196.987 216,190.5C 217.49,191.317 218.99,192.15 220.5,193C 226.756,199.762 233.423,205.929 240.5,211.5 Z"/></g>
<g><path style="opacity:0.992" fill="#685e68" d="M 413.5,194.5 C 423.833,194.5 434.167,194.5 444.5,194.5C 444.5,199.5 444.5,204.5 444.5,209.5C 434.167,209.5 423.833,209.5 413.5,209.5C 413.5,204.5 413.5,199.5 413.5,194.5 Z"/></g>
<g><path style="opacity:1" fill="#928492" d="M 413.5,194.5 C 413.5,199.5 413.5,204.5 413.5,209.5C 412.833,209.5 412.167,209.5 411.5,209.5C 409.629,209.141 408.129,208.141 407,206.5C 404.192,199.782 406.359,195.782 413.5,194.5 Z"/></g>
<g><path style="opacity:0.991" fill="#dceaef" d="M 411.5,209.5 C 412.167,209.5 412.833,209.5 413.5,209.5C 423.833,209.5 434.167,209.5 444.5,209.5C 444.5,225.167 444.5,240.833 444.5,256.5C 434.167,256.5 423.833,256.5 413.5,256.5C 413.167,256.5 412.833,256.5 412.5,256.5C 414.157,240.669 413.823,225.003 411.5,209.5 Z"/></g>
<g><path style="opacity:0.99" fill="#febc86" d="M 240.5,211.5 C 247.167,211.5 253.833,211.5 260.5,211.5C 261.122,212.627 261.955,213.627 263,214.5C 263.499,219.823 263.666,225.156 263.5,230.5C 263.5,247.167 263.5,263.833 263.5,280.5C 261.632,313.014 245.965,336.014 216.5,349.5C 216.565,349.062 216.399,348.728 216,348.5C 203.83,353.643 191.33,355.309 178.5,353.5C 214.332,345.168 235.165,322.835 241,286.5C 241.823,261.428 241.656,236.428 240.5,211.5 Z"/></g>
<g><path style="opacity:1" fill="#f5a96c" d="M 263.5,230.5 C 278.244,230.023 287.911,236.69 292.5,250.5C 293.039,270.295 283.372,280.295 263.5,280.5C 263.5,263.833 263.5,247.167 263.5,230.5 Z"/></g>
<g><path style="opacity:0.988" fill="#febc86" d="M 112.5,230.5 C 112.5,247.167 112.5,263.833 112.5,280.5C 92.1621,280.162 82.4955,269.829 83.5,249.5C 88.6165,236.407 98.2832,230.073 112.5,230.5 Z"/></g>
<g><path style="opacity:1" fill="#6a5f68" d="M 149.5,242.5 C 153.803,241.796 157.303,243.13 160,246.5C 160.667,252.167 160.667,257.833 160,263.5C 154.837,269.062 150.171,268.729 146,262.5C 145.333,257.5 145.333,252.5 146,247.5C 146.997,245.677 148.164,244.01 149.5,242.5 Z"/></g>
<g><path style="opacity:1" fill="#6a5f69" d="M 219.5,242.5 C 224.28,241.641 227.78,243.308 230,247.5C 230.851,253.253 230.517,258.92 229,264.5C 224.291,268.769 219.958,268.436 216,263.5C 215.333,257.833 215.333,252.167 216,246.5C 217.376,245.295 218.542,243.962 219.5,242.5 Z"/></g>
<g><path style="opacity:1" fill="#938593" d="M 412.5,256.5 C 412.833,256.5 413.167,256.5 413.5,256.5C 413.5,261.5 413.5,266.5 413.5,271.5C 413.167,271.5 412.833,271.5 412.5,271.5C 410.097,271.607 408.264,270.607 407,268.5C 404.264,262.309 406.097,258.309 412.5,256.5 Z"/></g>
<g><path style="opacity:0.992" fill="#685e68" d="M 413.5,256.5 C 423.833,256.5 434.167,256.5 444.5,256.5C 444.5,261.5 444.5,266.5 444.5,271.5C 434.167,271.5 423.833,271.5 413.5,271.5C 413.5,266.5 413.5,261.5 413.5,256.5 Z"/></g>
<g><path style="opacity:0.991" fill="#dceaef" d="M 412.5,271.5 C 412.833,271.5 413.167,271.5 413.5,271.5C 423.833,271.5 434.167,271.5 444.5,271.5C 444.5,287.167 444.5,302.833 444.5,318.5C 434.167,318.5 423.833,318.5 413.5,318.5C 412.833,318.5 412.167,318.5 411.5,318.5C 413.823,302.997 414.157,287.331 412.5,271.5 Z"/></g>
<g><path style="opacity:1" fill="#fea3cd" d="M 167.5,303.5 C 173.859,304.17 180.192,305.17 186.5,306.5C 190.979,306.31 195.312,305.476 199.5,304C 206.259,301.694 210.593,303.861 212.5,310.5C 211.628,315.537 208.628,318.371 203.5,319C 190.869,322.939 178.536,322.273 166.5,317C 162.419,312.218 162.752,307.718 167.5,303.5 Z"/></g>
<g><path style="opacity:1" fill="#928492" d="M 411.5,318.5 C 412.167,318.5 412.833,318.5 413.5,318.5C 413.5,323.5 413.5,328.5 413.5,333.5C 411.692,333.509 410.025,333.009 408.5,332C 403.956,326.218 404.956,321.718 411.5,318.5 Z"/></g>
<g><path style="opacity:0.992" fill="#685e68" d="M 413.5,318.5 C 423.833,318.5 434.167,318.5 444.5,318.5C 444.5,323.5 444.5,328.5 444.5,333.5C 434.167,333.5 423.833,333.5 413.5,333.5C 413.5,328.5 413.5,323.5 413.5,318.5 Z"/></g>
<g><path style="opacity:0.991" fill="#ddebf0" d="M 413.5,333.5 C 423.833,333.5 434.167,333.5 444.5,333.5C 444.5,348.833 444.5,364.167 444.5,379.5C 434.167,379.5 423.833,379.5 413.5,379.5C 413.5,364.167 413.5,348.833 413.5,333.5 Z"/></g>
<g><path style="opacity:0.997" fill="#f5a86b" d="M 178.5,353.5 C 191.33,355.309 203.83,353.643 216,348.5C 216.399,348.728 216.565,349.062 216.5,349.5C 215.874,354.408 216.874,358.908 219.5,363C 235.044,367.636 250.711,371.803 266.5,375.5C 275.454,381.717 280.621,390.383 282,401.5C 286.167,435 290.333,468.5 294.5,502C 294.29,506.362 292.29,509.529 288.5,511.5C 283.833,511.5 279.167,511.5 274.5,511.5C 274.667,492.164 274.5,472.83 274,453.5C 269.255,448.257 264.588,448.257 260,453.5C 259.5,472.83 259.333,492.164 259.5,511.5C 211.833,511.5 164.167,511.5 116.5,511.5C 116.667,492.164 116.5,472.83 116,453.5C 111.255,448.257 106.588,448.257 102,453.5C 101.5,472.83 101.333,492.164 101.5,511.5C 85.8333,511.5 70.1667,511.5 54.5,511.5C 52.8564,510.684 51.6897,509.35 51,507.5C 53.6752,474.094 57.3418,440.761 62,407.5C 63.2283,396.614 68.7283,388.781 78.5,384C 103.543,377.489 128.543,370.822 153.5,364C 158.686,360.634 160.686,355.801 159.5,349.5C 159.435,349.062 159.601,348.728 160,348.5C 165.756,351.648 171.923,353.314 178.5,353.5 Z"/></g>
<g><path style="opacity:0.99" fill="#ea9b58" d="M 266.5,375.5 C 278.292,378.532 289.959,382.032 301.5,386C 306.146,389.642 309.646,394.142 312,399.5C 317.813,435.339 322.147,471.339 325,507.5C 324.31,509.35 323.144,510.684 321.5,511.5C 310.5,511.5 299.5,511.5 288.5,511.5C 292.29,509.529 294.29,506.362 294.5,502C 290.333,468.5 286.167,435 282,401.5C 280.621,390.383 275.454,381.717 266.5,375.5 Z"/></g>
<g><path style="opacity:1" fill="#978c99" d="M 413.5,379.5 C 423.833,379.5 434.167,379.5 444.5,379.5C 444.5,379.833 444.5,380.167 444.5,380.5C 434.167,380.5 423.833,380.5 413.5,380.5C 413.5,385.5 413.5,390.5 413.5,395.5C 410.901,395.451 408.734,394.451 407,392.5C 403.984,385.662 406.151,381.328 413.5,379.5 Z"/></g>
<g><path style="opacity:0.992" fill="#685e68" d="M 444.5,380.5 C 444.5,385.5 444.5,390.5 444.5,395.5C 434.167,395.5 423.833,395.5 413.5,395.5C 413.5,390.5 413.5,385.5 413.5,380.5C 423.833,380.5 434.167,380.5 444.5,380.5 Z"/></g>
<g><path style="opacity:0.991" fill="#ddecf0" d="M 413.5,395.5 C 423.833,395.5 434.167,395.5 444.5,395.5C 444.5,410.833 444.5,426.167 444.5,441.5C 434.167,441.5 423.833,441.5 413.5,441.5C 413.5,426.167 413.5,410.833 413.5,395.5 Z"/></g>
<g><path style="opacity:1" fill="#938895" d="M 413.5,441.5 C 423.833,441.5 434.167,441.5 444.5,441.5C 444.5,441.833 444.5,442.167 444.5,442.5C 434.167,442.5 423.833,442.5 413.5,442.5C 413.5,447.5 413.5,452.5 413.5,457.5C 411.071,457.415 409.071,456.415 407.5,454.5C 403.864,447.756 405.864,443.422 413.5,441.5 Z"/></g>
<g><path style="opacity:0.991" fill="#685f69" d="M 444.5,442.5 C 444.5,447.5 444.5,452.5 444.5,457.5C 434.167,457.5 423.833,457.5 413.5,457.5C 413.5,452.5 413.5,447.5 413.5,442.5C 423.833,442.5 434.167,442.5 444.5,442.5 Z"/></g>
<g><path style="opacity:1" fill="#ea9b58" d="M 116.5,511.5 C 111.5,511.5 106.5,511.5 101.5,511.5C 101.333,492.164 101.5,472.83 102,453.5C 106.588,448.257 111.255,448.257 116,453.5C 116.5,472.83 116.667,492.164 116.5,511.5 Z"/></g>
<g><path style="opacity:1" fill="#ea9b58" d="M 274.5,511.5 C 269.5,511.5 264.5,511.5 259.5,511.5C 259.333,492.164 259.5,472.83 260,453.5C 264.588,448.257 269.255,448.257 274,453.5C 274.5,472.83 274.667,492.164 274.5,511.5 Z"/></g>
<g><path style="opacity:0.991" fill="#deecf0" d="M 413.5,457.5 C 423.833,457.5 434.167,457.5 444.5,457.5C 444.667,474.837 444.5,492.17 444,509.5C 443.283,510.044 442.783,510.711 442.5,511.5C 431.833,511.5 421.167,511.5 410.5,511.5C 411.122,510.373 411.955,509.373 413,508.5C 413.5,491.503 413.667,474.503 413.5,457.5 Z"/></g>
</svg>
