<?xml version="1.0" encoding="UTF-8"?>
<!DOCTYPE svg PUBLIC "-//W3C//DTD SVG 1.1//EN" "http://www.w3.org/Graphics/SVG/1.1/DTD/svg11.dtd">
<svg xmlns="http://www.w3.org/2000/svg" version="1.1" width="128px" height="128px" style="shape-rendering:geometricPrecision; text-rendering:geometricPrecision; image-rendering:optimizeQuality; fill-rule:evenodd; clip-rule:evenodd" xmlns:xlink="http://www.w3.org/1999/xlink">
<g><path style="opacity:0.929" fill="#000000" d="M 61.5,5.5 C 66.8965,5.67928 71.8965,7.17928 76.5,10C 89.8333,18.6667 103.167,27.3333 116.5,36C 118.709,37.8734 120.542,40.04 122,42.5C 123.635,65.1031 123.968,87.7698 123,110.5C 121.311,115.525 118.144,119.359 113.5,122C 81.2275,123.645 48.8941,123.978 16.5,123C 11.4748,121.311 7.64146,118.144 5,113.5C 3.86405,101.734 3.36405,89.9008 3.5,78C 3.36405,66.0992 3.86405,54.2659 5,42.5C 8.9131,37.2893 13.7464,33.1227 19.5,30C 30.6692,23.2497 41.6692,16.2497 52.5,9C 55.4588,7.39574 58.4588,6.22907 61.5,5.5 Z M 61.5,14.5 C 62.8734,14.3433 64.2068,14.51 65.5,15C 80.6679,24.0829 95.6679,33.4162 110.5,43C 112.049,44.214 113.215,45.714 114,47.5C 115.615,66.4479 115.949,85.4479 115,104.5C 114.687,108.965 112.521,112.132 108.5,114C 79.8818,115.634 51.2152,115.967 22.5,115C 18.0346,114.687 14.8679,112.521 13,108.5C 11.8839,98.3893 11.3839,88.2227 11.5,78C 11.6667,69.1667 11.8333,60.3333 12,51.5C 12.3599,49.3921 13.0266,47.3921 14,45.5C 29.7387,34.9102 45.5721,24.5769 61.5,14.5 Z"/></g>
<g><path style="opacity:0.967" fill="#000000" d="M 44.5,95.5 C 57.1711,95.3334 69.8377,95.5001 82.5,96C 83.8333,98.3333 83.8333,100.667 82.5,103C 69.8333,103.667 57.1667,103.667 44.5,103C 43.2215,100.502 43.2215,98.0024 44.5,95.5 Z"/></g>
</svg>
