<?xml version="1.0" encoding="UTF-8"?>
<!DOCTYPE svg PUBLIC "-//W3C//DTD SVG 1.1//EN" "http://www.w3.org/Graphics/SVG/1.1/DTD/svg11.dtd">
<svg xmlns="http://www.w3.org/2000/svg" version="1.1" width="512px" height="512px" style="shape-rendering:geometricPrecision; text-rendering:geometricPrecision; image-rendering:optimizeQuality; fill-rule:evenodd; clip-rule:evenodd" xmlns:xlink="http://www.w3.org/1999/xlink">
<g><path style="opacity:0.976" fill="#ffec8f" d="M 250.5,10.5 C 260.968,8.83688 268.135,12.8369 272,22.5C 272.667,38.8333 272.667,55.1667 272,71.5C 265.897,83.9584 256.73,86.7917 244.5,80C 241.769,77.3741 239.936,74.2074 239,70.5C 238.333,54.8333 238.333,39.1667 239,23.5C 240.617,17.0578 244.45,12.7245 250.5,10.5 Z"/></g>
<g><path style="opacity:0.972" fill="#ffec8f" d="M 81.5,80.5 C 86.4116,80.0631 91.0783,80.8964 95.5,83C 107.731,94.5623 119.231,106.729 130,119.5C 132.814,133.18 127.314,140.847 113.5,142.5C 109.926,142.031 106.592,140.864 103.5,139C 91.6015,127.771 80.4349,115.937 70,103.5C 67.5091,92.481 71.3424,84.8144 81.5,80.5 Z"/></g>
<g><path style="opacity:0.97" fill="#ffec8f" d="M 420.5,80.5 C 439.068,80.9638 445.234,89.9638 439,107.5C 428.5,118 418,128.5 407.5,139C 398.4,144.367 390.233,143.2 383,135.5C 379.723,128.806 379.723,122.139 383,115.5C 393.833,104.667 404.667,93.8333 415.5,83C 417.315,82.2432 418.981,81.4098 420.5,80.5 Z"/></g>
<g><path style="opacity:0.998" fill="#ffeb8e" d="M 259.5,136.5 C 270.556,142.41 272.222,150.244 264.5,160C 203.603,174.894 167.436,213.06 156,274.5C 155.548,285.519 155.548,296.519 156,307.5C 149.389,319.134 141.222,320.467 131.5,311.5C 114.124,253.822 127.791,204.989 172.5,165C 198.045,145.207 227.045,135.707 259.5,136.5 Z"/></g>
<g><path style="opacity:0.998" fill="#fee773" d="M 259.5,136.5 C 312.443,140.376 350.61,166.042 374,213.5C 380.019,227.574 383.519,242.241 384.5,257.5C 380.664,252.209 375.831,251.209 370,254.5C 369.581,255.672 368.915,256.672 368,257.5C 366.089,293.815 351.922,324.315 325.5,349C 314.108,358.113 302.274,366.613 290,374.5C 282.976,385.056 280.476,396.722 282.5,409.5C 288.167,409.5 293.833,409.5 299.5,409.5C 299.5,409.833 299.5,410.167 299.5,410.5C 295.167,410.5 290.833,410.5 286.5,410.5C 260.833,410.5 235.167,410.5 209.5,410.5C 209.405,400.145 205.405,391.645 197.5,385C 166.18,368.852 144.18,344.352 131.5,311.5C 141.222,320.467 149.389,319.134 156,307.5C 155.548,296.519 155.548,285.519 156,274.5C 167.436,213.06 203.603,174.894 264.5,160C 272.222,150.244 270.556,142.41 259.5,136.5 Z"/></g>
<g><path style="opacity:1" fill="#fffefd" d="M 224.5,190.5 C 232.994,189.16 239.827,191.827 245,198.5C 248.02,206.672 246.52,213.839 240.5,220C 231.353,223.654 223.52,229.154 217,236.5C 213.027,242.95 209.194,249.45 205.5,256C 190.535,264.065 181.202,259.732 177.5,243C 181.858,228.635 189.525,216.302 200.5,206C 208.054,200.062 216.054,194.895 224.5,190.5 Z"/></g>
<g><path style="opacity:0.984" fill="#ffec8f" d="M -0.5,272.5 C -0.5,268.5 -0.5,264.5 -0.5,260.5C 2.26108,254.585 6.92774,251.085 13.5,250C 28.1667,249.333 42.8333,249.333 57.5,250C 66.4955,251.83 71.4955,257.33 72.5,266.5C 72.2589,274.842 68.2589,280.342 60.5,283C 43.8333,283.667 27.1667,283.667 10.5,283C 4.97272,281.272 1.30606,277.772 -0.5,272.5 Z"/></g>
<g><path style="opacity:0.969" fill="#ffec8f" d="M 511.5,260.5 C 511.5,264.5 511.5,268.5 511.5,272.5C 509.682,277.816 506.016,281.316 500.5,283C 483.833,283.667 467.167,283.667 450.5,283C 442.887,280.464 438.887,275.131 438.5,267C 439.271,257.564 444.271,251.897 453.5,250C 468.167,249.333 482.833,249.333 497.5,250C 504.072,251.085 508.739,254.585 511.5,260.5 Z"/></g>
<g><path style="opacity:1" fill="#fadf5a" d="M 384.5,257.5 C 386.148,315.054 361.814,357.554 311.5,385C 304.419,391.662 300.419,399.828 299.5,409.5C 293.833,409.5 288.167,409.5 282.5,409.5C 280.476,396.722 282.976,385.056 290,374.5C 302.274,366.613 314.108,358.113 325.5,349C 351.922,324.315 366.089,293.815 368,257.5C 368.915,256.672 369.581,255.672 370,254.5C 375.831,251.209 380.664,252.209 384.5,257.5 Z"/></g>
<g><path style="opacity:0.979" fill="#ffec90" d="M 109.5,391.5 C 128.068,391.964 134.234,400.964 128,418.5C 117.5,429 107,439.5 96.5,450C 89.5,454.667 82.5,454.667 75.5,450C 69.0141,443.02 67.8474,435.186 72,426.5C 81.229,416.587 90.729,406.754 100.5,397C 103.263,394.626 106.263,392.792 109.5,391.5 Z"/></g>
<g><path style="opacity:0.974" fill="#ffeb8f" d="M 392.5,391.5 C 397.412,391.063 402.078,391.896 406.5,394C 418.731,405.562 430.231,417.729 441,430.5C 443.326,443.863 437.826,451.53 424.5,453.5C 420.926,453.031 417.592,451.864 414.5,450C 402.602,438.771 391.435,426.937 381,414.5C 378.509,403.481 382.342,395.814 392.5,391.5 Z"/></g>
<g><path style="opacity:1" fill="#aaaaa9" d="M 209.5,410.5 C 235.167,410.5 260.833,410.5 286.5,410.5C 284.856,411.316 283.69,412.65 283,414.5C 282.667,428.833 282.333,443.167 282,457.5C 278.95,472.217 270.117,481.383 255.5,485C 250.167,485.333 244.833,485.667 239.5,486C 238.069,486.465 236.903,487.299 236,488.5C 235.333,491.167 235.333,493.833 236,496.5C 236.5,497.667 237.333,498.5 238.5,499C 249.828,499.5 261.162,499.667 272.5,499.5C 260.674,500.66 248.674,500.826 236.5,500C 231.824,499.397 227.824,497.564 224.5,494.5C 224.027,493.094 223.027,492.427 221.5,492.5C 215.374,487.26 211.541,480.593 210,472.5C 209.5,451.836 209.333,431.169 209.5,410.5 Z"/></g>
<g><path style="opacity:1" fill="#9a9a98" d="M 286.5,410.5 C 290.833,410.5 295.167,410.5 299.5,410.5C 299.956,432.553 299.456,454.553 298,476.5C 294.052,489.284 285.552,496.951 272.5,499.5C 261.162,499.667 249.828,499.5 238.5,499C 237.333,498.5 236.5,497.667 236,496.5C 235.333,493.833 235.333,491.167 236,488.5C 236.903,487.299 238.069,486.465 239.5,486C 244.833,485.667 250.167,485.333 255.5,485C 270.117,481.383 278.95,472.217 282,457.5C 282.333,443.167 282.667,428.833 283,414.5C 283.69,412.65 284.856,411.316 286.5,410.5 Z"/></g>
<g><path style="opacity:0.827" fill="#d7ce82" d="M 221.5,492.5 C 223.027,492.427 224.027,493.094 224.5,494.5C 222.973,494.573 221.973,493.906 221.5,492.5 Z"/></g>
</svg>
