<?xml version="1.0" standalone="no"?>
<!DOCTYPE svg PUBLIC "-//W3C//DTD SVG 20010904//EN"
 "http://www.w3.org/TR/2001/REC-SVG-20010904/DTD/svg10.dtd">
<svg version="1.0" xmlns="http://www.w3.org/2000/svg"
 width="128.000000pt" height="128.000000pt" viewBox="0 0 128.000000 128.000000"
 preserveAspectRatio="xMidYMid meet">

<g transform="translate(0.000000,128.000000) scale(0.100000,-0.100000)"
fill="#000000" stroke="none">
<path d="M529 1262 c-106 -36 -185 -106 -236 -212 -23 -47 -27 -71 -31 -172
-4 -117 -5 -118 -29 -118 -14 0 -37 -13 -54 -29 l-29 -29 0 -311 c0 -334 2
-351 51 -377 41 -21 837 -21 878 0 49 26 51 43 51 377 l0 311 -29 29 c-16 16
-39 29 -50 29 -20 0 -21 6 -21 83 0 195 -76 329 -226 399 -84 39 -192 47 -275
20z m233 -188 c28 -19 53 -48 71 -83 23 -47 27 -66 27 -143 l0 -88 -215 0
-215 0 0 90 c0 100 14 147 58 194 69 73 192 87 274 30z m-48 -585 c23 -26 27
-38 22 -67 -3 -19 -14 -45 -26 -57 -16 -17 -20 -35 -20 -97 0 -84 -10 -102
-57 -96 -28 3 -28 4 -33 88 -4 69 -9 91 -27 114 -39 49 -28 112 25 141 38 21
82 11 116 -26z"/>
</g>
</svg>
