<?xml version="1.0" encoding="UTF-8"?>
<!DOCTYPE svg PUBLIC "-//W3C//DTD SVG 1.1//EN" "http://www.w3.org/Graphics/SVG/1.1/DTD/svg11.dtd">
<svg xmlns="http://www.w3.org/2000/svg" version="1.1" width="512px" height="512px" style="shape-rendering:geometricPrecision; text-rendering:geometricPrecision; image-rendering:optimizeQuality; fill-rule:evenodd; clip-rule:evenodd" xmlns:xlink="http://www.w3.org/1999/xlink">
<g><path style="opacity:1" fill="#fbd309" d="M 319.5,-0.5 C 323.5,-0.5 327.5,-0.5 331.5,-0.5C 334.495,1.09757 337.329,3.09757 340,5.5C 344.784,14.7332 349.284,24.0665 353.5,33.5C 314.424,59.0224 300.424,94.689 311.5,140.5C 304.308,145.76 296.308,149.427 287.5,151.5C 276.725,149.896 271.058,143.729 270.5,133C 271.178,125.097 272.345,117.264 274,109.5C 275.266,103.369 274.266,97.7019 271,92.5C 263.613,85.1126 256.279,77.7792 249,70.5C 243.957,57.7562 247.791,48.9229 260.5,44C 271.335,42.7391 282.002,40.7391 292.5,38C 294.333,36.1667 296.167,34.3333 298,32.5C 302.333,23.8333 306.667,15.1667 311,6.5C 313.441,3.54644 316.275,1.21311 319.5,-0.5 Z"/></g>
<g><path style="opacity:0.994" fill="#fce25b" d="M 201.5,15.5 C 210.014,17.5144 213.181,22.8477 211,31.5C 201.654,41.8485 192.654,52.5152 184,63.5C 143.554,124.861 137.554,189.528 166,257.5C 195.877,318.045 244.044,354.879 310.5,368C 378.869,377.433 437.202,357.767 485.5,309C 493.069,305.662 498.902,307.495 503,314.5C 503.726,319.239 503.393,323.905 502,328.5C 484.455,387.836 450.288,434.836 399.5,469.5C 306.906,487.905 227.072,464.238 160,398.5C 98.5254,329.607 78.1921,249.94 99,159.5C 116.257,99.2675 150.424,51.2675 201.5,15.5 Z"/></g>
<g><path style="opacity:1" fill="#fbd308" d="M 201.5,15.5 C 150.424,51.2675 116.257,99.2675 99,159.5C 78.1921,249.94 98.5254,329.607 160,398.5C 227.072,464.238 306.906,487.905 399.5,469.5C 363.679,493.219 324.346,507.219 281.5,511.5C 266.833,511.5 252.167,511.5 237.5,511.5C 150.902,501.682 85.0689,459.682 40,385.5C 6.6411,324.264 -1.3589,259.93 16,192.5C 33.9818,130.659 69.8151,82.1592 123.5,47C 147.475,31.5077 173.475,21.0077 201.5,15.5 Z"/></g>
<g><path style="opacity:0.989" fill="#fce25b" d="M 353.5,33.5 C 356.511,36.6762 360.178,38.8428 364.5,40C 374.584,41.2363 384.584,42.9029 394.5,45C 404.806,51.4375 407.306,60.2708 402,71.5C 394.667,78.8333 387.333,86.1667 380,93.5C 378.725,95.7173 377.725,98.0506 377,100.5C 378.056,111.512 379.556,122.512 381.5,133.5C 380.509,144.491 374.509,150.491 363.5,151.5C 361.5,151 359.5,150.5 357.5,150C 347.914,145.04 338.248,140.373 328.5,136C 326.5,135.333 324.5,135.333 322.5,136C 318.812,137.513 315.145,139.013 311.5,140.5C 300.424,94.689 314.424,59.0224 353.5,33.5 Z"/></g>
<g><path style="opacity:1" fill="#fbd30b" d="M 414.5,224.5 C 389.767,239.662 381.434,261.329 389.5,289.5C 386.249,291.609 382.749,292.942 379,293.5C 375.455,293.961 372.788,292.628 371,289.5C 371.124,281.1 371.791,272.767 373,264.5C 368.436,257.929 363.102,251.929 357,246.5C 355.703,241.883 356.87,238.05 360.5,235C 367.798,233.481 375.131,232.148 382.5,231C 387.215,225.077 391.049,218.577 394,211.5C 399,206.167 404,206.167 409,211.5C 411.327,215.653 413.16,219.987 414.5,224.5 Z"/></g>
<g><path style="opacity:0.983" fill="#fce25b" d="M 414.5,224.5 C 416.153,226.961 418.153,229.128 420.5,231C 427.86,232.17 435.193,233.504 442.5,235C 446.414,238.569 447.247,242.736 445,247.5C 439.633,252.532 434.633,257.865 430,263.5C 430.775,271.819 431.442,280.152 432,288.5C 429.103,293.155 424.937,294.655 419.5,293C 413.873,289.353 407.873,286.519 401.5,284.5C 397.265,285.618 393.265,287.284 389.5,289.5C 381.434,261.329 389.767,239.662 414.5,224.5 Z"/></g>
</svg>
