<?xml version="1.0" encoding="UTF-8"?>
<!DOCTYPE svg PUBLIC "-//W3C//DTD SVG 1.1//EN" "http://www.w3.org/Graphics/SVG/1.1/DTD/svg11.dtd">
<svg xmlns="http://www.w3.org/2000/svg" version="1.1" width="128px" height="128px" style="shape-rendering:geometricPrecision; text-rendering:geometricPrecision; image-rendering:optimizeQuality; fill-rule:evenodd; clip-rule:evenodd" xmlns:xlink="http://www.w3.org/1999/xlink">
<g><path style="opacity:0.889" fill="#000000" d="M 51.5,-0.5 C 59.5,-0.5 67.5,-0.5 75.5,-0.5C 103.14,6.47339 120.473,23.8067 127.5,51.5C 127.5,59.1667 127.5,66.8333 127.5,74.5C 120.949,102.718 103.615,120.385 75.5,127.5C 67.8333,127.5 60.1667,127.5 52.5,127.5C 24.2553,120.922 6.58864,103.588 -0.5,75.5C -0.5,67.5 -0.5,59.5 -0.5,51.5C 6.5,23.8333 23.8333,6.5 51.5,-0.5 Z M 54.5,9.5 C 87.5465,7.73268 108.38,22.7327 117,54.5C 119.537,71.5492 115.203,86.5492 104,99.5C 98.3442,87.8443 89.1775,80.6777 76.5,78C 67.8333,77.3333 59.1667,77.3333 50.5,78C 37.8225,80.6777 28.6558,87.8443 23,99.5C 9.12573,82.7889 5.7924,64.1222 13,43.5C 21.0485,24.9384 34.8818,13.6051 54.5,9.5 Z M 59.5,35.5 C 71.6298,35.465 76.7965,41.465 75,53.5C 71.8318,60.1676 66.6651,62.6676 59.5,61C 52.22,57.2685 49.72,51.4352 52,43.5C 54.0282,40.3078 56.5282,37.6411 59.5,35.5 Z M 52.5,87.5 C 59.8409,87.3337 67.1742,87.5003 74.5,88C 84.6714,90.8385 91.6714,97.1718 95.5,107C 78.6258,118.57 60.6258,120.57 41.5,113C 38.1667,111 34.8333,109 31.5,107C 35.5061,97.1566 42.5061,90.6566 52.5,87.5 Z"/></g>
<g><path style="opacity:0.884" fill="#000000" d="M 57.5,25.5 C 74.5545,23.8905 84.2212,31.5572 86.5,48.5C 82.3524,69.4081 70.3524,75.9081 50.5,68C 37.1667,55 37.1667,42 50.5,29C 52.9252,27.7874 55.2585,26.6207 57.5,25.5 Z M 59.5,35.5 C 56.5282,37.6411 54.0282,40.3078 52,43.5C 49.72,51.4352 52.22,57.2685 59.5,61C 66.6651,62.6676 71.8318,60.1676 75,53.5C 76.7965,41.465 71.6298,35.465 59.5,35.5 Z"/></g>
</svg>
