<?xml version="1.0" encoding="UTF-8"?>
<!DOCTYPE svg PUBLIC "-//W3C//DTD SVG 1.1//EN" "http://www.w3.org/Graphics/SVG/1.1/DTD/svg11.dtd">
<svg xmlns="http://www.w3.org/2000/svg" version="1.1" width="128px" height="128px" style="shape-rendering:geometricPrecision; text-rendering:geometricPrecision; image-rendering:optimizeQuality; fill-rule:evenodd; clip-rule:evenodd" xmlns:xlink="http://www.w3.org/1999/xlink">
<g><path style="opacity:0.931" fill="#000000" d="M 34.5,9.5 C 41.6943,9.71013 44.361,13.3768 42.5,20.5C 56.5,20.5 70.5,20.5 84.5,20.5C 84.3359,17.8127 84.5026,15.146 85,12.5C 87.9707,8.90827 91.304,8.57494 95,11.5C 95.498,14.4816 95.6646,17.4816 95.5,20.5C 106.568,18.6093 113.734,22.9427 117,33.5C 117.667,57.1667 117.667,80.8333 117,104.5C 115.5,111.333 111.333,115.5 104.5,117C 77.1667,117.667 49.8333,117.667 22.5,117C 15.6667,115.5 11.5,111.333 10,104.5C 9.33333,80.8333 9.33333,57.1667 10,33.5C 13.2656,22.9427 20.4323,18.6093 31.5,20.5C 31.3354,17.4816 31.502,14.4816 32,11.5C 32.9947,10.9341 33.828,10.2674 34.5,9.5 Z M 21.5,53.5 C 49.5,53.5 77.5,53.5 105.5,53.5C 105.819,70.2142 105.485,86.8808 104.5,103.5C 103.975,104.192 103.308,104.692 102.5,105C 76.5,105.667 50.5,105.667 24.5,105C 23.6919,104.692 23.0253,104.192 22.5,103.5C 21.5146,86.8808 21.1813,70.2142 21.5,53.5 Z"/></g>
<g><path style="opacity:0.881" fill="#000000" d="M 76.5,63.5 C 82.9382,61.7837 85.7715,64.117 85,70.5C 78.8552,76.9765 72.3552,83.1431 65.5,89C 62.9699,90.4217 60.3033,90.755 57.5,90C 54.3333,86.8333 51.1667,83.6667 48,80.5C 46.1667,73 49,70.1667 56.5,72C 58,73.5 59.5,75 61,76.5C 66.145,72.0294 71.3117,67.6961 76.5,63.5 Z"/></g>
</svg>
