<?xml version="1.0" encoding="UTF-8"?>
<!DOCTYPE svg PUBLIC "-//W3C//DTD SVG 1.1//EN" "http://www.w3.org/Graphics/SVG/1.1/DTD/svg11.dtd">
<svg xmlns="http://www.w3.org/2000/svg" version="1.1" width="128px" height="128px" style="shape-rendering:geometricPrecision; text-rendering:geometricPrecision; image-rendering:optimizeQuality; fill-rule:evenodd; clip-rule:evenodd" xmlns:xlink="http://www.w3.org/1999/xlink">
<g><path style="opacity:0.978" fill="#23a24d" d="M 57.5,-0.5 C 61.5,-0.5 65.5,-0.5 69.5,-0.5C 74.3074,2.07189 77.474,6.07189 79,11.5C 79.4999,23.4954 79.6665,35.4954 79.5,47.5C 91.5046,47.3335 103.505,47.5001 115.5,48C 120.928,49.526 124.928,52.6926 127.5,57.5C 127.5,61.5 127.5,65.5 127.5,69.5C 124.928,74.3074 120.928,77.474 115.5,79C 103.505,79.4999 91.5046,79.6665 79.5,79.5C 79.6665,91.5046 79.4999,103.505 79,115.5C 77.474,120.928 74.3074,124.928 69.5,127.5C 65.5,127.5 61.5,127.5 57.5,127.5C 52.6926,124.928 49.526,120.928 48,115.5C 47.5001,103.505 47.3335,91.5046 47.5,79.5C 35.4954,79.6665 23.4954,79.4999 11.5,79C 6.07189,77.474 2.07189,74.3074 -0.5,69.5C -0.5,65.5 -0.5,61.5 -0.5,57.5C 1.81949,52.3604 5.81949,49.1937 11.5,48C 23.4954,47.5001 35.4954,47.3335 47.5,47.5C 47.3335,35.4954 47.5001,23.4954 48,11.5C 49.526,6.07189 52.6926,2.07189 57.5,-0.5 Z"/></g>
</svg>
