<?xml version="1.0" encoding="UTF-8"?>
<!DOCTYPE svg PUBLIC "-//W3C//DTD SVG 1.1//EN" "http://www.w3.org/Graphics/SVG/1.1/DTD/svg11.dtd">
<svg xmlns="http://www.w3.org/2000/svg" version="1.1" width="128px" height="128px" style="shape-rendering:geometricPrecision; text-rendering:geometricPrecision; image-rendering:optimizeQuality; fill-rule:evenodd; clip-rule:evenodd" xmlns:xlink="http://www.w3.org/1999/xlink">
<g><path style="opacity:0.871" fill="#000000" d="M 43.5,7.5 C 67.5341,4.92601 84.3674,14.5927 94,36.5C 98.7525,51.9 96.5858,66.2333 87.5,79.5C 97.8191,90.3193 108.319,100.986 119,111.5C 121.167,118.667 118.667,121.167 111.5,119C 100.986,108.319 90.3193,97.8191 79.5,87.5C 62.1514,98.8725 44.4848,99.3725 26.5,89C 8.19821,74.3051 3.03155,55.8051 11,33.5C 17.8226,19.6892 28.6559,11.0226 43.5,7.5 Z M 44.5,17.5 C 66.2405,15.2771 80.0739,24.6104 86,45.5C 87.8999,66.5379 78.7332,80.0379 58.5,86C 38.02,87.8429 24.52,79.0095 18,59.5C 15.501,38.1338 24.3343,24.1338 44.5,17.5 Z"/></g>
</svg>
