<?xml version="1.0" encoding="UTF-8"?>
<!DOCTYPE svg PUBLIC "-//W3C//DTD SVG 1.1//EN" "http://www.w3.org/Graphics/SVG/1.1/DTD/svg11.dtd">
<svg xmlns="http://www.w3.org/2000/svg" version="1.1" width="512px" height="512px" style="shape-rendering:geometricPrecision; text-rendering:geometricPrecision; image-rendering:optimizeQuality; fill-rule:evenodd; clip-rule:evenodd" xmlns:xlink="http://www.w3.org/1999/xlink">
<g><path style="opacity:0.957" fill="#ffc344" d="M 149.5,-0.5 C 152.167,-0.5 154.833,-0.5 157.5,-0.5C 159.144,0.316435 160.31,1.64977 161,3.5C 168.667,22.1667 176.333,40.8333 184,59.5C 184.949,68.2172 181.116,71.7172 172.5,70C 171.667,69.1667 170.833,68.3333 170,67.5C 161.243,47.56 153.076,27.3933 145.5,7C 145.927,3.97656 147.261,1.47656 149.5,-0.5 Z"/></g>
<g><path style="opacity:0.964" fill="#ffc344" d="M 356.5,-0.5 C 358.167,-0.5 359.833,-0.5 361.5,-0.5C 366.972,2.44582 368.472,6.77915 366,12.5C 358.333,30.8333 350.667,49.1667 343,67.5C 338.828,72.3684 334.328,72.7018 329.5,68.5C 327.883,66.3684 327.383,64.0351 328,61.5C 336,42.1667 344,22.8333 352,3.5C 353.397,1.92975 354.897,0.596413 356.5,-0.5 Z"/></g>
<g><path style="opacity:0.932" fill="#ffc244" d="M 251.5,12.5 C 256.742,11.2706 260.575,12.9372 263,17.5C 263.667,28.5 263.667,39.5 263,50.5C 259.929,55.2988 255.762,56.4655 250.5,54C 249.299,53.0975 248.465,51.9308 248,50.5C 247.333,39.5 247.333,28.5 248,17.5C 248.997,15.6769 250.164,14.0103 251.5,12.5 Z"/></g>
<g><path style="opacity:0.964" fill="#ffc343" d="M 85.5,81.5 C 88.1873,81.3359 90.854,81.5026 93.5,82C 100.667,89.1667 107.833,96.3333 115,103.5C 117.516,113.65 113.683,117.484 103.5,115C 96.3333,107.833 89.1667,100.667 82,93.5C 80.5927,88.556 81.7593,84.556 85.5,81.5 Z"/></g>
<g><path style="opacity:0.974" fill="#ffc344" d="M 417.5,81.5 C 427.33,79.8292 431.163,83.8292 429,93.5C 421.833,100.667 414.667,107.833 407.5,115C 397.317,117.484 393.484,113.65 396,103.5C 403.369,96.2982 410.536,88.9649 417.5,81.5 Z"/></g>
<g><path style="opacity:0.999" fill="#ffe176" d="M 292.5,97.5 C 347.244,124.585 378.744,168.585 387,229.5C 390.373,297.595 363.54,349.762 306.5,386C 269.639,406.273 230.639,412.106 189.5,403.5C 149.796,386.295 121.629,357.628 105,317.5C 83.0487,257.486 91.3821,202.153 130,151.5C 173.797,102.623 227.964,84.6233 292.5,97.5 Z"/></g>
<g><path style="opacity:1" fill="#ffd15b" d="M 292.5,97.5 C 354.791,113.623 394.958,152.623 413,214.5C 427.955,287.034 406.122,345.534 347.5,390C 300.76,419.867 251.093,425.867 198.5,408C 195.177,406.96 192.177,405.46 189.5,403.5C 230.639,412.106 269.639,406.273 306.5,386C 363.54,349.762 390.373,297.595 387,229.5C 378.744,168.585 347.244,124.585 292.5,97.5 Z"/></g>
<g><path style="opacity:0.964" fill="#ffc344" d="M -0.5,154.5 C -0.5,152.833 -0.5,151.167 -0.5,149.5C 2.44582,144.028 6.77915,142.528 12.5,145C 30.8333,152.667 49.1667,160.333 67.5,168C 72.3684,172.172 72.7018,176.672 68.5,181.5C 66.3684,183.117 64.0351,183.617 61.5,183C 42.1667,175 22.8333,167 3.5,159C 1.92975,157.603 0.596413,156.103 -0.5,154.5 Z"/></g>
<g><path style="opacity:0.969" fill="#ffc344" d="M 511.5,149.5 C 511.5,152.167 511.5,154.833 511.5,157.5C 510.684,159.144 509.35,160.31 507.5,161C 488.833,168.667 470.167,176.333 451.5,184C 442.783,184.949 439.283,181.116 441,172.5C 441.833,171.667 442.667,170.833 443.5,170C 463.44,161.243 483.607,153.076 504,145.5C 507.023,145.927 509.523,147.261 511.5,149.5 Z"/></g>
<g><path style="opacity:0.952" fill="#ffc244" d="M 17.5,247.5 C 28.505,247.333 39.505,247.5 50.5,248C 55.2988,251.071 56.4655,255.238 54,260.5C 53.0975,261.701 51.9308,262.535 50.5,263C 39.5,263.667 28.5,263.667 17.5,263C 12.7762,260.565 11.2762,256.731 13,251.5C 14.3968,249.93 15.8968,248.596 17.5,247.5 Z"/></g>
<g><path style="opacity:0.956" fill="#ffc244" d="M 460.5,247.5 C 471.505,247.333 482.505,247.5 493.5,248C 498.224,250.435 499.724,254.269 498,259.5C 496.786,261.049 495.286,262.215 493.5,263C 482.5,263.667 471.5,263.667 460.5,263C 453.914,257.84 453.914,252.673 460.5,247.5 Z"/></g>
<g><path style="opacity:0.967" fill="#ffc344" d="M -0.5,361.5 C -0.5,358.833 -0.5,356.167 -0.5,353.5C 0.316435,351.856 1.64977,350.69 3.5,350C 22.1667,342.333 40.8333,334.667 59.5,327C 68.2172,326.051 71.7172,329.884 70,338.5C 69.1667,339.333 68.3333,340.167 67.5,341C 47.56,349.757 27.3933,357.924 7,365.5C 3.97656,365.073 1.47656,363.739 -0.5,361.5 Z"/></g>
<g><path style="opacity:0.963" fill="#ffc344" d="M 511.5,356.5 C 511.5,358.167 511.5,359.833 511.5,361.5C 508.554,366.972 504.221,368.472 498.5,366C 480.167,358.333 461.833,350.667 443.5,343C 438.632,338.828 438.298,334.328 442.5,329.5C 444.632,327.883 446.965,327.383 449.5,328C 468.833,336 488.167,344 507.5,352C 509.07,353.397 510.404,354.897 511.5,356.5 Z"/></g>
<g><path style="opacity:0.977" fill="#ffc344" d="M 105.5,394.5 C 114.555,394.624 117.722,398.958 115,407.5C 107.833,414.667 100.667,421.833 93.5,429C 83.6667,431.167 79.8333,427.333 82,417.5C 89.7285,409.604 97.5618,401.937 105.5,394.5 Z"/></g>
<g><path style="opacity:0.965" fill="#ffc344" d="M 400.5,394.5 C 402.989,394.298 405.323,394.798 407.5,396C 414.667,403.167 421.833,410.333 429,417.5C 431.167,427.333 427.333,431.167 417.5,429C 410.333,421.833 403.167,414.667 396,407.5C 393.552,401.74 395.052,397.407 400.5,394.5 Z"/></g>
<g><path style="opacity:0.957" fill="#ffc344" d="M 154.5,511.5 C 152.833,511.5 151.167,511.5 149.5,511.5C 144.028,508.554 142.528,504.221 145,498.5C 152.667,480.167 160.333,461.833 168,443.5C 172.172,438.632 176.672,438.298 181.5,442.5C 183.117,444.632 183.617,446.965 183,449.5C 175,468.833 167,488.167 159,507.5C 157.603,509.07 156.103,510.404 154.5,511.5 Z"/></g>
<g><path style="opacity:0.958" fill="#ffc343" d="M 361.5,511.5 C 358.833,511.5 356.167,511.5 353.5,511.5C 351.856,510.684 350.69,509.35 350,507.5C 342.333,488.833 334.667,470.167 327,451.5C 326.051,442.783 329.884,439.283 338.5,441C 339.333,441.833 340.167,442.667 341,443.5C 349.757,463.44 357.924,483.607 365.5,504C 365.073,507.023 363.739,509.523 361.5,511.5 Z"/></g>
<g><path style="opacity:0.937" fill="#ffc244" d="M 253.5,455.5 C 257.794,455.198 260.961,456.864 263,460.5C 263.667,471.5 263.667,482.5 263,493.5C 260.565,498.224 256.731,499.724 251.5,498C 249.951,496.786 248.785,495.286 248,493.5C 247.333,482.5 247.333,471.5 248,460.5C 249.107,457.887 250.94,456.22 253.5,455.5 Z"/></g>
</svg>
