<?xml version="1.0" encoding="UTF-8"?>
<!DOCTYPE svg PUBLIC "-//W3C//DTD SVG 1.1//EN" "http://www.w3.org/Graphics/SVG/1.1/DTD/svg11.dtd">
<svg xmlns="http://www.w3.org/2000/svg" version="1.1" width="512px" height="512px" style="shape-rendering:geometricPrecision; text-rendering:geometricPrecision; image-rendering:optimizeQuality; fill-rule:evenodd; clip-rule:evenodd" xmlns:xlink="http://www.w3.org/1999/xlink">
<g><path style="opacity:0.989" fill="#ffde76" d="M 251.5,31.5 C 258.663,29.8171 262.829,32.4837 264,39.5C 264.667,58.1667 264.667,76.8333 264,95.5C 263.892,101.109 261.059,103.776 255.5,103.5C 252.029,103.849 249.529,102.516 248,99.5C 247.333,78.1667 247.333,56.8333 248,35.5C 248.69,33.6498 249.856,32.3164 251.5,31.5 Z"/></g>
<g><path style="opacity:0.952" fill="#ffdd75" d="M 196.5,62.5 C 203.716,61.872 207.882,65.2054 209,72.5C 211.657,82.13 214.157,91.7966 216.5,101.5C 215.559,107.948 211.892,110.781 205.5,110C 202.943,109.315 201.109,107.815 200,105.5C 196.771,94.0842 193.938,82.5842 191.5,71C 191.308,67.0348 192.975,64.2015 196.5,62.5 Z"/></g>
<g><path style="opacity:0.952" fill="#ffdd75" d="M 307.5,62.5 C 314.669,61.2269 318.669,64.0602 319.5,71C 317.062,82.5842 314.229,94.0842 311,105.5C 306.353,111.632 301.353,111.965 296,106.5C 295.077,104.966 294.577,103.299 294.5,101.5C 297.198,89.7081 300.365,78.0414 304,66.5C 305.376,65.2949 306.542,63.9616 307.5,62.5 Z"/></g>
<g><path style="opacity:0.955" fill="#ffdd75" d="M 147.5,83.5 C 149.781,84.2071 151.948,85.2071 154,86.5C 159.667,96.1667 165.333,105.833 171,115.5C 173.216,124.61 169.716,128.777 160.5,128C 158.714,127.215 157.214,126.049 156,124.5C 150.667,115.167 145.333,105.833 140,96.5C 137.942,89.2598 140.442,84.9265 147.5,83.5 Z"/></g>
<g><path style="opacity:0.964" fill="#ffdd75" d="M 362.5,83.5 C 370.318,84.4539 373.152,88.7873 371,96.5C 365.667,105.833 360.333,115.167 355,124.5C 350,129.833 345,129.833 340,124.5C 339.333,121.5 339.333,118.5 340,115.5C 345.919,105.998 351.586,96.331 357,86.5C 358.876,85.3913 360.709,84.3913 362.5,83.5 Z"/></g>
<g><path style="opacity:0.971" fill="#ffdd75" d="M 82.5,101.5 C 85.6492,101.211 88.6492,101.711 91.5,103C 105,116.5 118.5,130 132,143.5C 134.621,148.729 133.788,153.229 129.5,157C 126.036,157.817 122.702,157.483 119.5,156C 106,142.5 92.5,129 79,115.5C 76.2672,109.722 77.4339,105.056 82.5,101.5 Z"/></g>
<g><path style="opacity:0.971" fill="#ffdd75" d="M 421.5,101.5 C 432.039,100.915 435.539,105.581 432,115.5C 418.5,129 405,142.5 391.5,156C 386.271,158.621 381.771,157.788 378,153.5C 377.183,150.036 377.517,146.702 379,143.5C 393.062,129.271 407.228,115.271 421.5,101.5 Z"/></g>
<g><path style="opacity:0.996" fill="#ffdd75" d="M 415.5,271.5 C 308.833,271.5 202.167,271.5 95.5,271.5C 101.087,204.118 134.754,156.951 196.5,130C 259.71,108.309 316.376,119.309 366.5,163C 396.782,192.741 413.116,228.907 415.5,271.5 Z"/></g>
<g><path style="opacity:0.95" fill="#ffdd75" d="M 64.5,163.5 C 67.1873,163.336 69.854,163.503 72.5,164C 81.8333,169.333 91.1667,174.667 100.5,180C 105.833,185 105.833,190 100.5,195C 97.5,195.667 94.5,195.667 91.5,195C 81.9977,189.081 72.331,183.414 62.5,178C 58.6043,172.525 59.2709,167.692 64.5,163.5 Z"/></g>
<g><path style="opacity:0.959" fill="#ffdd75" d="M 438.5,163.5 C 449.574,162.674 453.074,167.341 449,177.5C 439.084,183.207 429.251,189.041 419.5,195C 408.992,196.828 405.159,192.662 408,182.5C 417.979,175.766 428.146,169.433 438.5,163.5 Z"/></g>
<g><path style="opacity:0.965" fill="#ffdd75" d="M 42.5,215.5 C 55.7112,217.177 68.7112,220.01 81.5,224C 87.6321,228.647 87.9655,233.647 82.5,239C 80.9656,239.923 79.299,240.423 77.5,240.5C 65.7957,237.49 54.129,234.324 42.5,231C 37.2912,225.91 37.2912,220.743 42.5,215.5 Z"/></g>
<g><path style="opacity:0.961" fill="#ffdd75" d="M 459.5,215.5 C 469.105,213.939 473.271,217.939 472,227.5C 470.833,228.667 469.667,229.833 468.5,231C 456.959,234.635 445.292,237.802 433.5,240.5C 424.392,238.114 422.392,232.947 427.5,225C 438.273,221.812 448.94,218.645 459.5,215.5 Z"/></g>
<g><path style="opacity:0.999" fill="#fbbd00" d="M 95.5,271.5 C 202.167,271.5 308.833,271.5 415.5,271.5C 435.503,271.333 455.503,271.5 475.5,272C 478.516,273.529 479.849,276.029 479.5,279.5C 479.849,282.971 478.516,285.471 475.5,287C 328.833,287.667 182.167,287.667 35.5,287C 32.484,285.471 31.1506,282.971 31.5,279.5C 31.1506,276.029 32.484,273.529 35.5,272C 55.4972,271.5 75.4972,271.333 95.5,271.5 Z"/></g>
<g><path style="opacity:0.995" fill="#fbbe00" d="M 64.5,303.5 C 125.168,303.333 185.834,303.5 246.5,304C 260.444,309.377 265.944,319.544 263,334.5C 260.719,343.237 255.219,348.737 246.5,351C 234.776,351.087 223.11,351.754 211.5,353C 210.584,353.374 209.75,353.874 209,354.5C 208.211,358.091 208.378,361.591 209.5,365C 211.392,365.973 213.392,366.64 215.5,367C 271.167,367.333 326.833,367.667 382.5,368C 396.444,373.377 401.944,383.544 399,398.5C 396.833,407.333 391.333,412.833 382.5,415C 297.833,415.667 213.167,415.667 128.5,415C 117.272,411.262 111.606,403.429 111.5,391.5C 111.239,380.841 115.906,373.341 125.5,369C 134.091,367.756 142.758,367.089 151.5,367C 153.608,366.64 155.608,365.973 157.5,365C 158.622,361.591 158.789,358.091 158,354.5C 156.055,353.137 153.888,352.303 151.5,352C 122.5,351.667 93.5,351.333 64.5,351C 50.5557,345.623 45.0557,335.456 48,320.5C 50.3493,311.652 55.8493,305.986 64.5,303.5 Z"/></g>
<g><path style="opacity:0.993" fill="#fbbe00" d="M 296.5,303.5 C 346.501,303.333 396.501,303.5 446.5,304C 460.444,309.377 465.944,319.544 463,334.5C 460.719,343.237 455.219,348.737 446.5,351C 396.5,351.667 346.5,351.667 296.5,351C 282.556,345.623 277.056,335.456 280,320.5C 282.349,311.652 287.849,305.986 296.5,303.5 Z"/></g>
<g><path style="opacity:0.994" fill="#fbbe00" d="M 176.5,431.5 C 229.168,431.333 281.834,431.5 334.5,432C 348.444,437.377 353.944,447.544 351,462.5C 348.719,471.237 343.219,476.737 334.5,479C 281.833,479.667 229.167,479.667 176.5,479C 162.556,473.623 157.056,463.456 160,448.5C 162.349,439.652 167.849,433.986 176.5,431.5 Z"/></g>
</svg>
