<?xml version="1.0" encoding="UTF-8"?>
<!DOCTYPE svg PUBLIC "-//W3C//DTD SVG 1.1//EN" "http://www.w3.org/Graphics/SVG/1.1/DTD/svg11.dtd">
<svg xmlns="http://www.w3.org/2000/svg" version="1.1" width="512px" height="512px" style="shape-rendering:geometricPrecision; text-rendering:geometricPrecision; image-rendering:optimizeQuality; fill-rule:evenodd; clip-rule:evenodd" xmlns:xlink="http://www.w3.org/1999/xlink">
<g><path style="opacity:0.983" fill="#ced7db" d="M 443.5,-0.5 C 450.833,-0.5 458.167,-0.5 465.5,-0.5C 489.833,5.83333 505.167,21.1667 511.5,45.5C 511.5,52.8333 511.5,60.1667 511.5,67.5C 507.022,83.7614 498.022,97.0947 484.5,107.5C 470.5,122.167 456.167,136.5 441.5,150.5C 444.324,145.412 444.158,140.412 441,135.5C 436.425,130.254 431.258,125.754 425.5,122C 417.38,120.893 412.714,124.393 411.5,132.5C 411.295,135.229 412.128,137.562 414,139.5C 418.532,144.367 423.366,148.867 428.5,153C 432.762,153.917 436.762,153.417 440.5,151.5C 426.833,165.833 412.833,179.833 398.5,193.5C 401.157,188.645 400.991,183.979 398,179.5C 393.468,174.633 388.634,170.133 383.5,166C 369.674,164.834 365.507,170.668 371,183.5C 375.199,188.034 379.699,192.201 384.5,196C 389.116,197.929 393.449,197.429 397.5,194.5C 383.833,208.833 369.833,222.833 355.5,236.5C 356.992,232.095 356.825,227.762 355,223.5C 350.5,219 346,214.5 341.5,210C 332.635,206.432 326.969,209.266 324.5,218.5C 325.036,220.942 325.869,223.275 327,225.5C 331.865,230.7 337.032,235.533 342.5,240C 346.433,240.884 350.099,240.384 353.5,238.5C 339.833,252.833 325.833,266.833 311.5,280.5C 314.555,274.825 314.055,269.492 310,264.5C 305.756,259.585 300.923,255.419 295.5,252C 287.38,250.893 282.714,254.393 281.5,262.5C 281.295,265.229 282.128,267.562 284,269.5C 288.532,274.367 293.366,278.867 298.5,283C 302.762,283.917 306.762,283.417 310.5,281.5C 296.833,295.833 282.833,309.833 268.5,323.5C 271.314,318.743 271.147,314.077 268,309.5C 263.468,304.633 258.634,300.133 253.5,296C 239.674,294.834 235.507,300.668 241,313.5C 245.575,318.746 250.742,323.246 256.5,327C 259.962,327.46 263.296,326.96 266.5,325.5C 253.193,338.473 239.86,351.473 226.5,364.5C 226.837,360.692 226.337,357.026 225,353.5C 220.833,349.333 216.667,345.167 212.5,341C 203.04,336.266 197.04,339.099 194.5,349.5C 194.622,351.791 195.455,353.791 197,355.5C 201.5,360 206,364.5 210.5,369C 214.075,370.742 217.741,370.908 221.5,369.5C 212.536,378.965 203.369,388.298 194,397.5C 197.433,423.102 191.766,446.435 177,467.5C 159.645,491.423 136.478,506.09 107.5,511.5C 99.1667,511.5 90.8333,511.5 82.5,511.5C 37.1667,501.5 9.5,473.833 -0.5,428.5C -0.5,420.167 -0.5,411.833 -0.5,403.5C 7.59676,365.222 29.5968,338.055 65.5,322C 80.8217,316.822 96.4884,315.155 112.5,317C 213.5,216 314.5,115 415.5,14C 423.932,7.28508 433.265,2.45175 443.5,-0.5 Z"/></g>
<g><path style="opacity:1" fill="#90a4ae" d="M 484.5,107.5 C 479.659,111.227 474.659,111.394 469.5,108C 464.633,103.468 460.133,98.6344 456,93.5C 453.734,87.1872 455.567,82.3539 461.5,79C 464.964,78.1834 468.298,78.5167 471.5,80C 477.41,85.2392 482.577,91.0725 487,97.5C 487.293,101.121 486.459,104.454 484.5,107.5 Z"/></g>
<g><path style="opacity:1" fill="#91a5af" d="M 441.5,150.5 C 441.5,151.167 441.167,151.5 440.5,151.5C 436.762,153.417 432.762,153.917 428.5,153C 423.366,148.867 418.532,144.367 414,139.5C 412.128,137.562 411.295,135.229 411.5,132.5C 412.714,124.393 417.38,120.893 425.5,122C 431.258,125.754 436.425,130.254 441,135.5C 444.158,140.412 444.324,145.412 441.5,150.5 Z"/></g>
<g><path style="opacity:1" fill="#f34437" d="M 332.5,164.5 C 340.61,163.879 345.277,167.546 346.5,175.5C 346.153,178.528 344.986,181.194 343,183.5C 276.333,250.167 209.667,316.833 143,383.5C 157.836,412.651 152.669,437.817 127.5,459C 98.2241,475.078 73.0575,470.244 52,444.5C 35.1901,412.303 41.6901,386.137 71.5,366C 83.2103,359.664 95.5437,357.997 108.5,361C 115.052,363.126 121.385,365.459 127.5,368C 195.423,299.577 263.756,231.743 332.5,164.5 Z"/></g>
<g><path style="opacity:1" fill="#91a5ae" d="M 398.5,193.5 C 398.5,194.167 398.167,194.5 397.5,194.5C 393.449,197.429 389.116,197.929 384.5,196C 379.699,192.201 375.199,188.034 371,183.5C 365.507,170.668 369.674,164.834 383.5,166C 388.634,170.133 393.468,174.633 398,179.5C 400.991,183.979 401.157,188.645 398.5,193.5 Z"/></g>
<g><path style="opacity:1" fill="#90a4ae" d="M 355.5,236.5 C 355.167,237.5 354.5,238.167 353.5,238.5C 350.099,240.384 346.433,240.884 342.5,240C 337.032,235.533 331.865,230.7 327,225.5C 325.869,223.275 325.036,220.942 324.5,218.5C 326.969,209.266 332.635,206.432 341.5,210C 346,214.5 350.5,219 355,223.5C 356.825,227.762 356.992,232.095 355.5,236.5 Z"/></g>
<g><path style="opacity:1" fill="#91a5af" d="M 311.5,280.5 C 311.5,281.167 311.167,281.5 310.5,281.5C 306.762,283.417 302.762,283.917 298.5,283C 293.366,278.867 288.532,274.367 284,269.5C 282.128,267.562 281.295,265.229 281.5,262.5C 282.714,254.393 287.38,250.893 295.5,252C 300.923,255.419 305.756,259.585 310,264.5C 314.055,269.492 314.555,274.825 311.5,280.5 Z"/></g>
<g><path style="opacity:1" fill="#91a5ae" d="M 268.5,323.5 C 268.167,324.5 267.5,325.167 266.5,325.5C 263.296,326.96 259.962,327.46 256.5,327C 250.742,323.246 245.575,318.746 241,313.5C 235.507,300.668 239.674,294.834 253.5,296C 258.634,300.133 263.468,304.633 268,309.5C 271.147,314.077 271.314,318.743 268.5,323.5 Z"/></g>
<g><path style="opacity:1" fill="#90a4ae" d="M 226.5,364.5 C 225.5,366.833 223.833,368.5 221.5,369.5C 217.741,370.908 214.075,370.742 210.5,369C 206,364.5 201.5,360 197,355.5C 195.455,353.791 194.622,351.791 194.5,349.5C 197.04,339.099 203.04,336.266 212.5,341C 216.667,345.167 220.833,349.333 225,353.5C 226.337,357.026 226.837,360.692 226.5,364.5 Z"/></g>
</svg>
