<?xml version="1.0" encoding="UTF-8"?>
<!DOCTYPE svg PUBLIC "-//W3C//DTD SVG 1.1//EN" "http://www.w3.org/Graphics/SVG/1.1/DTD/svg11.dtd">
<svg xmlns="http://www.w3.org/2000/svg" version="1.1" width="128px" height="128px" style="shape-rendering:geometricPrecision; text-rendering:geometricPrecision; image-rendering:optimizeQuality; fill-rule:evenodd; clip-rule:evenodd" xmlns:xlink="http://www.w3.org/1999/xlink">
<g><path style="opacity:0.963" fill="#91d8f6" d="M 25.5,17.5 C 50.8355,17.3334 76.1689,17.5 101.5,18C 105.333,19.1667 107.833,21.6667 109,25.5C 109.667,50.8333 109.667,76.1667 109,101.5C 107.833,105.333 105.333,107.833 101.5,109C 76.5,109.667 51.5,109.667 26.5,109C 22.1037,108.27 19.2704,105.77 18,101.5C 17.3333,76.1667 17.3333,50.8333 18,25.5C 19.3532,21.6499 21.8532,18.9832 25.5,17.5 Z"/></g>
<g><path style="opacity:1" fill="#f0f1f2" d="M 66.5,47.5 C 66.6655,43.4862 66.4988,39.4862 66,35.5C 64.3333,34.1667 62.6667,34.1667 61,35.5C 60.5012,39.4862 60.3345,43.4862 60.5,47.5C 54.1667,47.5 47.8333,47.5 41.5,47.5C 40.6084,43.2108 39.2751,39.0441 37.5,35C 40.5721,32.1909 44.2388,30.5242 48.5,30C 62.1776,27.2848 75.5109,28.4515 88.5,33.5C 88.8333,34 89.1667,34.5 89.5,35C 87.7249,39.0441 86.3916,43.2108 85.5,47.5C 79.1667,47.5 72.8333,47.5 66.5,47.5 Z"/></g>
<g><path style="opacity:1" fill="#ec87b6" d="M 66.5,47.5 C 64.5,47.5 62.5,47.5 60.5,47.5C 60.3345,43.4862 60.5012,39.4862 61,35.5C 62.6667,34.1667 64.3333,34.1667 66,35.5C 66.4988,39.4862 66.6655,43.4862 66.5,47.5 Z"/></g>
<g><path style="opacity:1" fill="#66bad8" d="M 37.5,55.5 C 42.2675,55.1908 46.9342,55.6908 51.5,57C 53.0488,58.214 54.2155,59.714 55,61.5C 55.6667,68.8333 55.6667,76.1667 55,83.5C 50.7138,91.391 45.2138,92.391 38.5,86.5C 33.9268,78.7188 31.7602,70.3855 32,61.5C 33.3597,58.9774 35.193,56.9774 37.5,55.5 Z"/></g>
<g><path style="opacity:1" fill="#66bad8" d="M 77.5,55.5 C 82.2675,55.1908 86.9342,55.6908 91.5,57C 94.4655,59.2651 95.7989,62.2651 95.5,66C 94.2907,74.6404 90.9573,82.3071 85.5,89C 79.3107,91.4928 74.8107,89.6595 72,83.5C 71.3333,76.1667 71.3333,68.8333 72,61.5C 73.3597,58.9774 75.193,56.9774 77.5,55.5 Z"/></g>
<g><path style="opacity:1" fill="#66bad8" d="M 18.5,95.5 C 45.5021,95.3334 72.5021,95.5 99.5,96C 100.38,97.3561 100.714,98.8561 100.5,100.5C 73.1667,100.5 45.8333,100.5 18.5,100.5C 18.5,98.8333 18.5,97.1667 18.5,95.5 Z"/></g>
</svg>
